<svg width="691" height="100" viewBox="0 0 691 100" fill="none" xmlns="http://www.w3.org/2000/svg">
<path d="M71 4H30C18.9543 4 10 12.9543 10 24V65C10 76.0457 18.9543 85 30 85H71C82.0457 85 91 76.0457 91 65V24C91 12.9543 82.0457 4 71 4Z" fill="white"/>
<path d="M189 4H148C136.954 4 128 12.9543 128 24V65C128 76.0457 136.954 85 148 85H189C200.046 85 209 76.0457 209 65V24C209 12.9543 200.046 4 189 4Z" fill="white"/>
<path d="M307 4H266C254.954 4 246 12.9543 246 24V65C246 76.0457 254.954 85 266 85H307C318.046 85 327 76.0457 327 65V24C327 12.9543 318.046 4 307 4Z" fill="white"/>
<path d="M425 4H384C372.954 4 364 12.9543 364 24V65C364 76.0457 372.954 85 384 85H425C436.046 85 445 76.0457 445 65V24C445 12.9543 436.046 4 425 4Z" fill="white"/>
<path d="M543 4H502C490.954 4 482 12.9543 482 24V65C482 76.0457 490.954 85 502 85H543C554.046 85 563 76.0457 563 65V24C563 12.9543 554.046 4 543 4Z" fill="white"/>
<path d="M661 4H620C608.954 4 600 12.9543 600 24V65C600 76.0457 608.954 85 620 85H661C672.046 85 681 76.0457 681 65V24C681 12.9543 672.046 4 661 4Z" fill="white"/>
<path d="M403.46 61.67H406.23C407.36 61.67 408.25 60.98 408.51 59.9L409.07 57.48L409.43 57.34L411.53 58.64C412.49 59.23 413.61 59.09 414.4 58.28L416.32 56.37C417.14 55.56 417.26 54.44 416.67 53.5L415.37 51.41L415.5 51.06L417.92 50.5C418.98 50.24 419.69 49.34 419.69 48.22V45.53C419.69 44.41 419 43.52 417.92 43.24L415.52 42.67L415.39 42.31L416.68 40.22C417.27 39.28 417.16 38.16 416.33 37.34L414.42 35.42C413.62 34.63 412.5 34.48 411.56 35.07L409.45 36.35L409.07 36.2L408.51 33.78C408.25 32.7 407.36 32 406.23 32H403.46C402.32 32 401.43 32.7 401.18 33.78L400.62 36.2L400.24 36.35L398.13 35.07C397.18 34.48 396.05 34.63 395.26 35.42L393.35 37.34C392.53 38.16 392.4 39.28 392.99 40.22L394.3 42.31L394.15 42.67L391.77 43.24C390.68 43.52 390 44.41 390 45.53V48.22C390 49.34 390.69 50.24 391.77 50.5L394.18 51.06L394.32 51.41L393.01 53.5C392.42 54.44 392.54 55.56 393.36 56.37L395.27 58.28C396.08 59.09 397.2 59.23 398.15 58.64L400.25 57.34L400.62 57.48L401.18 59.9C401.43 60.98 402.32 61.67 403.46 61.67ZM403.79 59.2C403.56 59.2 403.45 59.09 403.41 58.88L402.6 55.52C401.73 55.32 400.91 54.97 400.24 54.55L397.28 56.37C397.12 56.48 396.94 56.48 396.78 56.3L395.33 54.85C395.18 54.7 395.17 54.54 395.29 54.36L397.11 51.41C396.72 50.76 396.35 49.94 396.15 49.08L392.77 48.27C392.57 48.23 392.47 48.12 392.47 47.89V45.84C392.47 45.59 392.57 45.5 392.77 45.44L396.15 44.65C396.35 43.74 396.75 42.89 397.08 42.3L395.27 39.36C395.15 39.17 395.15 39 395.32 38.84L396.76 37.41C396.94 37.25 397.08 37.23 397.28 37.34L400.22 39.13C400.84 38.76 401.74 38.38 402.6 38.16L403.41 34.79C403.45 34.59 403.56 34.48 403.79 34.48H405.9C406.13 34.48 406.24 34.58 406.27 34.79L407.09 38.18C407.98 38.39 408.78 38.76 409.45 39.14L412.39 37.35C412.6 37.24 412.73 37.25 412.9 37.42L414.36 38.85C414.52 39 414.52 39.17 414.4 39.36L412.6 42.3C412.93 42.89 413.34 43.74 413.54 44.65L416.9 45.44C417.12 45.5 417.22 45.59 417.22 45.84V47.89C417.22 48.12 417.11 48.23 416.9 48.27L413.53 49.08C413.32 49.94 412.95 50.76 412.58 51.41L414.39 54.36C414.5 54.54 414.5 54.7 414.35 54.84L412.9 56.3C412.73 56.48 412.56 56.48 412.39 56.37L409.44 54.55C408.77 54.97 407.99 55.32 407.09 55.52L406.27 58.88C406.24 59.1 406.13 59.2 405.9 59.2H403.79ZM404.84 52.02C407.7 52.02 410.03 49.71 410.03 46.84C410.03 43.97 407.7 41.66 404.84 41.66C401.97 41.66 399.65 43.97 399.65 46.84C399.65 49.71 401.97 52.02 404.84 52.02ZM404.84 49.67C403.27 49.67 402 48.41 402 46.84C402 45.27 403.27 44 404.84 44C406.4 44 407.68 45.27 407.68 46.84C407.68 48.41 406.4 49.67 404.84 49.67Z" fill="#F2784B"/>
<path d="M636.91 55.14C637.55 55.63 638.34 55.47 639.27 54.8L646.38 49.57L653.49 54.8C654.42 55.47 655.23 55.63 655.87 55.14C656.5 54.66 656.63 53.87 656.26 52.79L653.46 44.43L660.64 39.28C661.56 38.62 661.95 37.9 661.69 37.13C661.43 36.38 660.71 36.02 659.57 36.02H650.77L648.09 27.68C647.75 26.59 647.19 26 646.38 26C645.59 26 645.03 26.59 644.67 27.68L641.99 36.02H633.19C632.05 36.02 631.34 36.38 631.08 37.13C630.82 37.9 631.2 38.62 632.13 39.28L639.31 44.43L636.5 52.79C636.13 53.87 636.26 54.66 636.91 55.14Z" fill="#F5C518"/>
<g clip-path="url(#clip0_2228_21)">
<path d="M514 38.58C514 43.78 517.4 45.26 517.91 54.17C517.93 54.81 518.34 55.21 519.01 55.21H527.59C528.26 55.21 528.67 54.81 528.69 54.17C529.2 45.26 532.6 43.79 532.6 38.58C532.6 33.74 528.47 30 523.29 30C518.13 30 514 33.74 514 38.58ZM518.9 58.38H527.7C528.17 58.38 528.57 57.98 528.57 57.51C528.57 57.01 528.17 56.63 527.7 56.63H518.9C518.41 56.63 518.03 57.01 518.03 57.51C518.03 57.98 518.41 58.38 518.9 58.38ZM523.29 62.44C525.47 62.44 527.2 61.39 527.34 59.8H519.25C519.36 61.39 521.12 62.44 523.29 62.44Z" fill="#52A3D1"/>
</g>
<path d="M276.25 55.49H298.09C299.48 55.49 300.34 54.72 300.34 53.59C300.34 52.15 299.02 50.91 297.79 49.72C296.83 48.79 296.61 46.84 296.43 45.04C296.24 40.01 294.78 36.47 291.22 35.19C290.66 33.38 289.19 32 287.16 32C285.14 32 283.66 33.38 283.1 35.19C279.55 36.47 278.09 40.01 277.89 45.04C277.73 46.84 277.5 48.79 276.54 49.72C275.31 50.91 274 52.15 274 53.59C274 54.72 274.85 55.49 276.25 55.49ZM287.16 61.11C289.58 61.11 291.33 59.39 291.52 57.39H282.82C282.99 59.39 284.76 61.11 287.16 61.11Z" fill="#AE0000"/>
<g clip-path="url(#clip1_2228_21)">
<path d="M33 57.64C33 58.34 33.46 58.8 34.17 58.8H67.91C68.63 58.8 69.09 58.34 69.09 57.64V37.17C69.09 36.46 68.63 36 67.91 36H34.17C33.46 36 33 36.46 33 37.17V57.64ZM35.84 55.19V39.61C35.84 39.1 36.11 38.84 36.59 38.84H65.49C65.97 38.84 66.25 39.1 66.25 39.61V55.19C66.25 55.7 65.97 55.96 65.49 55.96H36.59C36.11 55.96 35.84 55.7 35.84 55.19ZM37.34 54.15C37.34 54.36 37.45 54.45 37.64 54.45H47.89C46.55 53.02 45.75 50.53 45.75 47.39C45.75 44.25 46.55 41.78 47.86 40.34H37.64C37.45 40.34 37.34 40.45 37.34 40.66V54.15ZM54.17 54.45H64.44C64.63 54.45 64.74 54.36 64.74 54.15V40.66C64.74 40.45 64.63 40.34 64.44 40.34H54.19C55.54 41.78 56.33 44.25 56.33 47.39C56.33 50.53 55.53 53.02 54.17 54.45ZM47.47 47.39C47.47 51.49 48.9 54.15 50.99 54.15C53.15 54.15 54.61 51.49 54.61 47.39C54.61 43.3 53.15 40.64 50.99 40.64C48.9 40.64 47.47 43.3 47.47 47.39Z" fill="#2F6A04"/>
</g>
<g clip-path="url(#clip2_2228_21)">
<path d="M163.49 34.12H171.91C172.73 34.12 173.24 33.6 173.24 32.71V31.27C173.24 30.39 172.73 29.87 171.91 29.87H170.75C170.65 28.28 169.33 27 167.7 27C166.07 27 164.75 28.28 164.65 29.87H163.49C162.67 29.87 162.16 30.39 162.16 31.27V32.71C162.16 33.6 162.67 34.12 163.49 34.12ZM167.7 31.19C167.03 31.19 166.5 30.63 166.5 29.98C166.5 29.32 167.03 28.77 167.7 28.77C168.37 28.77 168.9 29.32 168.9 29.98C168.9 30.63 168.37 31.19 167.7 31.19ZM160.44 60.41H174.96C177.86 60.41 179.4 58.85 179.4 55.91V44.39L176.78 47.01V55.87C176.78 57.1 176.11 57.78 174.84 57.78H160.56C159.29 57.78 158.62 57.1 158.62 55.87V35.25C158.62 34.09 159.22 33.34 160.39 33.34H160.66C160.59 33.11 160.56 32.83 160.56 32.55V31.27C160.56 31.08 160.58 30.89 160.63 30.71H160.32C157.5 30.71 156 32.34 156 35.23V55.91C156 58.85 157.54 60.41 160.44 60.41ZM176.78 37.37L178.84 35.31C179.01 35.14 179.17 34.99 179.36 34.84V34.46C179.24 32.11 177.72 30.71 175.08 30.71H174.77C174.82 30.89 174.84 31.08 174.84 31.27V32.55C174.84 32.83 174.81 33.11 174.74 33.34H175.01C176.18 33.34 176.78 34.09 176.78 35.25V37.37ZM182.14 38.93L183.12 37.93C183.65 37.39 183.67 36.63 183.15 36.11L182.78 35.75C182.31 35.29 181.54 35.35 181.03 35.87L180.05 36.83L182.14 38.93ZM166.95 52.48L169.82 51.25L181.1 39.98L178.99 37.89L167.73 49.16L166.43 51.95C166.29 52.25 166.65 52.62 166.95 52.48ZM160.92 40.87C160.92 41.39 161.37 41.83 161.89 41.83H172.31L174.08 40.07C173.93 39.96 173.72 39.9 173.51 39.9H161.89C161.37 39.9 160.92 40.34 160.92 40.87ZM160.92 45.7C160.92 46.25 161.34 46.67 161.89 46.67H167.48L169.39 44.74H161.89C161.36 44.74 160.92 45.18 160.92 45.7ZM161.89 51.77H163.61C164.14 51.77 164.58 51.33 164.58 50.81C164.58 50.28 164.14 49.85 163.61 49.85H161.89C161.36 49.85 160.92 50.28 160.92 50.81C160.92 51.33 161.37 51.77 161.89 51.77Z" fill="#006662"/>
</g>
<defs>
<clipPath id="clip0_2228_21">
<rect width="18.61" height="32.44" fill="white" transform="translate(514 30)"/>
</clipPath>
<clipPath id="clip1_2228_21">
<rect width="36.09" height="22.8" fill="white" transform="translate(33 36)"/>
</clipPath>
<clipPath id="clip2_2228_21">
<rect width="27.53" height="33.41" fill="white" transform="translate(156 27)"/>
</clipPath>
</defs>
</svg>
