<svg width="570" height="334" viewBox="0 0 570 334" fill="none" xmlns="http://www.w3.org/2000/svg">
<rect x="28" y="29" width="499" height="272" rx="18" fill="white" stroke="url(#paint0_linear_2225_27)" stroke-width="6" stroke-linejoin="round"/>
<path d="M58.082 82.3418C57.0612 82.3418 56.1452 82.2005 55.334 81.918C54.5319 81.6263 53.8438 81.2116 53.2695 80.6738C52.6953 80.1361 52.2533 79.4935 51.9434 78.7461C51.6335 77.9896 51.4648 77.1465 51.4375 76.2168L51.4238 76.0938H55.4297L55.4434 76.1758C55.4707 76.6862 55.5846 77.1374 55.7852 77.5293C55.9948 77.9212 56.2865 78.2266 56.6602 78.4453C57.043 78.6641 57.5033 78.7734 58.041 78.7734C58.9069 78.7734 59.5677 78.5137 60.0234 77.9941C60.4792 77.4746 60.707 76.7181 60.707 75.7246V62.2715H64.8359V75.7656C64.8359 77.1419 64.5671 78.3223 64.0293 79.3066C63.5007 80.291 62.735 81.043 61.7324 81.5625C60.7298 82.082 59.513 82.3418 58.082 82.3418ZM72.9297 82.3008C71.8542 82.3008 70.9382 82.082 70.1816 81.6445C69.4342 81.1979 68.86 80.5645 68.459 79.7441C68.0671 78.9238 67.8711 77.944 67.8711 76.8047V67.3438H71.8633V75.9707C71.8633 76.9277 72.0866 77.6706 72.5332 78.1992C72.9889 78.7279 73.6634 78.9922 74.5566 78.9922C75.0033 78.9922 75.4043 78.9147 75.7598 78.7598C76.1243 78.6048 76.4342 78.3861 76.6895 78.1035C76.9447 77.8118 77.1406 77.4701 77.2773 77.0781C77.4141 76.6771 77.4824 76.2396 77.4824 75.7656V67.3438H81.4746V82H77.4824V79.5801H77.4004C77.1452 80.1361 76.8079 80.6191 76.3887 81.0293C75.9785 81.4395 75.4818 81.7539 74.8984 81.9727C74.3242 82.1914 73.668 82.3008 72.9297 82.3008ZM84.0723 82V67.3438H88.0645V69.75H88.1465C88.5293 68.9115 89.0944 68.2507 89.8418 67.7676C90.5892 67.2845 91.5143 67.043 92.6172 67.043C94.2305 67.043 95.4746 67.5306 96.3496 68.5059C97.2337 69.472 97.6758 70.8164 97.6758 72.5391V82H93.6836V73.3594C93.6836 72.4023 93.4557 71.6641 93 71.1445C92.5534 70.6159 91.8835 70.3516 90.9902 70.3516C90.3978 70.3516 89.8828 70.4883 89.4453 70.7617C89.0078 71.026 88.666 71.3997 88.4199 71.8828C88.1829 72.3659 88.0645 72.931 88.0645 73.5781V82H84.0723ZM106.877 82.3008C105.382 82.3008 104.097 81.9954 103.021 81.3848C101.946 80.765 101.117 79.8854 100.533 78.7461C99.959 77.6068 99.6719 76.2578 99.6719 74.6992V74.6855C99.6719 73.127 99.959 71.778 100.533 70.6387C101.117 69.4902 101.932 68.6061 102.98 67.9863C104.038 67.3574 105.282 67.043 106.713 67.043C108.144 67.043 109.379 67.3483 110.418 67.959C111.466 68.5605 112.273 69.4128 112.838 70.5156C113.412 71.6185 113.699 72.9082 113.699 74.3848V75.6152H101.627V73.0996H111.812L109.912 75.4512V73.9199C109.912 73.0632 109.78 72.3477 109.516 71.7734C109.251 71.1901 108.882 70.7526 108.408 70.4609C107.943 70.1693 107.401 70.0234 106.781 70.0234C106.161 70.0234 105.61 70.1738 105.127 70.4746C104.653 70.7754 104.279 71.2174 104.006 71.8008C103.742 72.375 103.609 73.0814 103.609 73.9199V75.4648C103.609 76.276 103.742 76.9688 104.006 77.543C104.279 78.1172 104.667 78.5592 105.168 78.8691C105.669 79.1699 106.266 79.3203 106.959 79.3203C107.506 79.3203 107.98 79.2337 108.381 79.0605C108.782 78.8874 109.11 78.6686 109.365 78.4043C109.62 78.14 109.794 77.8711 109.885 77.5977L109.912 77.5156H113.576L113.535 77.666C113.426 78.2038 113.212 78.7461 112.893 79.293C112.574 79.8398 112.141 80.3411 111.594 80.7969C111.056 81.2526 110.395 81.6172 109.611 81.8906C108.837 82.1641 107.925 82.3008 106.877 82.3008ZM129.996 82.3008C129.294 82.3008 128.652 82.1868 128.068 81.959C127.485 81.7311 126.975 81.4121 126.537 81.002C126.1 80.5827 125.749 80.0814 125.484 79.498H125.402V82H121.41V62.2715H125.402V69.8867H125.484C125.758 69.2943 126.113 68.7884 126.551 68.3691C126.988 67.9408 127.499 67.6126 128.082 67.3848C128.674 67.1569 129.317 67.043 130.01 67.043C131.24 67.043 132.298 67.3483 133.182 67.959C134.075 68.5605 134.763 69.431 135.246 70.5703C135.729 71.7005 135.971 73.0632 135.971 74.6582V74.6719C135.971 76.2578 135.729 77.6204 135.246 78.7598C134.763 79.8991 134.075 80.7741 133.182 81.3848C132.288 81.9954 131.227 82.3008 129.996 82.3008ZM128.67 78.9922C129.335 78.9922 129.91 78.819 130.393 78.4727C130.876 78.1172 131.249 77.6159 131.514 76.9688C131.778 76.3216 131.91 75.556 131.91 74.6719V74.6582C131.91 73.765 131.778 72.9993 131.514 72.3613C131.249 71.7142 130.871 71.2174 130.379 70.8711C129.896 70.5247 129.326 70.3516 128.67 70.3516C128.023 70.3516 127.453 70.5293 126.961 70.8848C126.478 71.2311 126.095 71.7279 125.812 72.375C125.539 73.013 125.402 73.7741 125.402 74.6582V74.6719C125.402 75.556 125.539 76.3216 125.812 76.9688C126.086 77.6159 126.469 78.1172 126.961 78.4727C127.453 78.819 128.023 78.9922 128.67 78.9922ZM138.104 82V67.3438H142.096V82H138.104ZM140.1 65.457C139.498 65.457 138.992 65.252 138.582 64.8418C138.172 64.4316 137.967 63.944 137.967 63.3789C137.967 62.8047 138.172 62.3171 138.582 61.916C138.992 61.5059 139.498 61.3008 140.1 61.3008C140.701 61.3008 141.207 61.5059 141.617 61.916C142.027 62.3171 142.232 62.8047 142.232 63.3789C142.232 63.944 142.027 64.4316 141.617 64.8418C141.207 65.252 140.701 65.457 140.1 65.457ZM144.871 82V62.2715H148.863V82H144.871ZM151.652 82V62.2715H155.645V82H151.652ZM164.367 82.3008C163.018 82.3008 161.87 82.1048 160.922 81.7129C159.974 81.321 159.231 80.7786 158.693 80.0859C158.165 79.3841 157.846 78.5729 157.736 77.6523L157.723 77.5293H161.619L161.646 77.6523C161.774 78.2266 162.061 78.6732 162.508 78.9922C162.954 79.3112 163.574 79.4707 164.367 79.4707C164.878 79.4707 165.311 79.4115 165.666 79.293C166.021 79.1654 166.295 78.9876 166.486 78.7598C166.687 78.5319 166.787 78.2585 166.787 77.9395V77.9258C166.787 77.5339 166.646 77.2194 166.363 76.9824C166.081 76.7454 165.579 76.5449 164.859 76.3809L162.371 75.8613C161.423 75.6608 160.63 75.3737 159.992 75C159.363 74.6172 158.889 74.1478 158.57 73.5918C158.251 73.0267 158.092 72.3796 158.092 71.6504V71.6367C158.092 70.6979 158.342 69.8867 158.844 69.2031C159.345 68.5195 160.056 67.9909 160.977 67.6172C161.906 67.2344 162.991 67.043 164.23 67.043C165.525 67.043 166.623 67.2526 167.525 67.6719C168.437 68.082 169.134 68.638 169.617 69.3398C170.109 70.0417 170.369 70.821 170.396 71.6777V71.8145H166.719L166.705 71.7051C166.641 71.1764 166.395 70.7389 165.967 70.3926C165.548 70.0371 164.969 69.8594 164.23 69.8594C163.775 69.8594 163.378 69.9232 163.041 70.0508C162.704 70.1784 162.444 70.3607 162.262 70.5977C162.079 70.8255 161.988 71.099 161.988 71.418V71.4316C161.988 71.6777 162.048 71.901 162.166 72.1016C162.294 72.293 162.503 72.4616 162.795 72.6074C163.087 72.7533 163.479 72.8809 163.971 72.9902L166.459 73.5234C167.999 73.8424 169.102 74.321 169.768 74.959C170.442 75.597 170.779 76.4538 170.779 77.5293V77.543C170.779 78.5 170.506 79.334 169.959 80.0449C169.412 80.7559 168.656 81.3118 167.689 81.7129C166.732 82.1048 165.625 82.3008 164.367 82.3008Z" fill="#15151E"/>
<path d="M401.037 81.7129C399.497 81.7129 398.089 81.5124 396.812 81.1113C395.546 80.7012 394.452 80.0996 393.531 79.3066C392.611 78.5046 391.9 77.5065 391.398 76.3125C390.906 75.1094 390.66 73.7148 390.66 72.1289V72.1016C390.66 70.5156 390.906 69.1257 391.398 67.9316C391.9 66.7285 392.611 65.7305 393.531 64.9375C394.461 64.1354 395.559 63.5339 396.826 63.1328C398.093 62.7318 399.497 62.5312 401.037 62.5312C401.538 62.5312 402.031 62.5586 402.514 62.6133C403.006 62.6589 403.421 62.7272 403.758 62.8184V66.0996C403.43 66.0358 403.024 65.9857 402.541 65.9492C402.058 65.9128 401.607 65.8945 401.188 65.8945C400.185 65.8945 399.283 66.0221 398.48 66.2773C397.678 66.5326 396.995 66.9199 396.43 67.4395C395.865 67.9499 395.432 68.597 395.131 69.3809C394.83 70.1556 394.68 71.0671 394.68 72.1152V72.1426C394.68 73.1908 394.83 74.1022 395.131 74.877C395.432 75.6517 395.865 76.2988 396.43 76.8184C396.995 77.3288 397.678 77.7116 398.48 77.9668C399.283 78.2129 400.185 78.3359 401.188 78.3359C401.607 78.3359 402.058 78.3223 402.541 78.2949C403.024 78.2585 403.43 78.2083 403.758 78.1445V81.4258C403.421 81.5169 403.006 81.5898 402.514 81.6445C402.031 81.6901 401.538 81.7129 401.037 81.7129ZM388.336 74.6172V73.25H402.5V74.6172H388.336ZM388.336 70.9258V69.5586H402.5V70.9258H388.336ZM414.668 82.3418C413.474 82.3418 412.376 82.1322 411.373 81.7129C410.38 81.2936 409.509 80.6693 408.762 79.8398C408.023 79.0013 407.449 77.9577 407.039 76.709C406.638 75.4512 406.438 73.9837 406.438 72.3066V72.2793C406.438 70.1283 406.77 68.278 407.436 66.7285C408.101 65.179 409.049 63.9941 410.279 63.1738C411.519 62.3444 412.995 61.9297 414.709 61.9297C415.985 61.9297 417.133 62.1576 418.154 62.6133C419.175 63.0599 420.018 63.6797 420.684 64.4727C421.358 65.2656 421.791 66.168 421.982 67.1797L422.01 67.3164H417.936L417.895 67.1934C417.73 66.7923 417.498 66.446 417.197 66.1543C416.906 65.8535 416.55 65.6211 416.131 65.457C415.712 65.2839 415.233 65.1973 414.695 65.1973C413.738 65.1973 412.95 65.4753 412.33 66.0312C411.719 66.5872 411.259 67.3346 410.949 68.2734C410.639 69.2122 410.457 70.265 410.402 71.4316C410.393 71.5684 410.384 71.7051 410.375 71.8418C410.375 71.9785 410.375 72.1152 410.375 72.252L411.004 75.5332C411.004 76.1895 411.163 76.7865 411.482 77.3242C411.801 77.8529 412.234 78.2767 412.781 78.5957C413.328 78.9056 413.939 79.0605 414.613 79.0605C415.288 79.0605 415.898 78.9056 416.445 78.5957C416.992 78.2858 417.43 77.8711 417.758 77.3516C418.086 76.8229 418.25 76.235 418.25 75.5879V75.5605C418.25 74.877 418.09 74.2708 417.771 73.7422C417.462 73.2135 417.033 72.8034 416.486 72.5117C415.949 72.2109 415.338 72.0605 414.654 72.0605C413.971 72.0605 413.351 72.2109 412.795 72.5117C412.239 72.8034 411.801 73.209 411.482 73.7285C411.163 74.248 411.004 74.8405 411.004 75.5059V75.5332H410.17V72.1836H410.457C410.721 71.5729 411.104 71.0306 411.605 70.5566C412.116 70.0827 412.727 69.709 413.438 69.4355C414.158 69.153 414.96 69.0117 415.844 69.0117C417.12 69.0117 418.236 69.2897 419.193 69.8457C420.16 70.3926 420.911 71.1491 421.449 72.1152C421.996 73.0814 422.27 74.1797 422.27 75.4102V75.4375C422.27 76.7865 421.941 77.9805 421.285 79.0195C420.629 80.0495 419.727 80.8607 418.578 81.4531C417.439 82.0456 416.135 82.3418 414.668 82.3418ZM424.977 82V79.1699L431.949 72.6484C432.806 71.8555 433.453 71.1947 433.891 70.666C434.328 70.1374 434.624 69.6634 434.779 69.2441C434.943 68.8249 435.025 68.3874 435.025 67.9316V67.9043C435.025 67.3665 434.898 66.8926 434.643 66.4824C434.387 66.0632 434.032 65.735 433.576 65.498C433.13 65.2611 432.615 65.1426 432.031 65.1426C431.357 65.1426 430.764 65.2793 430.254 65.5527C429.743 65.8171 429.342 66.1862 429.051 66.6602C428.759 67.125 428.604 67.6536 428.586 68.2461L428.572 68.3691H424.744V68.2598C424.744 67.0202 425.059 65.9264 425.688 64.9785C426.316 64.0215 427.178 63.2741 428.271 62.7363C429.374 62.1986 430.618 61.9297 432.004 61.9297C433.398 61.9297 434.624 62.1758 435.682 62.668C436.739 63.151 437.564 63.8255 438.156 64.6914C438.749 65.5573 439.045 66.5508 439.045 67.6719V67.6992C439.045 68.4922 438.899 69.2305 438.607 69.9141C438.325 70.5885 437.855 71.3086 437.199 72.0742C436.543 72.8307 435.645 73.7331 434.506 74.7812L428.791 79.9902L430.377 77.2148V79.9902L428.805 78.7188H439.318V82H424.977ZM446.811 82V66.0586H446.729L441.697 69.4766V65.8125L446.797 62.2715H450.898V82H446.811ZM464.734 82V78.377H454.918V74.9316C455.447 74.0931 455.975 73.25 456.504 72.4023C457.033 71.5547 457.561 70.7116 458.09 69.873C458.618 69.0254 459.143 68.1823 459.662 67.3438C460.191 66.4961 460.719 65.6484 461.248 64.8008C461.777 63.9531 462.305 63.11 462.834 62.2715H468.658V75.082H471.256V78.377H468.658V82H464.734ZM458.514 75.1914H464.816V65.252H464.721C464.301 65.9082 463.887 66.5645 463.477 67.2207C463.066 67.877 462.652 68.5332 462.232 69.1895C461.822 69.8366 461.408 70.4928 460.988 71.1582C460.578 71.8145 460.163 72.4707 459.744 73.127C459.334 73.7741 458.924 74.4258 458.514 75.082V75.1914ZM475.439 82.2324C474.82 82.2324 474.296 82.0182 473.867 81.5898C473.439 81.1615 473.225 80.6374 473.225 80.0176C473.225 79.3978 473.439 78.8737 473.867 78.4453C474.296 78.0169 474.82 77.8027 475.439 77.8027C476.059 77.8027 476.583 78.0169 477.012 78.4453C477.44 78.8737 477.654 79.3978 477.654 80.0176C477.654 80.6374 477.44 81.1615 477.012 81.5898C476.583 82.0182 476.059 82.2324 475.439 82.2324ZM487.908 82.3418C486.34 82.3418 484.96 82.1003 483.766 81.6172C482.572 81.1341 481.637 80.4642 480.963 79.6074C480.288 78.7415 479.951 77.7435 479.951 76.6133V76.5859C479.951 75.7292 480.147 74.959 480.539 74.2754C480.931 73.5918 481.469 73.0221 482.152 72.5664C482.836 72.1107 483.62 71.7962 484.504 71.623V71.541C483.365 71.2585 482.439 70.7344 481.729 69.9688C481.027 69.194 480.676 68.278 480.676 67.2207V67.1934C480.676 66.1725 480.981 65.2702 481.592 64.4863C482.202 63.6934 483.05 63.069 484.135 62.6133C485.229 62.1576 486.486 61.9297 487.908 61.9297C489.33 61.9297 490.583 62.1576 491.668 62.6133C492.753 63.069 493.6 63.6934 494.211 64.4863C494.831 65.2702 495.141 66.1725 495.141 67.1934V67.2207C495.141 68.278 494.785 69.194 494.074 69.9688C493.372 70.7344 492.452 71.2585 491.312 71.541V71.623C492.197 71.7962 492.98 72.1107 493.664 72.5664C494.348 73.0221 494.881 73.5918 495.264 74.2754C495.656 74.959 495.852 75.7292 495.852 76.5859V76.6133C495.852 77.7435 495.514 78.7415 494.84 79.6074C494.174 80.4642 493.245 81.1341 492.051 81.6172C490.857 82.1003 489.476 82.3418 487.908 82.3418ZM487.908 79.334C488.628 79.334 489.262 79.2064 489.809 78.9512C490.355 78.696 490.784 78.3405 491.094 77.8848C491.413 77.429 491.572 76.9141 491.572 76.3398V76.3125C491.572 75.7292 491.417 75.2096 491.107 74.7539C490.798 74.2982 490.365 73.9427 489.809 73.6875C489.262 73.4232 488.628 73.291 487.908 73.291C487.179 73.291 486.536 73.4232 485.98 73.6875C485.434 73.9427 485.005 74.2982 484.695 74.7539C484.385 75.2096 484.23 75.7292 484.23 76.3125V76.3398C484.23 76.9141 484.385 77.429 484.695 77.8848C485.014 78.3405 485.447 78.696 485.994 78.9512C486.55 79.2064 487.188 79.334 487.908 79.334ZM487.908 70.2969C488.528 70.2969 489.075 70.1829 489.549 69.9551C490.023 69.7272 490.392 69.4128 490.656 69.0117C490.921 68.6016 491.053 68.1322 491.053 67.6035V67.5762C491.053 67.0475 490.916 66.5827 490.643 66.1816C490.378 65.7806 490.009 65.4707 489.535 65.252C489.061 65.0241 488.519 64.9102 487.908 64.9102C487.288 64.9102 486.742 65.0241 486.268 65.252C485.794 65.4707 485.42 65.7806 485.146 66.1816C484.882 66.5827 484.75 67.0475 484.75 67.5762V67.6035C484.75 68.1322 484.882 68.6016 485.146 69.0117C485.42 69.4128 485.794 69.7272 486.268 69.9551C486.742 70.1829 487.288 70.2969 487.908 70.2969Z" fill="#15151E"/>
<path d="M42 107L510 107.992" stroke="#E8E8ED" stroke-width="1.5" stroke-linecap="round"/>
<path d="M93 218C116.196 218 135 199.196 135 176C135 152.804 116.196 134 93 134C69.804 134 51 152.804 51 176C51 199.196 69.804 218 93 218Z" fill="#EFF1F4" stroke="#3B6FF5" stroke-width="3" stroke-linecap="round"/>
<path d="M67.6318 246V233.757H63.2534V231.204H75.1069V233.757H70.7285V246H67.6318ZM80.0596 246.236C78.9248 246.236 77.9438 246.003 77.1167 245.539C76.2896 245.074 75.6538 244.407 75.2095 243.539C74.7651 242.671 74.543 241.632 74.543 240.422V240.401C74.543 239.198 74.7686 238.163 75.2197 237.294C75.6709 236.426 76.3066 235.76 77.127 235.295C77.9541 234.823 78.9316 234.587 80.0596 234.587C81.1943 234.587 82.1719 234.82 82.9922 235.285C83.8193 235.75 84.4585 236.416 84.9097 237.284C85.3608 238.152 85.5864 239.191 85.5864 240.401V240.422C85.5864 241.632 85.3608 242.671 84.9097 243.539C84.4653 244.407 83.8296 245.074 83.0024 245.539C82.1821 246.003 81.2012 246.236 80.0596 246.236ZM80.0698 243.888C80.5825 243.888 81.02 243.751 81.3823 243.478C81.7515 243.204 82.0317 242.811 82.2231 242.298C82.4214 241.779 82.5205 241.153 82.5205 240.422V240.401C82.5205 239.67 82.4214 239.048 82.2231 238.535C82.0249 238.022 81.7412 237.629 81.3721 237.356C81.0098 237.076 80.5723 236.936 80.0596 236.936C79.5537 236.936 79.1162 237.076 78.7471 237.356C78.3779 237.629 78.0942 238.022 77.896 238.535C77.6978 239.048 77.5986 239.67 77.5986 240.401V240.422C77.5986 241.153 77.6943 241.779 77.8857 242.298C78.084 242.811 78.3677 243.204 78.7368 243.478C79.106 243.751 79.5503 243.888 80.0698 243.888ZM91.7183 246.195C90.7886 246.195 89.9819 245.962 89.2983 245.498C88.6147 245.033 88.0884 244.37 87.7192 243.508C87.3569 242.647 87.1758 241.618 87.1758 240.422V240.401C87.1758 239.198 87.3569 238.166 87.7192 237.305C88.0884 236.443 88.6113 235.784 89.2881 235.326C89.9648 234.861 90.7749 234.628 91.7183 234.628C92.231 234.628 92.7061 234.71 93.1436 234.875C93.5879 235.039 93.9741 235.274 94.3022 235.582C94.6372 235.883 94.9004 236.245 95.0918 236.669H95.2354V230.701H98.2295V246H95.2354V244.206H95.0918C94.9004 244.623 94.6406 244.978 94.3125 245.272C93.9912 245.566 93.6118 245.795 93.1743 245.959C92.7368 246.116 92.2515 246.195 91.7183 246.195ZM92.7231 243.713C93.2427 243.713 93.6904 243.583 94.0664 243.324C94.4424 243.057 94.7329 242.678 94.938 242.186C95.1499 241.687 95.2559 241.099 95.2559 240.422V240.412C95.2559 239.728 95.1499 239.14 94.938 238.648C94.7329 238.156 94.439 237.776 94.0562 237.51C93.6802 237.243 93.2358 237.11 92.7231 237.11C92.2173 237.11 91.7729 237.243 91.3901 237.51C91.0142 237.77 90.7236 238.146 90.5186 238.638C90.3203 239.13 90.2212 239.718 90.2212 240.401V240.422C90.2212 241.099 90.3203 241.687 90.5186 242.186C90.7236 242.678 91.0142 243.057 91.3901 243.324C91.7661 243.583 92.2104 243.713 92.7231 243.713ZM104.054 246.174C103.329 246.174 102.69 246.034 102.136 245.754C101.583 245.474 101.148 245.081 100.834 244.575C100.52 244.069 100.362 243.481 100.362 242.811V242.791C100.362 242.121 100.53 241.546 100.865 241.068C101.207 240.583 101.699 240.203 102.341 239.93C102.991 239.649 103.78 239.482 104.71 239.427L108.935 239.171V241.006L105.151 241.252C104.536 241.287 104.071 241.423 103.756 241.663C103.449 241.902 103.295 242.223 103.295 242.626V242.647C103.295 243.064 103.456 243.392 103.777 243.631C104.105 243.871 104.525 243.99 105.038 243.99C105.496 243.99 105.903 243.901 106.258 243.724C106.621 243.539 106.904 243.293 107.109 242.985C107.321 242.671 107.427 242.319 107.427 241.929V238.433C107.427 237.94 107.267 237.561 106.945 237.294C106.631 237.021 106.169 236.884 105.561 236.884C105.014 236.884 104.573 236.983 104.238 237.182C103.903 237.38 103.685 237.653 103.582 238.002L103.572 238.063H100.813L100.824 237.951C100.892 237.281 101.131 236.696 101.542 236.197C101.952 235.691 102.509 235.298 103.213 235.018C103.924 234.731 104.758 234.587 105.715 234.587C106.692 234.587 107.53 234.741 108.227 235.049C108.924 235.35 109.458 235.784 109.827 236.351C110.203 236.912 110.391 237.582 110.391 238.361V246H107.427V244.452H107.284C107.092 244.807 106.836 245.115 106.515 245.375C106.193 245.634 105.824 245.833 105.407 245.969C104.99 246.106 104.539 246.174 104.054 246.174ZM114.215 249.845C113.997 249.845 113.778 249.838 113.559 249.825C113.347 249.811 113.152 249.794 112.975 249.773V247.528C113.077 247.548 113.204 247.562 113.354 247.569C113.504 247.583 113.665 247.589 113.836 247.589C114.335 247.589 114.731 247.494 115.025 247.302C115.319 247.118 115.524 246.82 115.641 246.41L115.753 246L111.816 234.823H115.107L117.722 244.359L117.148 243.396H117.917L117.353 244.359L119.968 234.823H123.126L119.312 246.072C118.997 247.015 118.611 247.76 118.153 248.307C117.702 248.861 117.155 249.254 116.512 249.486C115.87 249.726 115.104 249.845 114.215 249.845Z" fill="#15151E"/>
<path d="M75.501 275.815C74.4932 275.815 73.5762 275.687 72.75 275.429C71.9238 275.165 71.209 274.778 70.6055 274.269C70.0078 273.753 69.5479 273.111 69.2256 272.344C68.9033 271.57 68.7422 270.674 68.7422 269.654V269.646C68.7422 268.632 68.9033 267.741 69.2256 266.974C69.5479 266.206 70.0078 265.564 70.6055 265.049C71.2031 264.533 71.9121 264.146 72.7324 263.889C73.5527 263.631 74.4551 263.502 75.4395 263.502C75.7559 263.502 76.0869 263.52 76.4326 263.555C76.7783 263.59 77.0654 263.64 77.2939 263.704V265.822C77.0654 265.775 76.793 265.737 76.4766 265.708C76.1602 265.679 75.8438 265.664 75.5273 265.664C74.8945 265.664 74.3174 265.749 73.7959 265.919C73.2803 266.083 72.8379 266.332 72.4688 266.666C72.0996 266.994 71.8154 267.407 71.6162 267.905C71.4229 268.403 71.3262 268.986 71.3262 269.654V269.663C71.3262 270.337 71.4229 270.923 71.6162 271.421C71.8154 271.919 72.0996 272.335 72.4688 272.669C72.8438 272.997 73.2949 273.243 73.8223 273.407C74.3496 273.565 74.9385 273.645 75.5889 273.645C75.876 273.645 76.1836 273.636 76.5117 273.618C76.8398 273.595 77.1123 273.562 77.3291 273.521V275.657C77.1006 275.71 76.8223 275.751 76.4941 275.78C76.166 275.804 75.835 275.815 75.501 275.815ZM67.248 271.403V270.393H76.3535V271.403H67.248ZM67.248 268.969V267.967H76.3535V268.969H67.248ZM80.001 276V274.216L84.1055 270.182C84.6973 269.607 85.1543 269.136 85.4766 268.767C85.8047 268.392 86.0332 268.066 86.1621 267.791C86.2969 267.51 86.3643 267.223 86.3643 266.93V266.895C86.3643 266.537 86.2852 266.221 86.127 265.945C85.9688 265.67 85.7432 265.456 85.4502 265.304C85.1572 265.146 84.8115 265.066 84.4131 265.066C83.9971 265.066 83.6309 265.154 83.3145 265.33C82.998 265.5 82.752 265.737 82.5762 266.042C82.4004 266.341 82.3125 266.689 82.3125 267.088V267.141H79.8516V267.097C79.8516 266.282 80.0479 265.57 80.4404 264.961C80.8389 264.346 81.3867 263.865 82.084 263.52C82.7871 263.174 83.5986 263.001 84.5186 263.001C85.3975 263.001 86.168 263.156 86.8301 263.467C87.498 263.777 88.0195 264.208 88.3945 264.759C88.7754 265.31 88.9658 265.951 88.9658 266.684V266.71C88.9658 267.19 88.8721 267.659 88.6846 268.116C88.4971 268.573 88.1807 269.068 87.7354 269.602C87.29 270.135 86.6836 270.759 85.916 271.474L82.8223 274.348L83.5605 273.161V274.348L82.8311 273.864H89.1504V276H80.001ZM97.2891 276V273.671H91.0752V271.579C91.3975 271.011 91.7227 270.445 92.0508 269.883C92.3848 269.314 92.7188 268.752 93.0527 268.195C93.3867 267.639 93.7236 267.088 94.0635 266.543C94.4033 265.992 94.7432 265.447 95.083 264.908C95.4229 264.369 95.7627 263.839 96.1025 263.317H99.8203V271.544H101.481V273.671H99.8203V276H97.2891ZM93.457 271.623H97.3506V265.33H97.21C96.9639 265.711 96.7119 266.104 96.4541 266.508C96.2021 266.906 95.9473 267.313 95.6895 267.729C95.4316 268.14 95.1768 268.556 94.9248 268.978C94.6729 269.394 94.4238 269.812 94.1777 270.234C93.9316 270.65 93.6914 271.066 93.457 271.482V271.623ZM105.27 276.22C104.824 276.22 104.455 276.073 104.162 275.78C103.875 275.487 103.731 275.127 103.731 274.699C103.731 274.26 103.875 273.896 104.162 273.609C104.455 273.322 104.824 273.179 105.27 273.179C105.721 273.179 106.09 273.322 106.377 273.609C106.664 273.896 106.808 274.26 106.808 274.699C106.808 275.127 106.664 275.487 106.377 275.78C106.09 276.073 105.721 276.22 105.27 276.22ZM113.698 276.316C112.649 276.316 111.747 276.047 110.991 275.508C110.241 274.969 109.664 274.201 109.26 273.205C108.855 272.209 108.653 271.028 108.653 269.663V269.646C108.653 268.28 108.855 267.103 109.26 266.112C109.664 265.116 110.241 264.349 110.991 263.81C111.747 263.271 112.649 263.001 113.698 263.001C114.741 263.001 115.638 263.271 116.388 263.81C117.144 264.349 117.724 265.116 118.128 266.112C118.532 267.103 118.734 268.28 118.734 269.646V269.663C118.734 271.028 118.532 272.209 118.128 273.205C117.724 274.201 117.144 274.969 116.388 275.508C115.638 276.047 114.741 276.316 113.698 276.316ZM113.698 274.225C114.196 274.225 114.621 274.043 114.973 273.68C115.324 273.316 115.591 272.795 115.772 272.115C115.96 271.436 116.054 270.618 116.054 269.663V269.646C116.054 268.69 115.96 267.876 115.772 267.202C115.591 266.522 115.324 266.004 114.973 265.646C114.621 265.283 114.196 265.102 113.698 265.102C113.194 265.102 112.767 265.283 112.415 265.646C112.069 266.004 111.803 266.522 111.615 267.202C111.428 267.876 111.334 268.69 111.334 269.646V269.663C111.334 270.618 111.428 271.436 111.615 272.115C111.803 272.795 112.069 273.316 112.415 273.68C112.767 274.043 113.194 274.225 113.698 274.225Z" fill="#6B6B76"/>
<path d="M83.9336 188V184.563L92.4004 176.645C93.4408 175.682 94.2266 174.879 94.7578 174.237C95.2891 173.595 95.6488 173.02 95.8369 172.511C96.0361 172.002 96.1357 171.47 96.1357 170.917V170.884C96.1357 170.231 95.9808 169.655 95.6709 169.157C95.361 168.648 94.9294 168.25 94.376 167.962C93.8337 167.674 93.2083 167.53 92.5 167.53C91.681 167.53 90.9616 167.696 90.3418 168.028C89.722 168.349 89.235 168.798 88.8809 169.373C88.5267 169.938 88.3385 170.579 88.3164 171.299L88.2998 171.448H83.6514V171.315C83.6514 169.81 84.0332 168.482 84.7969 167.331C85.5605 166.169 86.6064 165.261 87.9346 164.608C89.2738 163.955 90.7845 163.629 92.4668 163.629C94.1602 163.629 95.6488 163.928 96.9326 164.525C98.2165 165.112 99.2181 165.931 99.9375 166.982C100.657 168.034 101.017 169.24 101.017 170.602V170.635C101.017 171.598 100.84 172.494 100.485 173.324C100.142 174.143 99.5723 175.018 98.7754 175.947C97.9785 176.866 96.8883 177.962 95.5049 179.234L88.5654 185.56L90.4912 182.189V185.56L88.582 184.016H101.349V188H83.9336Z" fill="#3B6FF5"/>
<path d="M206 218C229.196 218 248 199.196 248 176C248 152.804 229.196 134 206 134C182.804 134 164 152.804 164 176C164 199.196 182.804 218 206 218Z" fill="#EFF1F4" stroke="#F5C518" stroke-width="3" stroke-linecap="round"/>
<path d="M166.061 246V231.204H169.619L173.751 241.96H173.885L178.017 231.204H181.575V246H178.817V235.951H177.33L180.334 231.614L174.787 246H172.849L167.302 231.614L170.306 235.951H168.819V246H166.061ZM189.481 246.236C188.346 246.236 187.365 246.003 186.538 245.539C185.711 245.074 185.075 244.407 184.631 243.539C184.187 242.671 183.964 241.632 183.964 240.422V240.401C183.964 239.198 184.19 238.163 184.641 237.294C185.092 236.426 185.728 235.76 186.548 235.295C187.375 234.823 188.353 234.587 189.481 234.587C190.616 234.587 191.593 234.82 192.414 235.285C193.241 235.75 193.88 236.416 194.331 237.284C194.782 238.152 195.008 239.191 195.008 240.401V240.422C195.008 241.632 194.782 242.671 194.331 243.539C193.887 244.407 193.251 245.074 192.424 245.539C191.604 246.003 190.623 246.236 189.481 246.236ZM189.491 243.888C190.004 243.888 190.441 243.751 190.804 243.478C191.173 243.204 191.453 242.811 191.645 242.298C191.843 241.779 191.942 241.153 191.942 240.422V240.401C191.942 239.67 191.843 239.048 191.645 238.535C191.446 238.022 191.163 237.629 190.793 237.356C190.431 237.076 189.994 236.936 189.481 236.936C188.975 236.936 188.538 237.076 188.168 237.356C187.799 237.629 187.516 238.022 187.317 238.535C187.119 239.048 187.02 239.67 187.02 240.401V240.422C187.02 241.153 187.116 241.779 187.307 242.298C187.505 242.811 187.789 243.204 188.158 243.478C188.527 243.751 188.972 243.888 189.491 243.888ZM197.1 246V234.823H200.094V236.597H200.227C200.494 235.975 200.904 235.486 201.458 235.131C202.011 234.769 202.695 234.587 203.508 234.587C204.746 234.587 205.692 234.957 206.349 235.695C207.012 236.426 207.343 237.455 207.343 238.781V246H204.349V239.438C204.349 238.665 204.182 238.077 203.847 237.674C203.512 237.271 202.996 237.069 202.298 237.069C201.847 237.069 201.454 237.175 201.119 237.387C200.791 237.592 200.538 237.879 200.36 238.248C200.183 238.617 200.094 239.051 200.094 239.55V246H197.1ZM214.418 246.113C213.106 246.113 212.149 245.867 211.547 245.375C210.953 244.882 210.655 244.072 210.655 242.944V237.079H209.004V234.823H210.655V232.137H213.68V234.823H215.895V237.079H213.68V242.391C213.68 242.903 213.793 243.272 214.019 243.498C214.251 243.717 214.613 243.826 215.105 243.826C215.27 243.826 215.41 243.823 215.526 243.816C215.649 243.802 215.772 243.789 215.895 243.775V245.99C215.717 246.024 215.499 246.051 215.239 246.072C214.986 246.099 214.712 246.113 214.418 246.113ZM218.141 246V230.701H221.135V236.628H221.278C221.545 235.985 221.955 235.486 222.509 235.131C223.069 234.769 223.756 234.587 224.57 234.587C225.39 234.587 226.087 234.758 226.662 235.1C227.236 235.435 227.673 235.92 227.974 236.556C228.275 237.192 228.425 237.958 228.425 238.853V246H225.431V239.509C225.431 238.723 225.257 238.122 224.908 237.705C224.56 237.281 224.037 237.069 223.339 237.069C222.888 237.069 222.499 237.175 222.17 237.387C221.842 237.592 221.586 237.882 221.401 238.258C221.224 238.627 221.135 239.062 221.135 239.561V246H218.141ZM231.04 246V230.701H234.034V246H231.04ZM238.218 249.845C237.999 249.845 237.78 249.838 237.562 249.825C237.35 249.811 237.155 249.794 236.977 249.773V247.528C237.08 247.548 237.206 247.562 237.356 247.569C237.507 247.583 237.667 247.589 237.838 247.589C238.337 247.589 238.734 247.494 239.028 247.302C239.322 247.118 239.527 246.82 239.643 246.41L239.756 246L235.818 234.823H239.11L241.725 244.359L241.15 243.396H241.919L241.355 244.359L243.97 234.823H247.128L243.314 246.072C243 247.015 242.613 247.76 242.155 248.307C241.704 248.861 241.157 249.254 240.515 249.486C239.872 249.726 239.106 249.845 238.218 249.845Z" fill="#15151E"/>
<path d="M177.567 275.815C176.56 275.815 175.643 275.687 174.816 275.429C173.99 275.165 173.275 274.778 172.672 274.269C172.074 273.753 171.614 273.111 171.292 272.344C170.97 271.57 170.809 270.674 170.809 269.654V269.646C170.809 268.632 170.97 267.741 171.292 266.974C171.614 266.206 172.074 265.564 172.672 265.049C173.27 264.533 173.979 264.146 174.799 263.889C175.619 263.631 176.521 263.502 177.506 263.502C177.822 263.502 178.153 263.52 178.499 263.555C178.845 263.59 179.132 263.64 179.36 263.704V265.822C179.132 265.775 178.859 265.737 178.543 265.708C178.227 265.679 177.91 265.664 177.594 265.664C176.961 265.664 176.384 265.749 175.862 265.919C175.347 266.083 174.904 266.332 174.535 266.666C174.166 266.994 173.882 267.407 173.683 267.905C173.489 268.403 173.393 268.986 173.393 269.654V269.663C173.393 270.337 173.489 270.923 173.683 271.421C173.882 271.919 174.166 272.335 174.535 272.669C174.91 272.997 175.361 273.243 175.889 273.407C176.416 273.565 177.005 273.645 177.655 273.645C177.942 273.645 178.25 273.636 178.578 273.618C178.906 273.595 179.179 273.562 179.396 273.521V275.657C179.167 275.71 178.889 275.751 178.561 275.78C178.232 275.804 177.901 275.815 177.567 275.815ZM169.314 271.403V270.393H178.42V271.403H169.314ZM169.314 268.969V267.967H178.42V268.969H169.314ZM187.121 276.325C186.383 276.325 185.694 276.193 185.056 275.93C184.423 275.66 183.866 275.259 183.386 274.726C182.911 274.187 182.542 273.507 182.278 272.687C182.015 271.866 181.883 270.896 181.883 269.777V269.76C181.883 268.348 182.094 267.138 182.516 266.13C182.943 265.116 183.55 264.343 184.335 263.81C185.12 263.271 186.052 263.001 187.13 263.001C187.95 263.001 188.688 263.15 189.345 263.449C190.001 263.742 190.54 264.146 190.962 264.662C191.39 265.178 191.668 265.77 191.797 266.438L191.814 266.517H189.222L189.187 266.438C189.087 266.174 188.94 265.942 188.747 265.743C188.56 265.544 188.331 265.389 188.062 265.277C187.792 265.166 187.484 265.11 187.139 265.11C186.529 265.11 186.028 265.295 185.636 265.664C185.243 266.027 184.947 266.52 184.748 267.141C184.555 267.756 184.44 268.447 184.405 269.215C184.399 269.303 184.396 269.391 184.396 269.479C184.396 269.561 184.396 269.648 184.396 269.742L184.792 271.86C184.792 272.306 184.895 272.707 185.1 273.064C185.305 273.422 185.583 273.703 185.935 273.908C186.286 274.113 186.676 274.216 187.104 274.216C187.531 274.216 187.918 274.116 188.264 273.917C188.615 273.712 188.894 273.437 189.099 273.091C189.31 272.739 189.415 272.347 189.415 271.913V271.896C189.415 271.45 189.315 271.058 189.116 270.718C188.917 270.372 188.645 270.103 188.299 269.909C187.959 269.71 187.566 269.61 187.121 269.61C186.688 269.61 186.295 269.707 185.943 269.9C185.592 270.088 185.311 270.352 185.1 270.691C184.895 271.025 184.792 271.412 184.792 271.852V271.86H184.265V269.514H184.572C184.725 269.18 184.944 268.872 185.231 268.591C185.524 268.31 185.888 268.084 186.321 267.914C186.755 267.738 187.265 267.65 187.851 267.65C188.671 267.65 189.392 267.829 190.013 268.187C190.634 268.544 191.117 269.036 191.463 269.663C191.809 270.29 191.981 271.005 191.981 271.808V271.825C191.981 272.687 191.773 273.457 191.357 274.137C190.947 274.816 190.376 275.353 189.644 275.745C188.917 276.132 188.076 276.325 187.121 276.325ZM194.354 276V274.216L198.459 270.182C199.051 269.607 199.508 269.136 199.83 268.767C200.158 268.392 200.387 268.066 200.516 267.791C200.65 267.51 200.718 267.223 200.718 266.93V266.895C200.718 266.537 200.639 266.221 200.48 265.945C200.322 265.67 200.097 265.456 199.804 265.304C199.511 265.146 199.165 265.066 198.767 265.066C198.351 265.066 197.984 265.154 197.668 265.33C197.352 265.5 197.105 265.737 196.93 266.042C196.754 266.341 196.666 266.689 196.666 267.088V267.141H194.205V267.097C194.205 266.282 194.401 265.57 194.794 264.961C195.192 264.346 195.74 263.865 196.438 263.52C197.141 263.174 197.952 263.001 198.872 263.001C199.751 263.001 200.521 263.156 201.184 263.467C201.852 263.777 202.373 264.208 202.748 264.759C203.129 265.31 203.319 265.951 203.319 266.684V266.71C203.319 267.19 203.226 267.659 203.038 268.116C202.851 268.573 202.534 269.068 202.089 269.602C201.644 270.135 201.037 270.759 200.27 271.474L197.176 274.348L197.914 273.161V274.348L197.185 273.864H203.504V276H194.354ZM209.006 276V265.822H208.856L205.736 267.984V265.594L209.015 263.317H211.66V276H209.006ZM220.977 276V273.671H214.763V271.579C215.085 271.011 215.41 270.445 215.738 269.883C216.072 269.314 216.406 268.752 216.74 268.195C217.074 267.639 217.411 267.088 217.751 266.543C218.091 265.992 218.431 265.447 218.771 264.908C219.11 264.369 219.45 263.839 219.79 263.317H223.508V271.544H225.169V273.671H223.508V276H220.977ZM217.145 271.623H221.038V265.33H220.897C220.651 265.711 220.399 266.104 220.142 266.508C219.89 266.906 219.635 267.313 219.377 267.729C219.119 268.14 218.864 268.556 218.612 268.978C218.36 269.394 218.111 269.812 217.865 270.234C217.619 270.65 217.379 271.066 217.145 271.482V271.623ZM228.957 276.22C228.512 276.22 228.143 276.073 227.85 275.78C227.562 275.487 227.419 275.127 227.419 274.699C227.419 274.26 227.562 273.896 227.85 273.609C228.143 273.322 228.512 273.179 228.957 273.179C229.408 273.179 229.777 273.322 230.064 273.609C230.352 273.896 230.495 274.26 230.495 274.699C230.495 275.127 230.352 275.487 230.064 275.78C229.777 276.073 229.408 276.22 228.957 276.22ZM237.544 276.281C236.53 276.281 235.637 276.126 234.863 275.815C234.09 275.499 233.486 275.062 233.053 274.506C232.619 273.943 232.402 273.296 232.402 272.563V272.546C232.402 271.995 232.528 271.497 232.78 271.052C233.038 270.606 233.387 270.237 233.826 269.944C234.271 269.646 234.781 269.44 235.355 269.329V269.276C234.617 269.095 234.017 268.755 233.554 268.257C233.097 267.753 232.868 267.158 232.868 266.473V266.455C232.868 265.793 233.067 265.207 233.466 264.697C233.864 264.182 234.415 263.777 235.118 263.484C235.821 263.186 236.63 263.036 237.544 263.036C238.464 263.036 239.275 263.186 239.979 263.484C240.688 263.777 241.238 264.182 241.631 264.697C242.029 265.207 242.229 265.793 242.229 266.455V266.473C242.229 267.158 241.997 267.753 241.534 268.257C241.077 268.755 240.477 269.095 239.732 269.276V269.329C240.312 269.44 240.825 269.646 241.271 269.944C241.716 270.237 242.064 270.606 242.316 271.052C242.568 271.497 242.694 271.995 242.694 272.546V272.563C242.694 273.296 242.478 273.943 242.044 274.506C241.61 275.062 241.007 275.499 240.233 275.815C239.46 276.126 238.563 276.281 237.544 276.281ZM237.544 274.348C238.013 274.348 238.423 274.266 238.774 274.102C239.132 273.932 239.413 273.7 239.618 273.407C239.823 273.108 239.926 272.769 239.926 272.388V272.37C239.926 271.989 239.823 271.652 239.618 271.359C239.419 271.061 239.141 270.826 238.783 270.656C238.426 270.486 238.013 270.401 237.544 270.401C237.075 270.401 236.662 270.486 236.305 270.656C235.947 270.826 235.669 271.061 235.47 271.359C235.271 271.652 235.171 271.989 235.171 272.37V272.388C235.171 272.769 235.271 273.108 235.47 273.407C235.675 273.7 235.956 273.932 236.313 274.102C236.671 274.266 237.081 274.348 237.544 274.348ZM237.544 268.477C237.954 268.477 238.312 268.403 238.616 268.257C238.927 268.11 239.17 267.905 239.346 267.642C239.521 267.372 239.609 267.064 239.609 266.719V266.701C239.609 266.355 239.521 266.054 239.346 265.796C239.17 265.532 238.927 265.327 238.616 265.181C238.306 265.028 237.948 264.952 237.544 264.952C237.146 264.952 236.791 265.028 236.48 265.181C236.17 265.327 235.927 265.532 235.751 265.796C235.575 266.054 235.487 266.355 235.487 266.701V266.719C235.487 267.064 235.575 267.372 235.751 267.642C235.927 267.905 236.167 268.11 236.472 268.257C236.782 268.403 237.14 268.477 237.544 268.477Z" fill="#6B6B76"/>
<path d="M188.766 189V185.563L197.232 177.645C198.273 176.682 199.059 175.879 199.59 175.237C200.121 174.595 200.481 174.02 200.669 173.511C200.868 173.002 200.968 172.47 200.968 171.917V171.884C200.968 171.231 200.813 170.655 200.503 170.157C200.193 169.648 199.761 169.25 199.208 168.962C198.666 168.674 198.04 168.53 197.332 168.53C196.513 168.53 195.794 168.696 195.174 169.028C194.554 169.349 194.067 169.798 193.713 170.373C193.359 170.938 193.171 171.579 193.148 172.299L193.132 172.448H188.483V172.315C188.483 170.81 188.865 169.482 189.629 168.331C190.393 167.169 191.438 166.261 192.767 165.608C194.106 164.955 195.617 164.629 197.299 164.629C198.992 164.629 200.481 164.928 201.765 165.525C203.049 166.112 204.05 166.931 204.77 167.982C205.489 169.034 205.849 170.24 205.849 171.602V171.635C205.849 172.598 205.672 173.494 205.317 174.324C204.974 175.143 204.404 176.018 203.607 176.947C202.811 177.866 201.72 178.962 200.337 180.234L193.397 186.56L195.323 183.189V186.56L193.414 185.016H206.181V189H188.766ZM215.278 189V169.643H215.179L209.069 173.793V169.344L215.262 165.044H220.242V189H215.278Z" fill="#F5C518"/>
<path d="M320.5 218C343.696 218 362.5 199.196 362.5 176C362.5 152.804 343.696 134 320.5 134C297.304 134 278.5 152.804 278.5 176C278.5 199.196 297.304 218 320.5 218Z" fill="#EFF1F4" stroke="#F2784B" stroke-width="3" stroke-linecap="round"/>
<path d="M285.411 246.328C283.948 246.328 282.684 246.017 281.617 245.395C280.551 244.766 279.727 243.874 279.146 242.719C278.572 241.563 278.285 240.193 278.285 238.607V238.586C278.285 237 278.575 235.633 279.156 234.485C279.744 233.33 280.571 232.441 281.638 231.819C282.704 231.19 283.962 230.875 285.411 230.875C286.874 230.875 288.135 231.19 289.195 231.819C290.261 232.441 291.085 233.33 291.666 234.485C292.247 235.633 292.538 237 292.538 238.586V238.607C292.538 240.193 292.247 241.563 291.666 242.719C291.092 243.874 290.271 244.766 289.205 245.395C288.139 246.017 286.874 246.328 285.411 246.328ZM285.411 243.703C286.225 243.703 286.925 243.495 287.513 243.078C288.108 242.661 288.566 242.069 288.887 241.304C289.215 240.538 289.379 239.639 289.379 238.607V238.586C289.379 237.547 289.215 236.648 288.887 235.89C288.566 235.124 288.108 234.536 287.513 234.126C286.918 233.709 286.218 233.5 285.411 233.5C284.611 233.5 283.914 233.709 283.319 234.126C282.725 234.536 282.263 235.124 281.935 235.89C281.607 236.648 281.443 237.547 281.443 238.586V238.607C281.443 239.639 281.604 240.538 281.925 241.304C282.253 242.069 282.714 242.661 283.309 243.078C283.904 243.495 284.604 243.703 285.411 243.703ZM297.757 246L293.881 234.823H297.09L299.408 243.262H299.551L301.848 234.823H304.986L301.13 246H297.757ZM311.189 246.236C310.055 246.236 309.077 246 308.257 245.528C307.443 245.057 306.814 244.387 306.37 243.519C305.933 242.65 305.714 241.622 305.714 240.432V240.422C305.714 239.232 305.933 238.204 306.37 237.335C306.808 236.46 307.426 235.784 308.226 235.305C309.033 234.827 309.979 234.587 311.066 234.587C312.153 234.587 313.093 234.82 313.886 235.285C314.679 235.75 315.291 236.402 315.722 237.243C316.152 238.084 316.368 239.068 316.368 240.196V241.129H307.201V239.243H314.942L313.527 241.017V239.837C313.527 239.174 313.425 238.621 313.22 238.176C313.015 237.725 312.731 237.387 312.369 237.161C312.013 236.936 311.596 236.823 311.118 236.823C310.646 236.823 310.226 236.939 309.856 237.171C309.487 237.404 309.197 237.746 308.985 238.197C308.78 238.648 308.677 239.195 308.677 239.837V241.027C308.677 241.649 308.78 242.182 308.985 242.626C309.19 243.071 309.484 243.413 309.867 243.652C310.256 243.884 310.718 244 311.251 244C311.682 244 312.047 243.936 312.348 243.806C312.656 243.676 312.902 243.519 313.086 243.334C313.278 243.149 313.408 242.975 313.476 242.811L313.507 242.75H316.275L316.255 242.852C316.166 243.228 316.002 243.614 315.763 244.011C315.53 244.4 315.209 244.766 314.799 245.108C314.396 245.443 313.893 245.716 313.292 245.928C312.697 246.133 311.996 246.236 311.189 246.236ZM318.48 246V234.823H321.474V236.638H321.607C321.778 236.002 322.1 235.51 322.571 235.162C323.043 234.806 323.624 234.628 324.314 234.628C324.506 234.628 324.69 234.642 324.868 234.669C325.053 234.69 325.21 234.721 325.34 234.762V237.376C325.155 237.329 324.954 237.291 324.735 237.264C324.523 237.229 324.304 237.212 324.079 237.212C323.539 237.212 323.074 237.315 322.684 237.52C322.294 237.718 321.994 238.005 321.782 238.381C321.577 238.757 321.474 239.212 321.474 239.745V246H318.48ZM330.805 246.195C329.875 246.195 329.069 245.962 328.385 245.498C327.702 245.033 327.175 244.37 326.806 243.508C326.444 242.647 326.263 241.618 326.263 240.422V240.401C326.263 239.198 326.444 238.166 326.806 237.305C327.175 236.443 327.698 235.784 328.375 235.326C329.052 234.861 329.862 234.628 330.805 234.628C331.318 234.628 331.793 234.71 332.23 234.875C332.675 235.039 333.061 235.274 333.389 235.582C333.724 235.883 333.987 236.245 334.179 236.669H334.322V230.701H337.316V246H334.322V244.206H334.179C333.987 244.623 333.728 244.978 333.399 245.272C333.078 245.566 332.699 245.795 332.261 245.959C331.824 246.116 331.338 246.195 330.805 246.195ZM331.81 243.713C332.33 243.713 332.777 243.583 333.153 243.324C333.529 243.057 333.82 242.678 334.025 242.186C334.237 241.687 334.343 241.099 334.343 240.422V240.412C334.343 239.728 334.237 239.14 334.025 238.648C333.82 238.156 333.526 237.776 333.143 237.51C332.767 237.243 332.323 237.11 331.81 237.11C331.304 237.11 330.86 237.243 330.477 237.51C330.101 237.77 329.811 238.146 329.605 238.638C329.407 239.13 329.308 239.718 329.308 240.401V240.422C329.308 241.099 329.407 241.687 329.605 242.186C329.811 242.678 330.101 243.057 330.477 243.324C330.853 243.583 331.297 243.713 331.81 243.713ZM343.715 246.236C342.895 246.236 342.197 246.072 341.623 245.744C341.056 245.409 340.625 244.93 340.331 244.308C340.044 243.679 339.9 242.924 339.9 242.042V234.823H342.895V241.386C342.895 242.151 343.059 242.739 343.387 243.149C343.715 243.553 344.224 243.754 344.915 243.754C345.27 243.754 345.588 243.696 345.868 243.58C346.148 243.457 346.384 243.29 346.576 243.078C346.767 242.859 346.911 242.596 347.006 242.288C347.109 241.98 347.16 241.642 347.16 241.273V234.823H350.154V246H347.16V244.236H347.017C346.846 244.646 346.603 245.002 346.289 245.303C345.981 245.604 345.612 245.836 345.181 246C344.75 246.157 344.262 246.236 343.715 246.236ZM357.722 246.236C356.587 246.236 355.609 246 354.789 245.528C353.976 245.057 353.347 244.387 352.902 243.519C352.465 242.65 352.246 241.622 352.246 240.432V240.422C352.246 239.232 352.465 238.204 352.902 237.335C353.34 236.46 353.958 235.784 354.758 235.305C355.565 234.827 356.512 234.587 357.599 234.587C358.686 234.587 359.625 234.82 360.418 235.285C361.211 235.75 361.823 236.402 362.254 237.243C362.685 238.084 362.9 239.068 362.9 240.196V241.129H353.733V239.243H361.475L360.06 241.017V239.837C360.06 239.174 359.957 238.621 359.752 238.176C359.547 237.725 359.263 237.387 358.901 237.161C358.545 236.936 358.128 236.823 357.65 236.823C357.178 236.823 356.758 236.939 356.389 237.171C356.02 237.404 355.729 237.746 355.517 238.197C355.312 238.648 355.209 239.195 355.209 239.837V241.027C355.209 241.649 355.312 242.182 355.517 242.626C355.722 243.071 356.016 243.413 356.399 243.652C356.789 243.884 357.25 244 357.783 244C358.214 244 358.58 243.936 358.88 243.806C359.188 243.676 359.434 243.519 359.619 243.334C359.81 243.149 359.94 242.975 360.008 242.811L360.039 242.75H362.808L362.787 242.852C362.698 243.228 362.534 243.614 362.295 244.011C362.062 244.4 361.741 244.766 361.331 245.108C360.928 245.443 360.425 245.716 359.824 245.928C359.229 246.133 358.528 246.236 357.722 246.236Z" fill="#15151E"/>
<path d="M290.521 275.815C289.513 275.815 288.596 275.687 287.77 275.429C286.943 275.165 286.229 274.778 285.625 274.269C285.027 273.753 284.567 273.111 284.245 272.344C283.923 271.57 283.762 270.674 283.762 269.654V269.646C283.762 268.632 283.923 267.741 284.245 266.974C284.567 266.206 285.027 265.564 285.625 265.049C286.223 264.533 286.932 264.146 287.752 263.889C288.572 263.631 289.475 263.502 290.459 263.502C290.775 263.502 291.106 263.52 291.452 263.555C291.798 263.59 292.085 263.64 292.313 263.704V265.822C292.085 265.775 291.812 265.737 291.496 265.708C291.18 265.679 290.863 265.664 290.547 265.664C289.914 265.664 289.337 265.749 288.815 265.919C288.3 266.083 287.857 266.332 287.488 266.666C287.119 266.994 286.835 267.407 286.636 267.905C286.442 268.403 286.346 268.986 286.346 269.654V269.663C286.346 270.337 286.442 270.923 286.636 271.421C286.835 271.919 287.119 272.335 287.488 272.669C287.863 272.997 288.314 273.243 288.842 273.407C289.369 273.565 289.958 273.645 290.608 273.645C290.896 273.645 291.203 273.636 291.531 273.618C291.859 273.595 292.132 273.562 292.349 273.521V275.657C292.12 275.71 291.842 275.751 291.514 275.78C291.186 275.804 290.854 275.815 290.521 275.815ZM282.268 271.403V270.393H291.373V271.403H282.268ZM282.268 268.969V267.967H291.373V268.969H282.268ZM300.074 276.325C299.336 276.325 298.647 276.193 298.009 275.93C297.376 275.66 296.819 275.259 296.339 274.726C295.864 274.187 295.495 273.507 295.231 272.687C294.968 271.866 294.836 270.896 294.836 269.777V269.76C294.836 268.348 295.047 267.138 295.469 266.13C295.896 265.116 296.503 264.343 297.288 263.81C298.073 263.271 299.005 263.001 300.083 263.001C300.903 263.001 301.642 263.15 302.298 263.449C302.954 263.742 303.493 264.146 303.915 264.662C304.343 265.178 304.621 265.77 304.75 266.438L304.768 266.517H302.175L302.14 266.438C302.04 266.174 301.894 265.942 301.7 265.743C301.513 265.544 301.284 265.389 301.015 265.277C300.745 265.166 300.438 265.11 300.092 265.11C299.482 265.11 298.981 265.295 298.589 265.664C298.196 266.027 297.9 266.52 297.701 267.141C297.508 267.756 297.394 268.447 297.358 269.215C297.353 269.303 297.35 269.391 297.35 269.479C297.35 269.561 297.35 269.648 297.35 269.742L297.745 271.86C297.745 272.306 297.848 272.707 298.053 273.064C298.258 273.422 298.536 273.703 298.888 273.908C299.239 274.113 299.629 274.216 300.057 274.216C300.484 274.216 300.871 274.116 301.217 273.917C301.568 273.712 301.847 273.437 302.052 273.091C302.263 272.739 302.368 272.347 302.368 271.913V271.896C302.368 271.45 302.269 271.058 302.069 270.718C301.87 270.372 301.598 270.103 301.252 269.909C300.912 269.71 300.52 269.61 300.074 269.61C299.641 269.61 299.248 269.707 298.896 269.9C298.545 270.088 298.264 270.352 298.053 270.691C297.848 271.025 297.745 271.412 297.745 271.852V271.86H297.218V269.514H297.525C297.678 269.18 297.897 268.872 298.185 268.591C298.478 268.31 298.841 268.084 299.274 267.914C299.708 267.738 300.218 267.65 300.804 267.65C301.624 267.65 302.345 267.829 302.966 268.187C303.587 268.544 304.07 269.036 304.416 269.663C304.762 270.29 304.935 271.005 304.935 271.808V271.825C304.935 272.687 304.727 273.457 304.311 274.137C303.9 274.816 303.329 275.353 302.597 275.745C301.87 276.132 301.029 276.325 300.074 276.325ZM307.308 276V274.216L311.412 270.182C312.004 269.607 312.461 269.136 312.783 268.767C313.111 268.392 313.34 268.066 313.469 267.791C313.604 267.51 313.671 267.223 313.671 266.93V266.895C313.671 266.537 313.592 266.221 313.434 265.945C313.275 265.67 313.05 265.456 312.757 265.304C312.464 265.146 312.118 265.066 311.72 265.066C311.304 265.066 310.938 265.154 310.621 265.33C310.305 265.5 310.059 265.737 309.883 266.042C309.707 266.341 309.619 266.689 309.619 267.088V267.141H307.158V267.097C307.158 266.282 307.354 265.57 307.747 264.961C308.146 264.346 308.693 263.865 309.391 263.52C310.094 263.174 310.905 263.001 311.825 263.001C312.704 263.001 313.475 263.156 314.137 263.467C314.805 263.777 315.326 264.208 315.701 264.759C316.082 265.31 316.272 265.951 316.272 266.684V266.71C316.272 267.19 316.179 267.659 315.991 268.116C315.804 268.573 315.487 269.068 315.042 269.602C314.597 270.135 313.99 270.759 313.223 271.474L310.129 274.348L310.867 273.161V274.348L310.138 273.864H316.457V276H307.308ZM323.55 262.992C324.288 262.992 324.974 263.127 325.606 263.396C326.245 263.66 326.802 264.062 327.276 264.601C327.757 265.134 328.129 265.811 328.393 266.631C328.662 267.451 328.797 268.421 328.797 269.54V269.558C328.797 270.97 328.583 272.18 328.155 273.188C327.728 274.195 327.121 274.969 326.336 275.508C325.557 276.047 324.625 276.316 323.541 276.316C322.721 276.316 321.982 276.17 321.326 275.877C320.676 275.578 320.137 275.171 319.709 274.655C319.281 274.134 319.003 273.542 318.874 272.88L318.856 272.801H321.449L321.484 272.88C321.584 273.138 321.728 273.369 321.915 273.574C322.108 273.773 322.34 273.929 322.609 274.04C322.885 274.151 323.192 274.207 323.532 274.207C324.142 274.207 324.643 274.025 325.035 273.662C325.428 273.293 325.724 272.798 325.923 272.177C326.122 271.556 326.236 270.864 326.266 270.103C326.271 270.015 326.274 269.927 326.274 269.839C326.274 269.751 326.274 269.663 326.274 269.575L325.879 267.457C325.879 267.012 325.776 266.61 325.571 266.253C325.366 265.896 325.088 265.614 324.736 265.409C324.391 265.204 324.001 265.102 323.567 265.102C323.146 265.102 322.759 265.204 322.407 265.409C322.056 265.608 321.774 265.884 321.563 266.235C321.358 266.581 321.256 266.971 321.256 267.404V267.422C321.256 267.861 321.355 268.254 321.555 268.6C321.754 268.945 322.026 269.218 322.372 269.417C322.718 269.61 323.11 269.707 323.55 269.707C323.989 269.707 324.382 269.613 324.728 269.426C325.079 269.232 325.357 268.969 325.562 268.635C325.773 268.295 325.879 267.905 325.879 267.466V267.457H326.406V269.804H326.107C325.955 270.132 325.732 270.439 325.439 270.727C325.146 271.008 324.783 271.236 324.35 271.412C323.916 271.582 323.409 271.667 322.829 271.667C322.009 271.667 321.288 271.488 320.667 271.131C320.046 270.773 319.56 270.281 319.208 269.654C318.862 269.021 318.689 268.307 318.689 267.51V267.492C318.689 266.631 318.895 265.86 319.305 265.181C319.721 264.501 320.295 263.968 321.027 263.581C321.76 263.188 322.601 262.992 323.55 262.992ZM337.023 276V273.671H330.81V271.579C331.132 271.011 331.457 270.445 331.785 269.883C332.119 269.314 332.453 268.752 332.787 268.195C333.121 267.639 333.458 267.088 333.798 266.543C334.138 265.992 334.478 265.447 334.817 264.908C335.157 264.369 335.497 263.839 335.837 263.317H339.555V271.544H341.216V273.671H339.555V276H337.023ZM333.191 271.623H337.085V265.33H336.944C336.698 265.711 336.446 266.104 336.188 266.508C335.937 266.906 335.682 267.313 335.424 267.729C335.166 268.14 334.911 268.556 334.659 268.978C334.407 269.394 334.158 269.812 333.912 270.234C333.666 270.65 333.426 271.066 333.191 271.482V271.623ZM345.004 276.22C344.559 276.22 344.189 276.073 343.896 275.78C343.609 275.487 343.466 275.127 343.466 274.699C343.466 274.26 343.609 273.896 343.896 273.609C344.189 273.322 344.559 273.179 345.004 273.179C345.455 273.179 345.824 273.322 346.111 273.609C346.398 273.896 346.542 274.26 346.542 274.699C346.542 275.127 346.398 275.487 346.111 275.78C345.824 276.073 345.455 276.22 345.004 276.22ZM353.591 276.281C352.577 276.281 351.684 276.126 350.91 275.815C350.137 275.499 349.533 275.062 349.1 274.506C348.666 273.943 348.449 273.296 348.449 272.563V272.546C348.449 271.995 348.575 271.497 348.827 271.052C349.085 270.606 349.434 270.237 349.873 269.944C350.318 269.646 350.828 269.44 351.402 269.329V269.276C350.664 269.095 350.063 268.755 349.601 268.257C349.144 267.753 348.915 267.158 348.915 266.473V266.455C348.915 265.793 349.114 265.207 349.513 264.697C349.911 264.182 350.462 263.777 351.165 263.484C351.868 263.186 352.677 263.036 353.591 263.036C354.511 263.036 355.322 263.186 356.025 263.484C356.734 263.777 357.285 264.182 357.678 264.697C358.076 265.207 358.275 265.793 358.275 266.455V266.473C358.275 267.158 358.044 267.753 357.581 268.257C357.124 268.755 356.523 269.095 355.779 269.276V269.329C356.359 269.44 356.872 269.646 357.317 269.944C357.763 270.237 358.111 270.606 358.363 271.052C358.615 271.497 358.741 271.995 358.741 272.546V272.563C358.741 273.296 358.524 273.943 358.091 274.506C357.657 275.062 357.054 275.499 356.28 275.815C355.507 276.126 354.61 276.281 353.591 276.281ZM353.591 274.348C354.06 274.348 354.47 274.266 354.821 274.102C355.179 273.932 355.46 273.7 355.665 273.407C355.87 273.108 355.973 272.769 355.973 272.388V272.37C355.973 271.989 355.87 271.652 355.665 271.359C355.466 271.061 355.188 270.826 354.83 270.656C354.473 270.486 354.06 270.401 353.591 270.401C353.122 270.401 352.709 270.486 352.352 270.656C351.994 270.826 351.716 271.061 351.517 271.359C351.317 271.652 351.218 271.989 351.218 272.37V272.388C351.218 272.769 351.317 273.108 351.517 273.407C351.722 273.7 352.003 273.932 352.36 274.102C352.718 274.266 353.128 274.348 353.591 274.348ZM353.591 268.477C354.001 268.477 354.358 268.403 354.663 268.257C354.974 268.11 355.217 267.905 355.393 267.642C355.568 267.372 355.656 267.064 355.656 266.719V266.701C355.656 266.355 355.568 266.054 355.393 265.796C355.217 265.532 354.974 265.327 354.663 265.181C354.353 265.028 353.995 264.952 353.591 264.952C353.192 264.952 352.838 265.028 352.527 265.181C352.217 265.327 351.974 265.532 351.798 265.796C351.622 266.054 351.534 266.355 351.534 266.701V266.719C351.534 267.064 351.622 267.372 351.798 267.642C351.974 267.905 352.214 268.11 352.519 268.257C352.829 268.403 353.187 268.477 353.591 268.477Z" fill="#6B6B76"/>
<path d="M300.877 189V185.563L309.344 177.645C310.384 176.682 311.17 175.879 311.701 175.237C312.232 174.595 312.592 174.02 312.78 173.511C312.979 173.002 313.079 172.47 313.079 171.917V171.884C313.079 171.231 312.924 170.655 312.614 170.157C312.304 169.648 311.873 169.25 311.319 168.962C310.777 168.674 310.152 168.53 309.443 168.53C308.624 168.53 307.905 168.696 307.285 169.028C306.665 169.349 306.178 169.798 305.824 170.373C305.47 170.938 305.282 171.579 305.26 172.299L305.243 172.448H300.595V172.315C300.595 170.81 300.977 169.482 301.74 168.331C302.504 167.169 303.55 166.261 304.878 165.608C306.217 164.955 307.728 164.629 309.41 164.629C311.104 164.629 312.592 164.928 313.876 165.525C315.16 166.112 316.161 166.931 316.881 167.982C317.6 169.034 317.96 170.24 317.96 171.602V171.635C317.96 172.598 317.783 173.494 317.429 174.324C317.086 175.143 316.516 176.018 315.719 176.947C314.922 177.866 313.832 178.962 312.448 180.234L305.509 186.56L307.435 183.189V186.56L305.525 185.016H318.292V189H300.877ZM330.992 189.415C329.542 189.415 328.209 189.16 326.991 188.651C325.785 188.142 324.728 187.384 323.82 186.377C322.924 185.359 322.227 184.091 321.729 182.575C321.242 181.048 320.998 179.266 320.998 177.229V177.196C320.998 174.584 321.402 172.338 322.21 170.456C323.018 168.575 324.169 167.136 325.663 166.14C327.168 165.132 328.961 164.629 331.042 164.629C332.591 164.629 333.986 164.906 335.226 165.459C336.465 166.001 337.489 166.754 338.297 167.717C339.116 168.68 339.642 169.775 339.874 171.004L339.907 171.17H334.96L334.91 171.021C334.711 170.534 334.429 170.113 334.063 169.759C333.709 169.394 333.278 169.111 332.769 168.912C332.259 168.702 331.678 168.597 331.025 168.597C329.863 168.597 328.906 168.934 328.153 169.609C327.412 170.285 326.853 171.192 326.477 172.332C326.1 173.472 325.879 174.75 325.812 176.167C325.801 176.333 325.79 176.499 325.779 176.665C325.779 176.831 325.779 176.997 325.779 177.163L326.543 181.147C326.543 181.944 326.737 182.669 327.124 183.322C327.511 183.964 328.037 184.479 328.701 184.866C329.365 185.243 330.107 185.431 330.926 185.431C331.745 185.431 332.486 185.243 333.15 184.866C333.814 184.49 334.346 183.986 334.744 183.355C335.143 182.714 335.342 182 335.342 181.214V181.181C335.342 180.351 335.148 179.615 334.761 178.973C334.384 178.331 333.864 177.833 333.2 177.479C332.547 177.113 331.806 176.931 330.976 176.931C330.146 176.931 329.393 177.113 328.718 177.479C328.043 177.833 327.511 178.325 327.124 178.956C326.737 179.587 326.543 180.306 326.543 181.114V181.147H325.53V177.08H325.879C326.2 176.339 326.665 175.68 327.273 175.104C327.893 174.529 328.635 174.075 329.498 173.743C330.372 173.4 331.346 173.229 332.42 173.229C333.969 173.229 335.325 173.566 336.487 174.241C337.66 174.905 338.574 175.824 339.227 176.997C339.891 178.17 340.223 179.504 340.223 180.998V181.031C340.223 182.669 339.824 184.119 339.027 185.381C338.23 186.632 337.135 187.617 335.74 188.336C334.357 189.055 332.774 189.415 330.992 189.415Z" fill="#F2784B"/>
<path d="M445 218C468.196 218 487 199.196 487 176C487 152.804 468.196 134 445 134C421.804 134 403 152.804 403 176C403 199.196 421.804 218 445 218Z" fill="#EFF1F4" stroke="#2E9E8F" stroke-width="3" stroke-linecap="round"/>
<path d="M400.806 246.328C399.541 246.328 398.444 246.103 397.514 245.651C396.591 245.193 395.874 244.554 395.361 243.734C394.855 242.907 394.602 241.946 394.602 240.853V231.204H397.699V240.576C397.699 241.211 397.818 241.765 398.058 242.237C398.304 242.702 398.656 243.064 399.114 243.324C399.579 243.577 400.143 243.703 400.806 243.703C401.469 243.703 402.029 243.577 402.487 243.324C402.952 243.064 403.304 242.702 403.543 242.237C403.783 241.765 403.902 241.211 403.902 240.576V231.204H406.999V240.853C406.999 241.946 406.746 242.903 406.24 243.724C405.741 244.544 405.027 245.183 404.097 245.641C403.174 246.099 402.077 246.328 400.806 246.328ZM409.88 249.681V234.823H412.875V236.638H413.008C413.206 236.214 413.466 235.855 413.787 235.562C414.115 235.261 414.498 235.032 414.936 234.875C415.373 234.71 415.855 234.628 416.381 234.628C417.318 234.628 418.125 234.861 418.801 235.326C419.485 235.791 420.008 236.454 420.37 237.315C420.739 238.176 420.924 239.205 420.924 240.401V240.422C420.924 241.625 420.743 242.657 420.38 243.519C420.018 244.38 419.499 245.043 418.822 245.508C418.145 245.966 417.335 246.195 416.392 246.195C415.879 246.195 415.4 246.113 414.956 245.949C414.512 245.785 414.125 245.552 413.797 245.251C413.469 244.951 413.206 244.592 413.008 244.175H412.875V249.681H409.88ZM415.376 243.713C415.889 243.713 416.333 243.58 416.709 243.313C417.085 243.047 417.373 242.667 417.571 242.175C417.776 241.683 417.878 241.099 417.878 240.422V240.401C417.878 239.718 417.776 239.13 417.571 238.638C417.373 238.146 417.085 237.77 416.709 237.51C416.333 237.243 415.889 237.11 415.376 237.11C414.864 237.11 414.416 237.243 414.033 237.51C413.657 237.77 413.363 238.146 413.151 238.638C412.946 239.13 412.844 239.718 412.844 240.401V240.422C412.844 241.099 412.946 241.683 413.151 242.175C413.363 242.667 413.657 243.047 414.033 243.313C414.416 243.58 414.864 243.713 415.376 243.713ZM428.03 246.236C426.881 246.236 425.897 246.007 425.077 245.549C424.256 245.084 423.627 244.417 423.19 243.549C422.759 242.674 422.544 241.625 422.544 240.401V240.381C422.544 239.164 422.759 238.125 423.19 237.264C423.627 236.402 424.253 235.743 425.066 235.285C425.887 234.82 426.871 234.587 428.02 234.587C429.018 234.587 429.879 234.765 430.604 235.121C431.328 235.476 431.896 235.968 432.306 236.597C432.723 237.219 432.969 237.94 433.044 238.761L433.034 238.812H430.255L430.245 238.761C430.149 238.221 429.917 237.783 429.547 237.448C429.178 237.106 428.676 236.936 428.04 236.936C427.527 236.936 427.086 237.072 426.717 237.346C426.348 237.612 426.068 238.002 425.876 238.515C425.685 239.027 425.589 239.653 425.589 240.391V240.401C425.589 241.146 425.685 241.779 425.876 242.298C426.075 242.818 426.355 243.214 426.717 243.488C427.086 243.754 427.531 243.888 428.05 243.888C428.659 243.888 429.144 243.734 429.506 243.426C429.875 243.119 430.122 242.681 430.245 242.114L430.255 242.062L433.044 242.052L433.034 242.124C432.952 242.931 432.699 243.645 432.275 244.267C431.858 244.882 431.291 245.364 430.573 245.713C429.862 246.062 429.014 246.236 428.03 246.236ZM440.058 246.236C438.923 246.236 437.942 246.003 437.115 245.539C436.288 245.074 435.652 244.407 435.208 243.539C434.763 242.671 434.541 241.632 434.541 240.422V240.401C434.541 239.198 434.767 238.163 435.218 237.294C435.669 236.426 436.305 235.76 437.125 235.295C437.952 234.823 438.93 234.587 440.058 234.587C441.192 234.587 442.17 234.82 442.99 235.285C443.817 235.75 444.457 236.416 444.908 237.284C445.359 238.152 445.584 239.191 445.584 240.401V240.422C445.584 241.632 445.359 242.671 444.908 243.539C444.463 244.407 443.828 245.074 443 245.539C442.18 246.003 441.199 246.236 440.058 246.236ZM440.068 243.888C440.581 243.888 441.018 243.751 441.38 243.478C441.75 243.204 442.03 242.811 442.221 242.298C442.419 241.779 442.519 241.153 442.519 240.422V240.401C442.519 239.67 442.419 239.048 442.221 238.535C442.023 238.022 441.739 237.629 441.37 237.356C441.008 237.076 440.57 236.936 440.058 236.936C439.552 236.936 439.114 237.076 438.745 237.356C438.376 237.629 438.092 238.022 437.894 238.535C437.696 239.048 437.597 239.67 437.597 240.401V240.422C437.597 241.153 437.692 241.779 437.884 242.298C438.082 242.811 438.366 243.204 438.735 243.478C439.104 243.751 439.548 243.888 440.068 243.888ZM447.676 246V234.823H450.67V236.628H450.804C451.036 235.992 451.426 235.493 451.973 235.131C452.526 234.769 453.172 234.587 453.911 234.587C454.423 234.587 454.885 234.673 455.295 234.844C455.712 235.015 456.064 235.261 456.351 235.582C456.645 235.903 456.864 236.29 457.007 236.741H457.141C457.312 236.303 457.561 235.924 457.889 235.603C458.224 235.281 458.617 235.032 459.068 234.854C459.526 234.676 460.019 234.587 460.545 234.587C461.283 234.587 461.922 234.741 462.462 235.049C463.009 235.356 463.433 235.791 463.734 236.351C464.035 236.912 464.185 237.575 464.185 238.34V246H461.191V239.089C461.191 238.645 461.119 238.275 460.976 237.981C460.839 237.681 460.634 237.455 460.36 237.305C460.094 237.147 459.755 237.069 459.345 237.069C458.949 237.069 458.604 237.158 458.31 237.335C458.022 237.513 457.797 237.759 457.633 238.074C457.476 238.388 457.397 238.75 457.397 239.161V246H454.444V238.966C454.444 238.569 454.372 238.231 454.229 237.951C454.085 237.664 453.876 237.445 453.603 237.294C453.33 237.144 453.001 237.069 452.619 237.069C452.236 237.069 451.897 237.165 451.604 237.356C451.31 237.541 451.081 237.797 450.917 238.125C450.752 238.453 450.67 238.829 450.67 239.253V246H447.676ZM466.738 246V234.823H469.732V246H466.738ZM468.235 233.213C467.784 233.213 467.395 233.056 467.066 232.742C466.745 232.42 466.584 232.038 466.584 231.593C466.584 231.142 466.745 230.759 467.066 230.445C467.395 230.124 467.784 229.963 468.235 229.963C468.693 229.963 469.083 230.124 469.404 230.445C469.726 230.759 469.886 231.142 469.886 231.593C469.886 232.038 469.726 232.42 469.404 232.742C469.083 233.056 468.693 233.213 468.235 233.213ZM472.368 246V234.823H475.362V236.597H475.495C475.762 235.975 476.172 235.486 476.726 235.131C477.279 234.769 477.963 234.587 478.776 234.587C480.014 234.587 480.96 234.957 481.617 235.695C482.28 236.426 482.611 237.455 482.611 238.781V246H479.617V239.438C479.617 238.665 479.45 238.077 479.115 237.674C478.78 237.271 478.264 237.069 477.566 237.069C477.115 237.069 476.722 237.175 476.387 237.387C476.059 237.592 475.806 237.879 475.628 238.248C475.451 238.617 475.362 239.051 475.362 239.55V246H472.368ZM490.158 249.907C489.126 249.907 488.237 249.77 487.492 249.497C486.747 249.23 486.159 248.854 485.729 248.369C485.305 247.89 485.048 247.34 484.959 246.718V246.656H487.902L487.923 246.708C488.019 247.008 488.258 247.261 488.641 247.466C489.03 247.671 489.55 247.774 490.199 247.774C490.985 247.774 491.594 247.593 492.024 247.23C492.455 246.868 492.67 246.369 492.67 245.733V243.785H492.527C492.329 244.175 492.062 244.51 491.727 244.79C491.399 245.063 491.016 245.275 490.579 245.426C490.148 245.569 489.669 245.641 489.143 245.641C488.207 245.641 487.396 245.419 486.713 244.975C486.036 244.523 485.513 243.891 485.144 243.078C484.782 242.264 484.601 241.307 484.601 240.207V240.196C484.601 239.062 484.785 238.081 485.154 237.253C485.523 236.419 486.05 235.773 486.733 235.315C487.424 234.857 488.244 234.628 489.194 234.628C489.714 234.628 490.189 234.71 490.62 234.875C491.05 235.039 491.43 235.274 491.758 235.582C492.086 235.89 492.349 236.255 492.547 236.679H492.66V234.823H495.654V245.672C495.654 246.526 495.429 247.271 494.978 247.907C494.533 248.543 493.897 249.035 493.07 249.384C492.25 249.732 491.279 249.907 490.158 249.907ZM490.168 243.375C490.688 243.375 491.136 243.245 491.512 242.985C491.888 242.726 492.178 242.36 492.383 241.888C492.588 241.417 492.691 240.866 492.691 240.237V240.217C492.691 239.588 492.588 239.038 492.383 238.566C492.178 238.094 491.884 237.729 491.501 237.469C491.125 237.202 490.681 237.069 490.168 237.069C489.642 237.069 489.191 237.199 488.815 237.458C488.446 237.718 488.159 238.084 487.954 238.556C487.755 239.027 487.656 239.581 487.656 240.217V240.227C487.656 240.863 487.755 241.417 487.954 241.888C488.159 242.36 488.446 242.726 488.815 242.985C489.191 243.245 489.642 243.375 490.168 243.375Z" fill="#15151E"/>
<path d="M421.727 275.815C420.719 275.815 419.802 275.687 418.976 275.429C418.149 275.165 417.435 274.778 416.831 274.269C416.233 273.753 415.773 273.111 415.451 272.344C415.129 271.57 414.968 270.674 414.968 269.654V269.646C414.968 268.632 415.129 267.741 415.451 266.974C415.773 266.206 416.233 265.564 416.831 265.049C417.429 264.533 418.138 264.146 418.958 263.889C419.778 263.631 420.681 263.502 421.665 263.502C421.981 263.502 422.312 263.52 422.658 263.555C423.004 263.59 423.291 263.64 423.52 263.704V265.822C423.291 265.775 423.019 265.737 422.702 265.708C422.386 265.679 422.069 265.664 421.753 265.664C421.12 265.664 420.543 265.749 420.021 265.919C419.506 266.083 419.063 266.332 418.694 266.666C418.325 266.994 418.041 267.407 417.842 267.905C417.648 268.403 417.552 268.986 417.552 269.654V269.663C417.552 270.337 417.648 270.923 417.842 271.421C418.041 271.919 418.325 272.335 418.694 272.669C419.069 272.997 419.521 273.243 420.048 273.407C420.575 273.565 421.164 273.645 421.814 273.645C422.102 273.645 422.409 273.636 422.737 273.618C423.065 273.595 423.338 273.562 423.555 273.521V275.657C423.326 275.71 423.048 275.751 422.72 275.78C422.392 275.804 422.061 275.815 421.727 275.815ZM413.474 271.403V270.393H422.579V271.403H413.474ZM413.474 268.969V267.967H422.579V268.969H413.474ZM426.227 276V274.216L430.331 270.182C430.923 269.607 431.38 269.136 431.702 268.767C432.03 268.392 432.259 268.066 432.388 267.791C432.522 267.51 432.59 267.223 432.59 266.93V266.895C432.59 266.537 432.511 266.221 432.353 265.945C432.194 265.67 431.969 265.456 431.676 265.304C431.383 265.146 431.037 265.066 430.639 265.066C430.223 265.066 429.856 265.154 429.54 265.33C429.224 265.5 428.978 265.737 428.802 266.042C428.626 266.341 428.538 266.689 428.538 267.088V267.141H426.077V267.097C426.077 266.282 426.273 265.57 426.666 264.961C427.064 264.346 427.612 263.865 428.31 263.52C429.013 263.174 429.824 263.001 430.744 263.001C431.623 263.001 432.394 263.156 433.056 263.467C433.724 263.777 434.245 264.208 434.62 264.759C435.001 265.31 435.191 265.951 435.191 266.684V266.71C435.191 267.19 435.098 267.659 434.91 268.116C434.723 268.573 434.406 269.068 433.961 269.602C433.516 270.135 432.909 270.759 432.142 271.474L429.048 274.348L429.786 273.161V274.348L429.057 273.864H435.376V276H426.227ZM437.775 276V274.216L441.88 270.182C442.472 269.607 442.929 269.136 443.251 268.767C443.579 268.392 443.808 268.066 443.937 267.791C444.071 267.51 444.139 267.223 444.139 266.93V266.895C444.139 266.537 444.06 266.221 443.901 265.945C443.743 265.67 443.518 265.456 443.225 265.304C442.932 265.146 442.586 265.066 442.188 265.066C441.771 265.066 441.405 265.154 441.089 265.33C440.772 265.5 440.526 265.737 440.351 266.042C440.175 266.341 440.087 266.689 440.087 267.088V267.141H437.626V267.097C437.626 266.282 437.822 265.57 438.215 264.961C438.613 264.346 439.161 263.865 439.858 263.52C440.562 263.174 441.373 263.001 442.293 263.001C443.172 263.001 443.942 263.156 444.604 263.467C445.272 263.777 445.794 264.208 446.169 264.759C446.55 265.31 446.74 265.951 446.74 266.684V266.71C446.74 267.19 446.646 267.659 446.459 268.116C446.271 268.573 445.955 269.068 445.51 269.602C445.064 270.135 444.458 270.759 443.69 271.474L440.597 274.348L441.335 273.161V274.348L440.605 273.864H446.925V276H437.775ZM455.063 276V273.671H448.85V271.579C449.172 271.011 449.497 270.445 449.825 269.883C450.159 269.314 450.493 268.752 450.827 268.195C451.161 267.639 451.498 267.088 451.838 266.543C452.178 265.992 452.518 265.447 452.857 264.908C453.197 264.369 453.537 263.839 453.877 263.317H457.595V271.544H459.256V273.671H457.595V276H455.063ZM451.231 271.623H455.125V265.33H454.984C454.738 265.711 454.486 266.104 454.229 266.508C453.977 266.906 453.722 267.313 453.464 267.729C453.206 268.14 452.951 268.556 452.699 268.978C452.447 269.394 452.198 269.812 451.952 270.234C451.706 270.65 451.466 271.066 451.231 271.482V271.623ZM463.044 276.22C462.599 276.22 462.229 276.073 461.937 275.78C461.649 275.487 461.506 275.127 461.506 274.699C461.506 274.26 461.649 273.896 461.937 273.609C462.229 273.322 462.599 273.179 463.044 273.179C463.495 273.179 463.864 273.322 464.151 273.609C464.438 273.896 464.582 274.26 464.582 274.699C464.582 275.127 464.438 275.487 464.151 275.78C463.864 276.073 463.495 276.22 463.044 276.22ZM471.473 276.316C470.424 276.316 469.521 276.047 468.766 275.508C468.016 274.969 467.438 274.201 467.034 273.205C466.63 272.209 466.428 271.028 466.428 269.663V269.646C466.428 268.28 466.63 267.103 467.034 266.112C467.438 265.116 468.016 264.349 468.766 263.81C469.521 263.271 470.424 263.001 471.473 263.001C472.516 263.001 473.412 263.271 474.162 263.81C474.918 264.349 475.498 265.116 475.902 266.112C476.307 267.103 476.509 268.28 476.509 269.646V269.663C476.509 271.028 476.307 272.209 475.902 273.205C475.498 274.201 474.918 274.969 474.162 275.508C473.412 276.047 472.516 276.316 471.473 276.316ZM471.473 274.225C471.971 274.225 472.396 274.043 472.747 273.68C473.099 273.316 473.365 272.795 473.547 272.115C473.734 271.436 473.828 270.618 473.828 269.663V269.646C473.828 268.69 473.734 267.876 473.547 267.202C473.365 266.522 473.099 266.004 472.747 265.646C472.396 265.283 471.971 265.102 471.473 265.102C470.969 265.102 470.541 265.283 470.189 265.646C469.844 266.004 469.577 266.522 469.39 267.202C469.202 267.876 469.108 268.69 469.108 269.646V269.663C469.108 270.618 469.202 271.436 469.39 272.115C469.577 272.795 469.844 273.316 470.189 273.68C470.541 274.043 470.969 274.225 471.473 274.225Z" fill="#6B6B76"/>
<path d="M433.979 188V168.643H433.879L427.77 172.793V168.344L433.962 164.044H438.942V188H433.979ZM453.668 188.415C451.764 188.415 450.088 188.122 448.638 187.535C447.188 186.949 446.053 186.135 445.234 185.095C444.415 184.043 444.006 182.831 444.006 181.459V181.426C444.006 180.385 444.244 179.45 444.72 178.62C445.196 177.79 445.849 177.098 446.679 176.545C447.509 175.992 448.461 175.61 449.534 175.399V175.3C448.151 174.957 447.027 174.32 446.164 173.391C445.312 172.45 444.886 171.338 444.886 170.054V170.021C444.886 168.781 445.257 167.685 445.998 166.733C446.74 165.771 447.769 165.012 449.086 164.459C450.414 163.906 451.941 163.629 453.668 163.629C455.395 163.629 456.916 163.906 458.233 164.459C459.55 165.012 460.58 165.771 461.321 166.733C462.074 167.685 462.45 168.781 462.45 170.021V170.054C462.45 171.338 462.019 172.45 461.155 173.391C460.303 174.32 459.185 174.957 457.802 175.3V175.399C458.875 175.61 459.827 175.992 460.657 176.545C461.487 177.098 462.135 177.79 462.6 178.62C463.076 179.45 463.313 180.385 463.313 181.426V181.459C463.313 182.831 462.904 184.043 462.085 185.095C461.277 186.135 460.148 186.949 458.698 187.535C457.248 188.122 455.572 188.415 453.668 188.415ZM453.668 184.763C454.542 184.763 455.312 184.608 455.976 184.298C456.64 183.988 457.16 183.556 457.536 183.003C457.924 182.45 458.117 181.824 458.117 181.127V181.094C458.117 180.385 457.929 179.755 457.553 179.201C457.176 178.648 456.651 178.216 455.976 177.906C455.312 177.585 454.542 177.425 453.668 177.425C452.783 177.425 452.002 177.585 451.327 177.906C450.663 178.216 450.143 178.648 449.767 179.201C449.39 179.755 449.202 180.385 449.202 181.094V181.127C449.202 181.824 449.39 182.45 449.767 183.003C450.154 183.556 450.68 183.988 451.344 184.298C452.019 184.608 452.794 184.763 453.668 184.763ZM453.668 173.789C454.421 173.789 455.085 173.651 455.66 173.374C456.236 173.097 456.684 172.715 457.005 172.229C457.326 171.73 457.486 171.16 457.486 170.519V170.485C457.486 169.843 457.32 169.279 456.988 168.792C456.667 168.305 456.219 167.929 455.644 167.663C455.068 167.386 454.41 167.248 453.668 167.248C452.915 167.248 452.251 167.386 451.676 167.663C451.1 167.929 450.646 168.305 450.314 168.792C449.993 169.279 449.833 169.843 449.833 170.485V170.519C449.833 171.16 449.993 171.73 450.314 172.229C450.646 172.715 451.1 173.097 451.676 173.374C452.251 173.651 452.915 173.789 453.668 173.789Z" fill="#2E9E8F"/>
<defs>
<linearGradient id="paint0_linear_2225_27" x1="28" y1="34.6459" x2="527" y2="296.146" gradientUnits="userSpaceOnUse">
<stop stop-color="#4D7DFD"/>
<stop offset="0.547645" stop-color="#B27DB5"/>
<stop offset="1" stop-color="#8C0D0D"/>
</linearGradient>
</defs>
</svg>
