<svg width="680" height="300" viewBox="0 0 680 300" fill="none" xmlns="http://www.w3.org/2000/svg">
<path d="M651.5 2.5H28.5C14.1406 2.5 2.5 14.1406 2.5 28.5V271.5C2.5 285.859 14.1406 297.5 28.5 297.5H651.5C665.859 297.5 677.5 285.859 677.5 271.5V28.5C677.5 14.1406 665.859 2.5 651.5 2.5Z" fill="white" stroke="url(#paint0_linear_2223_12)" stroke-width="3"/>
<path d="M47.082 56.3418C46.0612 56.3418 45.1452 56.2005 44.334 55.918C43.5319 55.6263 42.8438 55.2116 42.2695 54.6738C41.6953 54.1361 41.2533 53.4935 40.9434 52.7461C40.6335 51.9896 40.4648 51.1465 40.4375 50.2168L40.4238 50.0938H44.4297L44.4434 50.1758C44.4707 50.6862 44.5846 51.1374 44.7852 51.5293C44.9948 51.9212 45.2865 52.2266 45.6602 52.4453C46.043 52.6641 46.5033 52.7734 47.041 52.7734C47.9069 52.7734 48.5677 52.5137 49.0234 51.9941C49.4792 51.4746 49.707 50.7181 49.707 49.7246V36.2715H53.8359V49.7656C53.8359 51.1419 53.5671 52.3223 53.0293 53.3066C52.5007 54.291 51.735 55.043 50.7324 55.5625C49.7298 56.082 48.513 56.3418 47.082 56.3418ZM61.9297 56.3008C60.8542 56.3008 59.9382 56.082 59.1816 55.6445C58.4342 55.1979 57.86 54.5645 57.459 53.7441C57.0671 52.9238 56.8711 51.944 56.8711 50.8047V41.3438H60.8633V49.9707C60.8633 50.9277 61.0866 51.6706 61.5332 52.1992C61.9889 52.7279 62.6634 52.9922 63.5566 52.9922C64.0033 52.9922 64.4043 52.9147 64.7598 52.7598C65.1243 52.6048 65.4342 52.3861 65.6895 52.1035C65.9447 51.8118 66.1406 51.4701 66.2773 51.0781C66.4141 50.6771 66.4824 50.2396 66.4824 49.7656V41.3438H70.4746V56H66.4824V53.5801H66.4004C66.1452 54.1361 65.8079 54.6191 65.3887 55.0293C64.9785 55.4395 64.4818 55.7539 63.8984 55.9727C63.3242 56.1914 62.668 56.3008 61.9297 56.3008ZM73.0723 56V41.3438H77.0645V43.75H77.1465C77.5293 42.9115 78.0944 42.2507 78.8418 41.7676C79.5892 41.2845 80.5143 41.043 81.6172 41.043C83.2305 41.043 84.4746 41.5306 85.3496 42.5059C86.2337 43.472 86.6758 44.8164 86.6758 46.5391V56H82.6836V47.3594C82.6836 46.4023 82.4557 45.6641 82 45.1445C81.5534 44.6159 80.8835 44.3516 79.9902 44.3516C79.3978 44.3516 78.8828 44.4883 78.4453 44.7617C78.0078 45.026 77.666 45.3997 77.4199 45.8828C77.1829 46.3659 77.0645 46.931 77.0645 47.5781V56H73.0723ZM95.877 56.3008C94.3822 56.3008 93.097 55.9954 92.0215 55.3848C90.946 54.765 90.1165 53.8854 89.5332 52.7461C88.959 51.6068 88.6719 50.2578 88.6719 48.6992V48.6855C88.6719 47.127 88.959 45.778 89.5332 44.6387C90.1165 43.4902 90.9323 42.6061 91.9805 41.9863C93.0378 41.3574 94.2819 41.043 95.7129 41.043C97.1439 41.043 98.3789 41.3483 99.418 41.959C100.466 42.5605 101.273 43.4128 101.838 44.5156C102.412 45.6185 102.699 46.9082 102.699 48.3848V49.6152H90.627V47.0996H100.812L98.9121 49.4512V47.9199C98.9121 47.0632 98.7799 46.3477 98.5156 45.7734C98.2513 45.1901 97.8822 44.7526 97.4082 44.4609C96.9434 44.1693 96.401 44.0234 95.7812 44.0234C95.1615 44.0234 94.61 44.1738 94.127 44.4746C93.653 44.7754 93.2793 45.2174 93.0059 45.8008C92.7415 46.375 92.6094 47.0814 92.6094 47.9199V49.4648C92.6094 50.276 92.7415 50.9688 93.0059 51.543C93.2793 52.1172 93.6667 52.5592 94.168 52.8691C94.6693 53.1699 95.2663 53.3203 95.959 53.3203C96.5059 53.3203 96.9798 53.2337 97.3809 53.0605C97.7819 52.8874 98.11 52.6686 98.3652 52.4043C98.6204 52.14 98.7936 51.8711 98.8848 51.5977L98.9121 51.5156H102.576L102.535 51.666C102.426 52.2038 102.212 52.7461 101.893 53.293C101.574 53.8398 101.141 54.3411 100.594 54.7969C100.056 55.2526 99.3952 55.6172 98.6113 55.8906C97.8366 56.1641 96.9251 56.3008 95.877 56.3008ZM118.996 56.3008C118.294 56.3008 117.652 56.1868 117.068 55.959C116.485 55.7311 115.975 55.4121 115.537 55.002C115.1 54.5827 114.749 54.0814 114.484 53.498H114.402V56H110.41V36.2715H114.402V43.8867H114.484C114.758 43.2943 115.113 42.7884 115.551 42.3691C115.988 41.9408 116.499 41.6126 117.082 41.3848C117.674 41.1569 118.317 41.043 119.01 41.043C120.24 41.043 121.298 41.3483 122.182 41.959C123.075 42.5605 123.763 43.431 124.246 44.5703C124.729 45.7005 124.971 47.0632 124.971 48.6582V48.6719C124.971 50.2578 124.729 51.6204 124.246 52.7598C123.763 53.8991 123.075 54.7741 122.182 55.3848C121.288 55.9954 120.227 56.3008 118.996 56.3008ZM117.67 52.9922C118.335 52.9922 118.91 52.819 119.393 52.4727C119.876 52.1172 120.249 51.6159 120.514 50.9688C120.778 50.3216 120.91 49.556 120.91 48.6719V48.6582C120.91 47.765 120.778 46.9993 120.514 46.3613C120.249 45.7142 119.871 45.2174 119.379 44.8711C118.896 44.5247 118.326 44.3516 117.67 44.3516C117.023 44.3516 116.453 44.5293 115.961 44.8848C115.478 45.2311 115.095 45.7279 114.812 46.375C114.539 47.013 114.402 47.7741 114.402 48.6582V48.6719C114.402 49.556 114.539 50.3216 114.812 50.9688C115.086 51.6159 115.469 52.1172 115.961 52.4727C116.453 52.819 117.023 52.9922 117.67 52.9922ZM127.104 56V41.3438H131.096V56H127.104ZM129.1 39.457C128.498 39.457 127.992 39.252 127.582 38.8418C127.172 38.4316 126.967 37.944 126.967 37.3789C126.967 36.8047 127.172 36.3171 127.582 35.916C127.992 35.5059 128.498 35.3008 129.1 35.3008C129.701 35.3008 130.207 35.5059 130.617 35.916C131.027 36.3171 131.232 36.8047 131.232 37.3789C131.232 37.944 131.027 38.4316 130.617 38.8418C130.207 39.252 129.701 39.457 129.1 39.457ZM133.871 56V36.2715H137.863V56H133.871ZM140.652 56V36.2715H144.645V56H140.652ZM153.367 56.3008C152.018 56.3008 150.87 56.1048 149.922 55.7129C148.974 55.321 148.231 54.7786 147.693 54.0859C147.165 53.3841 146.846 52.5729 146.736 51.6523L146.723 51.5293H150.619L150.646 51.6523C150.774 52.2266 151.061 52.6732 151.508 52.9922C151.954 53.3112 152.574 53.4707 153.367 53.4707C153.878 53.4707 154.311 53.4115 154.666 53.293C155.021 53.1654 155.295 52.9876 155.486 52.7598C155.687 52.5319 155.787 52.2585 155.787 51.9395V51.9258C155.787 51.5339 155.646 51.2194 155.363 50.9824C155.081 50.7454 154.579 50.5449 153.859 50.3809L151.371 49.8613C150.423 49.6608 149.63 49.3737 148.992 49C148.363 48.6172 147.889 48.1478 147.57 47.5918C147.251 47.0267 147.092 46.3796 147.092 45.6504V45.6367C147.092 44.6979 147.342 43.8867 147.844 43.2031C148.345 42.5195 149.056 41.9909 149.977 41.6172C150.906 41.2344 151.991 41.043 153.23 41.043C154.525 41.043 155.623 41.2526 156.525 41.6719C157.437 42.082 158.134 42.638 158.617 43.3398C159.109 44.0417 159.369 44.821 159.396 45.6777V45.8145H155.719L155.705 45.7051C155.641 45.1764 155.395 44.7389 154.967 44.3926C154.548 44.0371 153.969 43.8594 153.23 43.8594C152.775 43.8594 152.378 43.9232 152.041 44.0508C151.704 44.1784 151.444 44.3607 151.262 44.5977C151.079 44.8255 150.988 45.099 150.988 45.418V45.4316C150.988 45.6777 151.048 45.901 151.166 46.1016C151.294 46.293 151.503 46.4616 151.795 46.6074C152.087 46.7533 152.479 46.8809 152.971 46.9902L155.459 47.5234C156.999 47.8424 158.102 48.321 158.768 48.959C159.442 49.597 159.779 50.4538 159.779 51.5293V51.543C159.779 52.5 159.506 53.334 158.959 54.0449C158.412 54.7559 157.656 55.3118 156.689 55.7129C155.732 56.1048 154.625 56.3008 153.367 56.3008Z" fill="#15151E"/>
<path d="M544.037 55.7129C542.497 55.7129 541.089 55.5124 539.812 55.1113C538.546 54.7012 537.452 54.0996 536.531 53.3066C535.611 52.5046 534.9 51.5065 534.398 50.3125C533.906 49.1094 533.66 47.7148 533.66 46.1289V46.1016C533.66 44.5156 533.906 43.1257 534.398 41.9316C534.9 40.7285 535.611 39.7305 536.531 38.9375C537.461 38.1354 538.559 37.5339 539.826 37.1328C541.093 36.7318 542.497 36.5312 544.037 36.5312C544.538 36.5312 545.031 36.5586 545.514 36.6133C546.006 36.6589 546.421 36.7272 546.758 36.8184V40.0996C546.43 40.0358 546.024 39.9857 545.541 39.9492C545.058 39.9128 544.607 39.8945 544.188 39.8945C543.185 39.8945 542.283 40.0221 541.48 40.2773C540.678 40.5326 539.995 40.9199 539.43 41.4395C538.865 41.9499 538.432 42.597 538.131 43.3809C537.83 44.1556 537.68 45.0671 537.68 46.1152V46.1426C537.68 47.1908 537.83 48.1022 538.131 48.877C538.432 49.6517 538.865 50.2988 539.43 50.8184C539.995 51.3288 540.678 51.7116 541.48 51.9668C542.283 52.2129 543.185 52.3359 544.188 52.3359C544.607 52.3359 545.058 52.3223 545.541 52.2949C546.024 52.2585 546.43 52.2083 546.758 52.1445V55.4258C546.421 55.5169 546.006 55.5898 545.514 55.6445C545.031 55.6901 544.538 55.7129 544.037 55.7129ZM531.336 48.6172V47.25H545.5V48.6172H531.336ZM531.336 44.9258V43.5586H545.5V44.9258H531.336ZM557.668 56.3418C556.474 56.3418 555.376 56.1322 554.373 55.7129C553.38 55.2936 552.509 54.6693 551.762 53.8398C551.023 53.0013 550.449 51.9577 550.039 50.709C549.638 49.4512 549.438 47.9837 549.438 46.3066V46.2793C549.438 44.1283 549.77 42.278 550.436 40.7285C551.101 39.179 552.049 37.9941 553.279 37.1738C554.519 36.3444 555.995 35.9297 557.709 35.9297C558.985 35.9297 560.133 36.1576 561.154 36.6133C562.175 37.0599 563.018 37.6797 563.684 38.4727C564.358 39.2656 564.791 40.168 564.982 41.1797L565.01 41.3164H560.936L560.895 41.1934C560.73 40.7923 560.498 40.446 560.197 40.1543C559.906 39.8535 559.55 39.6211 559.131 39.457C558.712 39.2839 558.233 39.1973 557.695 39.1973C556.738 39.1973 555.95 39.4753 555.33 40.0312C554.719 40.5872 554.259 41.3346 553.949 42.2734C553.639 43.2122 553.457 44.265 553.402 45.4316C553.393 45.5684 553.384 45.7051 553.375 45.8418C553.375 45.9785 553.375 46.1152 553.375 46.252L554.004 49.5332C554.004 50.1895 554.163 50.7865 554.482 51.3242C554.801 51.8529 555.234 52.2767 555.781 52.5957C556.328 52.9056 556.939 53.0605 557.613 53.0605C558.288 53.0605 558.898 52.9056 559.445 52.5957C559.992 52.2858 560.43 51.8711 560.758 51.3516C561.086 50.8229 561.25 50.235 561.25 49.5879V49.5605C561.25 48.877 561.09 48.2708 560.771 47.7422C560.462 47.2135 560.033 46.8034 559.486 46.5117C558.949 46.2109 558.338 46.0605 557.654 46.0605C556.971 46.0605 556.351 46.2109 555.795 46.5117C555.239 46.8034 554.801 47.209 554.482 47.7285C554.163 48.248 554.004 48.8405 554.004 49.5059V49.5332H553.17V46.1836H553.457C553.721 45.5729 554.104 45.0306 554.605 44.5566C555.116 44.0827 555.727 43.709 556.438 43.4355C557.158 43.153 557.96 43.0117 558.844 43.0117C560.12 43.0117 561.236 43.2897 562.193 43.8457C563.16 44.3926 563.911 45.1491 564.449 46.1152C564.996 47.0814 565.27 48.1797 565.27 49.4102V49.4375C565.27 50.7865 564.941 51.9805 564.285 53.0195C563.629 54.0495 562.727 54.8607 561.578 55.4531C560.439 56.0456 559.135 56.3418 557.668 56.3418ZM567.977 56V53.1699L574.949 46.6484C575.806 45.8555 576.453 45.1947 576.891 44.666C577.328 44.1374 577.624 43.6634 577.779 43.2441C577.943 42.8249 578.025 42.3874 578.025 41.9316V41.9043C578.025 41.3665 577.898 40.8926 577.643 40.4824C577.387 40.0632 577.032 39.735 576.576 39.498C576.13 39.2611 575.615 39.1426 575.031 39.1426C574.357 39.1426 573.764 39.2793 573.254 39.5527C572.743 39.8171 572.342 40.1862 572.051 40.6602C571.759 41.125 571.604 41.6536 571.586 42.2461L571.572 42.3691H567.744V42.2598C567.744 41.0202 568.059 39.9264 568.688 38.9785C569.316 38.0215 570.178 37.2741 571.271 36.7363C572.374 36.1986 573.618 35.9297 575.004 35.9297C576.398 35.9297 577.624 36.1758 578.682 36.668C579.739 37.151 580.564 37.8255 581.156 38.6914C581.749 39.5573 582.045 40.5508 582.045 41.6719V41.6992C582.045 42.4922 581.899 43.2305 581.607 43.9141C581.325 44.5885 580.855 45.3086 580.199 46.0742C579.543 46.8307 578.645 47.7331 577.506 48.7812L571.791 53.9902L573.377 51.2148V53.9902L571.805 52.7188H582.318V56H567.977ZM589.811 56V40.0586H589.729L584.697 43.4766V39.8125L589.797 36.2715H593.898V56H589.811ZM607.734 56V52.377H597.918V48.9316C598.447 48.0931 598.975 47.25 599.504 46.4023C600.033 45.5547 600.561 44.7116 601.09 43.873C601.618 43.0254 602.143 42.1823 602.662 41.3438C603.191 40.4961 603.719 39.6484 604.248 38.8008C604.777 37.9531 605.305 37.11 605.834 36.2715H611.658V49.082H614.256V52.377H611.658V56H607.734ZM601.514 49.1914H607.816V39.252H607.721C607.301 39.9082 606.887 40.5645 606.477 41.2207C606.066 41.877 605.652 42.5332 605.232 43.1895C604.822 43.8366 604.408 44.4928 603.988 45.1582C603.578 45.8145 603.163 46.4707 602.744 47.127C602.334 47.7741 601.924 48.4258 601.514 49.082V49.1914ZM618.439 56.2324C617.82 56.2324 617.296 56.0182 616.867 55.5898C616.439 55.1615 616.225 54.6374 616.225 54.0176C616.225 53.3978 616.439 52.8737 616.867 52.4453C617.296 52.0169 617.82 51.8027 618.439 51.8027C619.059 51.8027 619.583 52.0169 620.012 52.4453C620.44 52.8737 620.654 53.3978 620.654 54.0176C620.654 54.6374 620.44 55.1615 620.012 55.5898C619.583 56.0182 619.059 56.2324 618.439 56.2324ZM630.908 56.3418C629.34 56.3418 627.96 56.1003 626.766 55.6172C625.572 55.1341 624.637 54.4642 623.963 53.6074C623.288 52.7415 622.951 51.7435 622.951 50.6133V50.5859C622.951 49.7292 623.147 48.959 623.539 48.2754C623.931 47.5918 624.469 47.0221 625.152 46.5664C625.836 46.1107 626.62 45.7962 627.504 45.623V45.541C626.365 45.2585 625.439 44.7344 624.729 43.9688C624.027 43.194 623.676 42.278 623.676 41.2207V41.1934C623.676 40.1725 623.981 39.2702 624.592 38.4863C625.202 37.6934 626.05 37.069 627.135 36.6133C628.229 36.1576 629.486 35.9297 630.908 35.9297C632.33 35.9297 633.583 36.1576 634.668 36.6133C635.753 37.069 636.6 37.6934 637.211 38.4863C637.831 39.2702 638.141 40.1725 638.141 41.1934V41.2207C638.141 42.278 637.785 43.194 637.074 43.9688C636.372 44.7344 635.452 45.2585 634.312 45.541V45.623C635.197 45.7962 635.98 46.1107 636.664 46.5664C637.348 47.0221 637.881 47.5918 638.264 48.2754C638.656 48.959 638.852 49.7292 638.852 50.5859V50.6133C638.852 51.7435 638.514 52.7415 637.84 53.6074C637.174 54.4642 636.245 55.1341 635.051 55.6172C633.857 56.1003 632.476 56.3418 630.908 56.3418ZM630.908 53.334C631.628 53.334 632.262 53.2064 632.809 52.9512C633.355 52.696 633.784 52.3405 634.094 51.8848C634.413 51.429 634.572 50.9141 634.572 50.3398V50.3125C634.572 49.7292 634.417 49.2096 634.107 48.7539C633.798 48.2982 633.365 47.9427 632.809 47.6875C632.262 47.4232 631.628 47.291 630.908 47.291C630.179 47.291 629.536 47.4232 628.98 47.6875C628.434 47.9427 628.005 48.2982 627.695 48.7539C627.385 49.2096 627.23 49.7292 627.23 50.3125V50.3398C627.23 50.9141 627.385 51.429 627.695 51.8848C628.014 52.3405 628.447 52.696 628.994 52.9512C629.55 53.2064 630.188 53.334 630.908 53.334ZM630.908 44.2969C631.528 44.2969 632.075 44.1829 632.549 43.9551C633.023 43.7272 633.392 43.4128 633.656 43.0117C633.921 42.6016 634.053 42.1322 634.053 41.6035V41.5762C634.053 41.0475 633.916 40.5827 633.643 40.1816C633.378 39.7806 633.009 39.4707 632.535 39.252C632.061 39.0241 631.519 38.9102 630.908 38.9102C630.288 38.9102 629.742 39.0241 629.268 39.252C628.794 39.4707 628.42 39.7806 628.146 40.1816C627.882 40.5827 627.75 41.0475 627.75 41.5762V41.6035C627.75 42.1322 627.882 42.6016 628.146 43.0117C628.42 43.4128 628.794 43.7272 629.268 43.9551C629.742 44.1829 630.288 44.2969 630.908 44.2969Z" fill="#15151E"/>
<path d="M40 80H640" stroke="#E8E8ED" stroke-width="1.5"/>
<path d="M115 192C138.196 192 157 173.196 157 150C157 126.804 138.196 108 115 108C91.804 108 73 126.804 73 150C73 173.196 91.804 192 115 192Z" fill="#EFF1F4" stroke="#3B6FF5" stroke-width="3"/>
<path d="M105.934 162V158.563L114.4 150.645C115.441 149.682 116.227 148.879 116.758 148.237C117.289 147.595 117.649 147.02 117.837 146.511C118.036 146.002 118.136 145.47 118.136 144.917V144.884C118.136 144.231 117.981 143.655 117.671 143.157C117.361 142.648 116.929 142.25 116.376 141.962C115.834 141.674 115.208 141.53 114.5 141.53C113.681 141.53 112.962 141.696 112.342 142.028C111.722 142.349 111.235 142.798 110.881 143.373C110.527 143.938 110.339 144.579 110.316 145.299L110.3 145.448H105.651V145.315C105.651 143.81 106.033 142.482 106.797 141.331C107.561 140.169 108.606 139.261 109.935 138.608C111.274 137.955 112.785 137.629 114.467 137.629C116.16 137.629 117.649 137.928 118.933 138.525C120.216 139.112 121.218 139.931 121.938 140.982C122.657 142.034 123.017 143.24 123.017 144.602V144.635C123.017 145.598 122.84 146.494 122.485 147.324C122.142 148.143 121.572 149.018 120.775 149.947C119.979 150.866 118.888 151.962 117.505 153.234L110.565 159.56L112.491 156.189V159.56L110.582 158.016H123.349V162H105.934Z" fill="#3B6FF5"/>
<path d="M89.6318 221V208.757H85.2534V206.204H97.1069V208.757H92.7285V221H89.6318ZM102.06 221.236C100.925 221.236 99.9438 221.003 99.1167 220.539C98.2896 220.074 97.6538 219.407 97.2095 218.539C96.7651 217.671 96.543 216.632 96.543 215.422V215.401C96.543 214.198 96.7686 213.163 97.2197 212.294C97.6709 211.426 98.3066 210.76 99.127 210.295C99.9541 209.823 100.932 209.587 102.06 209.587C103.194 209.587 104.172 209.82 104.992 210.285C105.819 210.75 106.458 211.416 106.91 212.284C107.361 213.152 107.586 214.191 107.586 215.401V215.422C107.586 216.632 107.361 217.671 106.91 218.539C106.465 219.407 105.83 220.074 105.002 220.539C104.182 221.003 103.201 221.236 102.06 221.236ZM102.07 218.888C102.583 218.888 103.02 218.751 103.382 218.478C103.751 218.204 104.032 217.811 104.223 217.298C104.421 216.779 104.521 216.153 104.521 215.422V215.401C104.521 214.67 104.421 214.048 104.223 213.535C104.025 213.022 103.741 212.629 103.372 212.356C103.01 212.076 102.572 211.936 102.06 211.936C101.554 211.936 101.116 212.076 100.747 212.356C100.378 212.629 100.094 213.022 99.896 213.535C99.6978 214.048 99.5986 214.67 99.5986 215.401V215.422C99.5986 216.153 99.6943 216.779 99.8857 217.298C100.084 217.811 100.368 218.204 100.737 218.478C101.106 218.751 101.55 218.888 102.07 218.888ZM113.718 221.195C112.789 221.195 111.982 220.962 111.298 220.498C110.615 220.033 110.088 219.37 109.719 218.508C109.357 217.647 109.176 216.618 109.176 215.422V215.401C109.176 214.198 109.357 213.166 109.719 212.305C110.088 211.443 110.611 210.784 111.288 210.326C111.965 209.861 112.775 209.628 113.718 209.628C114.231 209.628 114.706 209.71 115.144 209.875C115.588 210.039 115.974 210.274 116.302 210.582C116.637 210.883 116.9 211.245 117.092 211.669H117.235V205.701H120.229V221H117.235V219.206H117.092C116.9 219.623 116.641 219.978 116.312 220.272C115.991 220.566 115.612 220.795 115.174 220.959C114.737 221.116 114.251 221.195 113.718 221.195ZM114.723 218.713C115.243 218.713 115.69 218.583 116.066 218.324C116.442 218.057 116.733 217.678 116.938 217.186C117.15 216.687 117.256 216.099 117.256 215.422V215.412C117.256 214.728 117.15 214.14 116.938 213.648C116.733 213.156 116.439 212.776 116.056 212.51C115.68 212.243 115.236 212.11 114.723 212.11C114.217 212.11 113.773 212.243 113.39 212.51C113.014 212.77 112.724 213.146 112.519 213.638C112.32 214.13 112.221 214.718 112.221 215.401V215.422C112.221 216.099 112.32 216.687 112.519 217.186C112.724 217.678 113.014 218.057 113.39 218.324C113.766 218.583 114.21 218.713 114.723 218.713ZM126.054 221.174C125.329 221.174 124.69 221.034 124.136 220.754C123.583 220.474 123.148 220.081 122.834 219.575C122.52 219.069 122.362 218.481 122.362 217.811V217.791C122.362 217.121 122.53 216.546 122.865 216.068C123.207 215.583 123.699 215.203 124.341 214.93C124.991 214.649 125.78 214.482 126.71 214.427L130.935 214.171V216.006L127.151 216.252C126.536 216.287 126.071 216.423 125.756 216.663C125.449 216.902 125.295 217.223 125.295 217.626V217.647C125.295 218.064 125.456 218.392 125.777 218.631C126.105 218.871 126.525 218.99 127.038 218.99C127.496 218.99 127.903 218.901 128.258 218.724C128.621 218.539 128.904 218.293 129.109 217.985C129.321 217.671 129.427 217.319 129.427 216.929V213.433C129.427 212.94 129.267 212.561 128.945 212.294C128.631 212.021 128.169 211.884 127.561 211.884C127.014 211.884 126.573 211.983 126.238 212.182C125.903 212.38 125.685 212.653 125.582 213.002L125.572 213.063H122.813L122.824 212.951C122.892 212.281 123.131 211.696 123.542 211.197C123.952 210.691 124.509 210.298 125.213 210.018C125.924 209.731 126.758 209.587 127.715 209.587C128.692 209.587 129.53 209.741 130.227 210.049C130.924 210.35 131.458 210.784 131.827 211.351C132.203 211.912 132.391 212.582 132.391 213.361V221H129.427V219.452H129.284C129.092 219.807 128.836 220.115 128.515 220.375C128.193 220.634 127.824 220.833 127.407 220.969C126.99 221.106 126.539 221.174 126.054 221.174ZM136.215 224.845C135.997 224.845 135.778 224.838 135.559 224.825C135.347 224.811 135.152 224.794 134.975 224.773V222.528C135.077 222.548 135.204 222.562 135.354 222.569C135.504 222.583 135.665 222.589 135.836 222.589C136.335 222.589 136.731 222.494 137.025 222.302C137.319 222.118 137.524 221.82 137.641 221.41L137.753 221L133.816 209.823H137.107L139.722 219.359L139.148 218.396H139.917L139.353 219.359L141.968 209.823H145.126L141.312 221.072C140.997 222.015 140.611 222.76 140.153 223.307C139.702 223.861 139.155 224.254 138.512 224.486C137.87 224.726 137.104 224.845 136.215 224.845Z" fill="#15151E"/>
<path d="M99.8291 249.815C98.9678 249.815 98.1562 249.692 97.3945 249.446C96.6328 249.2 95.959 248.825 95.373 248.321C94.793 247.817 94.3359 247.179 94.002 246.405C93.668 245.632 93.501 244.718 93.501 243.663V243.646C93.501 242.591 93.668 241.677 94.002 240.903C94.3359 240.13 94.7959 239.491 95.3818 238.987C95.9678 238.483 96.6416 238.111 97.4033 237.871C98.165 237.625 98.9736 237.502 99.8291 237.502C100.157 237.502 100.506 237.52 100.875 237.555C101.25 237.584 101.528 237.631 101.71 237.695V239.119C101.517 239.072 101.235 239.034 100.866 239.005C100.503 238.976 100.157 238.961 99.8291 238.961C99.1553 238.961 98.5312 239.055 97.957 239.242C97.3828 239.43 96.8848 239.717 96.4629 240.104C96.041 240.49 95.7129 240.979 95.4785 241.571C95.2441 242.163 95.127 242.863 95.127 243.672V243.689C95.127 244.492 95.2441 245.187 95.4785 245.772C95.7188 246.358 96.0498 246.845 96.4717 247.231C96.8936 247.612 97.3887 247.896 97.957 248.084C98.5312 248.266 99.1553 248.356 99.8291 248.356C100.157 248.356 100.503 248.345 100.866 248.321C101.235 248.298 101.517 248.257 101.71 248.198V249.622C101.528 249.687 101.25 249.736 100.875 249.771C100.506 249.801 100.157 249.815 99.8291 249.815ZM91.7959 245.438V244.384H100.11V245.438H91.7959ZM91.7959 242.89V241.835H100.11V242.89H91.7959ZM103.819 250V248.91L108.117 244.27C108.656 243.684 109.078 243.2 109.383 242.819C109.688 242.433 109.901 242.084 110.024 241.773C110.147 241.463 110.209 241.123 110.209 240.754V240.736C110.209 240.291 110.112 239.893 109.919 239.541C109.726 239.189 109.45 238.911 109.093 238.706C108.735 238.501 108.308 238.398 107.81 238.398C107.306 238.398 106.86 238.504 106.474 238.715C106.093 238.926 105.797 239.219 105.586 239.594C105.375 239.963 105.27 240.394 105.27 240.886L105.261 240.903L103.749 240.895L103.731 240.886C103.737 240.136 103.919 239.471 104.276 238.891C104.634 238.305 105.126 237.848 105.753 237.52C106.386 237.186 107.106 237.019 107.915 237.019C108.653 237.019 109.318 237.174 109.91 237.484C110.502 237.789 110.968 238.208 111.308 238.741C111.653 239.274 111.826 239.884 111.826 240.569V240.587C111.826 241.067 111.741 241.53 111.571 241.976C111.407 242.421 111.114 242.916 110.692 243.461C110.271 244 109.676 244.665 108.908 245.456L105.621 248.849L106.017 248.11V248.849L105.621 248.576H112.037V250H103.819ZM120.202 250V247.372H114.015V245.931C114.36 245.356 114.712 244.776 115.069 244.19C115.433 243.599 115.796 243.01 116.159 242.424C116.528 241.832 116.897 241.249 117.267 240.675C117.636 240.095 118.002 239.523 118.365 238.961C118.734 238.393 119.098 237.845 119.455 237.317H121.749V245.957H123.551V247.372H121.749V250H120.202ZM115.632 245.966H120.211V238.776H120.105C119.818 239.21 119.525 239.658 119.227 240.121C118.928 240.578 118.623 241.047 118.312 241.527C118.008 242.008 117.703 242.491 117.398 242.978C117.094 243.464 116.792 243.95 116.493 244.437C116.194 244.917 115.907 245.392 115.632 245.86V245.966ZM126.609 250.088C126.299 250.088 126.032 249.977 125.81 249.754C125.587 249.531 125.476 249.265 125.476 248.954C125.476 248.638 125.587 248.371 125.81 248.154C126.032 247.932 126.299 247.82 126.609 247.82C126.926 247.82 127.192 247.932 127.409 248.154C127.632 248.371 127.743 248.638 127.743 248.954C127.743 249.265 127.632 249.531 127.409 249.754C127.192 249.977 126.926 250.088 126.609 250.088ZM134.229 250.299C133.292 250.299 132.489 250.029 131.821 249.49C131.153 248.951 130.641 248.187 130.283 247.196C129.926 246.2 129.747 245.022 129.747 243.663V243.646C129.747 242.286 129.926 241.111 130.283 240.121C130.641 239.131 131.153 238.366 131.821 237.827C132.489 237.288 133.292 237.019 134.229 237.019C135.167 237.019 135.97 237.288 136.638 237.827C137.312 238.366 137.827 239.131 138.185 240.121C138.548 241.111 138.729 242.286 138.729 243.646V243.663C138.729 245.022 138.548 246.2 138.185 247.196C137.827 248.187 137.312 248.951 136.638 249.49C135.97 250.029 135.167 250.299 134.229 250.299ZM134.229 248.919C134.839 248.919 135.36 248.705 135.794 248.277C136.228 247.85 136.559 247.243 136.787 246.458C137.021 245.673 137.139 244.741 137.139 243.663V243.646C137.139 242.567 137.021 241.639 136.787 240.859C136.559 240.074 136.228 239.471 135.794 239.049C135.36 238.621 134.839 238.407 134.229 238.407C133.626 238.407 133.107 238.621 132.674 239.049C132.24 239.471 131.909 240.074 131.681 240.859C131.452 241.639 131.338 242.567 131.338 243.646V243.663C131.338 244.741 131.452 245.673 131.681 246.458C131.909 247.243 132.24 247.85 132.674 248.277C133.107 248.705 133.626 248.919 134.229 248.919Z" fill="#6B6B76"/>
<path d="M265 192C288.196 192 307 173.196 307 150C307 126.804 288.196 108 265 108C241.804 108 223 126.804 223 150C223 173.196 241.804 192 265 192Z" fill="#EFF1F4" stroke="#F5C518" stroke-width="3"/>
<path d="M247.766 163V159.563L256.232 151.645C257.273 150.682 258.059 149.879 258.59 149.237C259.121 148.595 259.481 148.02 259.669 147.511C259.868 147.002 259.968 146.47 259.968 145.917V145.884C259.968 145.231 259.813 144.655 259.503 144.157C259.193 143.648 258.761 143.25 258.208 142.962C257.666 142.674 257.04 142.53 256.332 142.53C255.513 142.53 254.794 142.696 254.174 143.028C253.554 143.349 253.067 143.798 252.713 144.373C252.359 144.938 252.171 145.579 252.148 146.299L252.132 146.448H247.483V146.315C247.483 144.81 247.865 143.482 248.629 142.331C249.393 141.169 250.438 140.261 251.767 139.608C253.106 138.955 254.617 138.629 256.299 138.629C257.992 138.629 259.481 138.928 260.765 139.525C262.049 140.112 263.05 140.931 263.77 141.982C264.489 143.034 264.849 144.24 264.849 145.602V145.635C264.849 146.598 264.672 147.494 264.317 148.324C263.974 149.143 263.404 150.018 262.607 150.947C261.811 151.866 260.72 152.962 259.337 154.234L252.397 160.56L254.323 157.189V160.56L252.414 159.016H265.181V163H247.766ZM274.278 163V143.643H274.179L268.069 147.793V143.344L274.262 139.044H279.242V163H274.278Z" fill="#F5C518"/>
<path d="M225.061 221V206.204H228.619L232.751 216.96H232.885L237.017 206.204H240.575V221H237.817V210.951H236.33L239.334 206.614L233.787 221H231.849L226.302 206.614L229.306 210.951H227.819V221H225.061ZM248.481 221.236C247.346 221.236 246.365 221.003 245.538 220.539C244.711 220.074 244.075 219.407 243.631 218.539C243.187 217.671 242.964 216.632 242.964 215.422V215.401C242.964 214.198 243.19 213.163 243.641 212.294C244.092 211.426 244.728 210.76 245.548 210.295C246.375 209.823 247.353 209.587 248.481 209.587C249.616 209.587 250.593 209.82 251.414 210.285C252.241 210.75 252.88 211.416 253.331 212.284C253.782 213.152 254.008 214.191 254.008 215.401V215.422C254.008 216.632 253.782 217.671 253.331 218.539C252.887 219.407 252.251 220.074 251.424 220.539C250.604 221.003 249.623 221.236 248.481 221.236ZM248.491 218.888C249.004 218.888 249.441 218.751 249.804 218.478C250.173 218.204 250.453 217.811 250.645 217.298C250.843 216.779 250.942 216.153 250.942 215.422V215.401C250.942 214.67 250.843 214.048 250.645 213.535C250.446 213.022 250.163 212.629 249.793 212.356C249.431 212.076 248.994 211.936 248.481 211.936C247.975 211.936 247.538 212.076 247.168 212.356C246.799 212.629 246.516 213.022 246.317 213.535C246.119 214.048 246.02 214.67 246.02 215.401V215.422C246.02 216.153 246.116 216.779 246.307 217.298C246.505 217.811 246.789 218.204 247.158 218.478C247.527 218.751 247.972 218.888 248.491 218.888ZM256.1 221V209.823H259.094V211.597H259.227C259.494 210.975 259.904 210.486 260.458 210.131C261.011 209.769 261.695 209.587 262.508 209.587C263.746 209.587 264.692 209.957 265.349 210.695C266.012 211.426 266.343 212.455 266.343 213.781V221H263.349V214.438C263.349 213.665 263.182 213.077 262.847 212.674C262.512 212.271 261.996 212.069 261.298 212.069C260.847 212.069 260.454 212.175 260.119 212.387C259.791 212.592 259.538 212.879 259.36 213.248C259.183 213.617 259.094 214.051 259.094 214.55V221H256.1ZM273.418 221.113C272.106 221.113 271.149 220.867 270.547 220.375C269.953 219.882 269.655 219.072 269.655 217.944V212.079H268.004V209.823H269.655V207.137H272.68V209.823H274.895V212.079H272.68V217.391C272.68 217.903 272.793 218.272 273.019 218.498C273.251 218.717 273.613 218.826 274.105 218.826C274.27 218.826 274.41 218.823 274.526 218.816C274.649 218.802 274.772 218.789 274.895 218.775V220.99C274.717 221.024 274.499 221.051 274.239 221.072C273.986 221.099 273.712 221.113 273.418 221.113ZM277.141 221V205.701H280.135V211.628H280.278C280.545 210.985 280.955 210.486 281.509 210.131C282.069 209.769 282.756 209.587 283.57 209.587C284.39 209.587 285.087 209.758 285.662 210.1C286.236 210.435 286.673 210.92 286.974 211.556C287.275 212.192 287.425 212.958 287.425 213.853V221H284.431V214.509C284.431 213.723 284.257 213.122 283.908 212.705C283.56 212.281 283.037 212.069 282.339 212.069C281.888 212.069 281.499 212.175 281.17 212.387C280.842 212.592 280.586 212.882 280.401 213.258C280.224 213.627 280.135 214.062 280.135 214.561V221H277.141ZM290.04 221V205.701H293.034V221H290.04ZM297.218 224.845C296.999 224.845 296.78 224.838 296.562 224.825C296.35 224.811 296.155 224.794 295.977 224.773V222.528C296.08 222.548 296.206 222.562 296.356 222.569C296.507 222.583 296.667 222.589 296.838 222.589C297.337 222.589 297.734 222.494 298.028 222.302C298.322 222.118 298.527 221.82 298.643 221.41L298.756 221L294.818 209.823H298.11L300.725 219.359L300.15 218.396H300.919L300.355 219.359L302.97 209.823H306.128L302.314 221.072C302 222.015 301.613 222.76 301.155 223.307C300.704 223.861 300.157 224.254 299.515 224.486C298.872 224.726 298.106 224.845 297.218 224.845Z" fill="#15151E"/>
<path d="M239.195 249.815C238.334 249.815 237.522 249.692 236.761 249.446C235.999 249.2 235.325 248.825 234.739 248.321C234.159 247.817 233.702 247.179 233.368 246.405C233.034 245.632 232.867 244.718 232.867 243.663V243.646C232.867 242.591 233.034 241.677 233.368 240.903C233.702 240.13 234.162 239.491 234.748 238.987C235.334 238.483 236.008 238.111 236.77 237.871C237.531 237.625 238.34 237.502 239.195 237.502C239.523 237.502 239.872 237.52 240.241 237.555C240.616 237.584 240.895 237.631 241.076 237.695V239.119C240.883 239.072 240.602 239.034 240.232 239.005C239.869 238.976 239.523 238.961 239.195 238.961C238.521 238.961 237.897 239.055 237.323 239.242C236.749 239.43 236.251 239.717 235.829 240.104C235.407 240.49 235.079 240.979 234.845 241.571C234.61 242.163 234.493 242.863 234.493 243.672V243.689C234.493 244.492 234.61 245.187 234.845 245.772C235.085 246.358 235.416 246.845 235.838 247.231C236.26 247.612 236.755 247.896 237.323 248.084C237.897 248.266 238.521 248.356 239.195 248.356C239.523 248.356 239.869 248.345 240.232 248.321C240.602 248.298 240.883 248.257 241.076 248.198V249.622C240.895 249.687 240.616 249.736 240.241 249.771C239.872 249.801 239.523 249.815 239.195 249.815ZM231.162 245.438V244.384H239.477V245.438H231.162ZM231.162 242.89V241.835H239.477V242.89H231.162ZM247.677 250.299C247.097 250.299 246.522 250.188 245.954 249.965C245.386 249.742 244.87 249.382 244.407 248.884C243.95 248.386 243.584 247.729 243.309 246.915C243.033 246.095 242.896 245.087 242.896 243.892V243.874C242.896 242.433 243.089 241.202 243.476 240.183C243.862 239.157 244.419 238.375 245.146 237.836C245.878 237.291 246.757 237.019 247.782 237.019C248.491 237.019 249.13 237.15 249.698 237.414C250.272 237.672 250.75 238.035 251.131 238.504C251.518 238.967 251.781 239.512 251.922 240.139L251.948 240.253H250.357L250.322 240.156C250.193 239.799 250.009 239.494 249.769 239.242C249.534 238.984 249.247 238.785 248.907 238.645C248.573 238.504 248.192 238.434 247.765 238.434C246.991 238.434 246.364 238.659 245.884 239.11C245.403 239.556 245.046 240.15 244.812 240.895C244.583 241.639 244.451 242.453 244.416 243.338C244.41 243.414 244.407 243.49 244.407 243.566C244.407 243.643 244.407 243.722 244.407 243.804L244.785 245.913C244.785 246.47 244.911 246.974 245.163 247.425C245.421 247.876 245.767 248.236 246.2 248.506C246.64 248.77 247.126 248.901 247.659 248.901C248.192 248.901 248.676 248.772 249.109 248.515C249.543 248.251 249.886 247.896 250.138 247.451C250.396 247.006 250.524 246.511 250.524 245.966V245.948C250.524 245.386 250.401 244.888 250.155 244.454C249.915 244.015 249.581 243.672 249.153 243.426C248.726 243.174 248.236 243.048 247.686 243.048C247.141 243.048 246.648 243.171 246.209 243.417C245.77 243.663 245.421 244.003 245.163 244.437C244.911 244.864 244.785 245.354 244.785 245.904V245.913H244.267V243.637H244.574C244.732 243.285 244.967 242.96 245.277 242.661C245.588 242.362 245.969 242.122 246.42 241.94C246.877 241.759 247.39 241.668 247.958 241.668C248.755 241.668 249.467 241.853 250.094 242.222C250.721 242.591 251.213 243.095 251.57 243.733C251.934 244.372 252.115 245.099 252.115 245.913V245.931C252.115 246.774 251.922 247.524 251.535 248.181C251.154 248.837 250.63 249.355 249.962 249.736C249.294 250.111 248.532 250.299 247.677 250.299ZM254.629 250V248.91L258.927 244.27C259.466 243.684 259.888 243.2 260.192 242.819C260.497 242.433 260.711 242.084 260.834 241.773C260.957 241.463 261.019 241.123 261.019 240.754V240.736C261.019 240.291 260.922 239.893 260.729 239.541C260.535 239.189 260.26 238.911 259.902 238.706C259.545 238.501 259.117 238.398 258.619 238.398C258.115 238.398 257.67 238.504 257.283 238.715C256.902 238.926 256.606 239.219 256.396 239.594C256.185 239.963 256.079 240.394 256.079 240.886L256.07 240.903L254.559 240.895L254.541 240.886C254.547 240.136 254.729 239.471 255.086 238.891C255.443 238.305 255.936 237.848 256.562 237.52C257.195 237.186 257.916 237.019 258.725 237.019C259.463 237.019 260.128 237.174 260.72 237.484C261.312 237.789 261.777 238.208 262.117 238.741C262.463 239.274 262.636 239.884 262.636 240.569V240.587C262.636 241.067 262.551 241.53 262.381 241.976C262.217 242.421 261.924 242.916 261.502 243.461C261.08 244 260.485 244.665 259.718 245.456L256.431 248.849L256.826 248.11V248.849L256.431 248.576H262.847V250H254.629ZM268.586 250V239.075H268.445L265.22 241.413V239.743L268.595 237.317H270.159V250H268.586ZM279.607 250V247.372H273.42V245.931C273.766 245.356 274.117 244.776 274.475 244.19C274.838 243.599 275.201 243.01 275.564 242.424C275.934 241.832 276.303 241.249 276.672 240.675C277.041 240.095 277.407 239.523 277.771 238.961C278.14 238.393 278.503 237.845 278.86 237.317H281.154V245.957H282.956V247.372H281.154V250H279.607ZM275.037 245.966H279.616V238.776H279.511C279.224 239.21 278.931 239.658 278.632 240.121C278.333 240.578 278.028 241.047 277.718 241.527C277.413 242.008 277.108 242.491 276.804 242.978C276.499 243.464 276.197 243.95 275.898 244.437C275.6 244.917 275.312 245.392 275.037 245.86V245.966ZM286.015 250.088C285.704 250.088 285.438 249.977 285.215 249.754C284.992 249.531 284.881 249.265 284.881 248.954C284.881 248.638 284.992 248.371 285.215 248.154C285.438 247.932 285.704 247.82 286.015 247.82C286.331 247.82 286.598 247.932 286.814 248.154C287.037 248.371 287.148 248.638 287.148 248.954C287.148 249.265 287.037 249.531 286.814 249.754C286.598 249.977 286.331 250.088 286.015 250.088ZM293.802 250.211C292.905 250.211 292.111 250.056 291.42 249.745C290.729 249.435 290.184 249.007 289.785 248.462C289.393 247.911 289.196 247.281 289.196 246.572V246.555C289.196 246.033 289.311 245.55 289.539 245.104C289.768 244.659 290.087 244.281 290.497 243.971C290.907 243.654 291.382 243.435 291.921 243.312V243.276C291.229 243.06 290.679 242.702 290.269 242.204C289.858 241.706 289.653 241.123 289.653 240.455V240.438C289.653 239.799 289.832 239.23 290.189 238.732C290.547 238.229 291.039 237.833 291.666 237.546C292.293 237.253 293.005 237.106 293.802 237.106C294.604 237.106 295.316 237.253 295.938 237.546C296.564 237.833 297.057 238.229 297.414 238.732C297.771 239.23 297.95 239.799 297.95 240.438V240.455C297.95 241.123 297.745 241.706 297.335 242.204C296.931 242.702 296.38 243.06 295.683 243.276V243.312C296.228 243.435 296.702 243.654 297.106 243.971C297.517 244.281 297.836 244.659 298.064 245.104C298.293 245.55 298.407 246.033 298.407 246.555V246.572C298.407 247.281 298.211 247.911 297.818 248.462C297.426 249.007 296.881 249.435 296.184 249.745C295.492 250.056 294.698 250.211 293.802 250.211ZM293.802 248.831C294.388 248.831 294.903 248.731 295.349 248.532C295.8 248.327 296.154 248.049 296.412 247.697C296.67 247.34 296.799 246.933 296.799 246.476V246.458C296.799 245.995 296.67 245.585 296.412 245.228C296.16 244.87 295.809 244.589 295.357 244.384C294.906 244.179 294.388 244.076 293.802 244.076C293.216 244.076 292.697 244.179 292.246 244.384C291.795 244.589 291.44 244.87 291.183 245.228C290.931 245.585 290.805 245.995 290.805 246.458V246.476C290.805 246.933 290.934 247.34 291.191 247.697C291.449 248.049 291.804 248.327 292.255 248.532C292.706 248.731 293.222 248.831 293.802 248.831ZM293.802 242.688C294.312 242.688 294.76 242.6 295.146 242.424C295.533 242.242 295.835 241.993 296.052 241.677C296.269 241.36 296.377 240.997 296.377 240.587V240.569C296.377 240.159 296.269 239.796 296.052 239.479C295.835 239.163 295.533 238.917 295.146 238.741C294.76 238.56 294.312 238.469 293.802 238.469C293.292 238.469 292.844 238.56 292.457 238.741C292.07 238.917 291.769 239.163 291.552 239.479C291.335 239.796 291.227 240.159 291.227 240.569V240.587C291.227 240.997 291.335 241.36 291.552 241.677C291.769 241.993 292.07 242.242 292.457 242.424C292.844 242.6 293.292 242.688 293.802 242.688Z" fill="#6B6B76"/>
<path d="M415 192C438.196 192 457 173.196 457 150C457 126.804 438.196 108 415 108C391.804 108 373 126.804 373 150C373 173.196 391.804 192 415 192Z" fill="#EFF1F4" stroke="#F2784B" stroke-width="3"/>
<path d="M395.877 163V159.563L404.344 151.645C405.384 150.682 406.17 149.879 406.701 149.237C407.232 148.595 407.592 148.02 407.78 147.511C407.979 147.002 408.079 146.47 408.079 145.917V145.884C408.079 145.231 407.924 144.655 407.614 144.157C407.304 143.648 406.873 143.25 406.319 142.962C405.777 142.674 405.152 142.53 404.443 142.53C403.624 142.53 402.905 142.696 402.285 143.028C401.665 143.349 401.178 143.798 400.824 144.373C400.47 144.938 400.282 145.579 400.26 146.299L400.243 146.448H395.595V146.315C395.595 144.81 395.977 143.482 396.74 142.331C397.504 141.169 398.55 140.261 399.878 139.608C401.217 138.955 402.728 138.629 404.41 138.629C406.104 138.629 407.592 138.928 408.876 139.525C410.16 140.112 411.161 140.931 411.881 141.982C412.6 143.034 412.96 144.24 412.96 145.602V145.635C412.96 146.598 412.783 147.494 412.429 148.324C412.086 149.143 411.516 150.018 410.719 150.947C409.922 151.866 408.832 152.962 407.448 154.234L400.509 160.56L402.435 157.189V160.56L400.525 159.016H413.292V163H395.877ZM425.992 163.415C424.542 163.415 423.209 163.16 421.991 162.651C420.785 162.142 419.728 161.384 418.82 160.377C417.924 159.359 417.227 158.091 416.729 156.575C416.242 155.048 415.998 153.266 415.998 151.229V151.196C415.998 148.584 416.402 146.338 417.21 144.456C418.018 142.575 419.169 141.136 420.663 140.14C422.168 139.132 423.961 138.629 426.042 138.629C427.591 138.629 428.986 138.906 430.226 139.459C431.465 140.001 432.489 140.754 433.297 141.717C434.116 142.68 434.642 143.775 434.874 145.004L434.907 145.17H429.96L429.91 145.021C429.711 144.534 429.429 144.113 429.063 143.759C428.709 143.394 428.278 143.111 427.769 142.912C427.259 142.702 426.678 142.597 426.025 142.597C424.863 142.597 423.906 142.934 423.153 143.609C422.412 144.285 421.853 145.192 421.477 146.332C421.1 147.472 420.879 148.75 420.812 150.167C420.801 150.333 420.79 150.499 420.779 150.665C420.779 150.831 420.779 150.997 420.779 151.163L421.543 155.147C421.543 155.944 421.737 156.669 422.124 157.322C422.511 157.964 423.037 158.479 423.701 158.866C424.365 159.243 425.107 159.431 425.926 159.431C426.745 159.431 427.486 159.243 428.15 158.866C428.814 158.49 429.346 157.986 429.744 157.355C430.143 156.714 430.342 156 430.342 155.214V155.181C430.342 154.351 430.148 153.615 429.761 152.973C429.384 152.331 428.864 151.833 428.2 151.479C427.547 151.113 426.806 150.931 425.976 150.931C425.146 150.931 424.393 151.113 423.718 151.479C423.043 151.833 422.511 152.325 422.124 152.956C421.737 153.587 421.543 154.306 421.543 155.114V155.147H420.53V151.08H420.879C421.2 150.339 421.665 149.68 422.273 149.104C422.893 148.529 423.635 148.075 424.498 147.743C425.372 147.4 426.346 147.229 427.42 147.229C428.969 147.229 430.325 147.566 431.487 148.241C432.66 148.905 433.574 149.824 434.227 150.997C434.891 152.17 435.223 153.504 435.223 154.998V155.031C435.223 156.669 434.824 158.119 434.027 159.381C433.23 160.632 432.135 161.617 430.74 162.336C429.357 163.055 427.774 163.415 425.992 163.415Z" fill="#F2784B"/>
<path d="M380.411 221.328C378.948 221.328 377.684 221.017 376.617 220.395C375.551 219.766 374.727 218.874 374.146 217.719C373.572 216.563 373.285 215.193 373.285 213.607V213.586C373.285 212 373.575 210.633 374.156 209.485C374.744 208.33 375.571 207.441 376.638 206.819C377.704 206.19 378.962 205.875 380.411 205.875C381.874 205.875 383.135 206.19 384.195 206.819C385.261 207.441 386.085 208.33 386.666 209.485C387.247 210.633 387.538 212 387.538 213.586V213.607C387.538 215.193 387.247 216.563 386.666 217.719C386.092 218.874 385.271 219.766 384.205 220.395C383.139 221.017 381.874 221.328 380.411 221.328ZM380.411 218.703C381.225 218.703 381.925 218.495 382.513 218.078C383.108 217.661 383.566 217.069 383.887 216.304C384.215 215.538 384.379 214.639 384.379 213.607V213.586C384.379 212.547 384.215 211.648 383.887 210.89C383.566 210.124 383.108 209.536 382.513 209.126C381.918 208.709 381.218 208.5 380.411 208.5C379.611 208.5 378.914 208.709 378.319 209.126C377.725 209.536 377.263 210.124 376.935 210.89C376.607 211.648 376.443 212.547 376.443 213.586V213.607C376.443 214.639 376.604 215.538 376.925 216.304C377.253 217.069 377.714 217.661 378.309 218.078C378.904 218.495 379.604 218.703 380.411 218.703ZM392.757 221L388.881 209.823H392.09L394.408 218.262H394.551L396.848 209.823H399.986L396.13 221H392.757ZM406.189 221.236C405.055 221.236 404.077 221 403.257 220.528C402.443 220.057 401.814 219.387 401.37 218.519C400.933 217.65 400.714 216.622 400.714 215.432V215.422C400.714 214.232 400.933 213.204 401.37 212.335C401.808 211.46 402.426 210.784 403.226 210.305C404.033 209.827 404.979 209.587 406.066 209.587C407.153 209.587 408.093 209.82 408.886 210.285C409.679 210.75 410.291 211.402 410.722 212.243C411.152 213.084 411.368 214.068 411.368 215.196V216.129H402.201V214.243H409.942L408.527 216.017V214.837C408.527 214.174 408.425 213.621 408.22 213.176C408.015 212.725 407.731 212.387 407.369 212.161C407.013 211.936 406.596 211.823 406.118 211.823C405.646 211.823 405.226 211.939 404.856 212.171C404.487 212.404 404.197 212.746 403.985 213.197C403.78 213.648 403.677 214.195 403.677 214.837V216.027C403.677 216.649 403.78 217.182 403.985 217.626C404.19 218.071 404.484 218.413 404.867 218.652C405.256 218.884 405.718 219 406.251 219C406.682 219 407.047 218.936 407.348 218.806C407.656 218.676 407.902 218.519 408.086 218.334C408.278 218.149 408.408 217.975 408.476 217.811L408.507 217.75H411.275L411.255 217.852C411.166 218.228 411.002 218.614 410.763 219.011C410.53 219.4 410.209 219.766 409.799 220.108C409.396 220.443 408.893 220.716 408.292 220.928C407.697 221.133 406.996 221.236 406.189 221.236ZM413.48 221V209.823H416.474V211.638H416.607C416.778 211.002 417.1 210.51 417.571 210.162C418.043 209.806 418.624 209.628 419.314 209.628C419.506 209.628 419.69 209.642 419.868 209.669C420.053 209.69 420.21 209.721 420.34 209.762V212.376C420.155 212.329 419.954 212.291 419.735 212.264C419.523 212.229 419.304 212.212 419.079 212.212C418.539 212.212 418.074 212.315 417.684 212.52C417.294 212.718 416.994 213.005 416.782 213.381C416.577 213.757 416.474 214.212 416.474 214.745V221H413.48ZM425.805 221.195C424.875 221.195 424.069 220.962 423.385 220.498C422.702 220.033 422.175 219.37 421.806 218.508C421.444 217.647 421.263 216.618 421.263 215.422V215.401C421.263 214.198 421.444 213.166 421.806 212.305C422.175 211.443 422.698 210.784 423.375 210.326C424.052 209.861 424.862 209.628 425.805 209.628C426.318 209.628 426.793 209.71 427.23 209.875C427.675 210.039 428.061 210.274 428.389 210.582C428.724 210.883 428.987 211.245 429.179 211.669H429.322V205.701H432.316V221H429.322V219.206H429.179C428.987 219.623 428.728 219.978 428.399 220.272C428.078 220.566 427.699 220.795 427.261 220.959C426.824 221.116 426.338 221.195 425.805 221.195ZM426.81 218.713C427.33 218.713 427.777 218.583 428.153 218.324C428.529 218.057 428.82 217.678 429.025 217.186C429.237 216.687 429.343 216.099 429.343 215.422V215.412C429.343 214.728 429.237 214.14 429.025 213.648C428.82 213.156 428.526 212.776 428.143 212.51C427.767 212.243 427.323 212.11 426.81 212.11C426.304 212.11 425.86 212.243 425.477 212.51C425.101 212.77 424.811 213.146 424.605 213.638C424.407 214.13 424.308 214.718 424.308 215.401V215.422C424.308 216.099 424.407 216.687 424.605 217.186C424.811 217.678 425.101 218.057 425.477 218.324C425.853 218.583 426.297 218.713 426.81 218.713ZM438.715 221.236C437.895 221.236 437.197 221.072 436.623 220.744C436.056 220.409 435.625 219.93 435.331 219.308C435.044 218.679 434.9 217.924 434.9 217.042V209.823H437.895V216.386C437.895 217.151 438.059 217.739 438.387 218.149C438.715 218.553 439.224 218.754 439.915 218.754C440.27 218.754 440.588 218.696 440.868 218.58C441.148 218.457 441.384 218.29 441.576 218.078C441.767 217.859 441.911 217.596 442.006 217.288C442.109 216.98 442.16 216.642 442.16 216.273V209.823H445.154V221H442.16V219.236H442.017C441.846 219.646 441.603 220.002 441.289 220.303C440.981 220.604 440.612 220.836 440.181 221C439.75 221.157 439.262 221.236 438.715 221.236ZM452.722 221.236C451.587 221.236 450.609 221 449.789 220.528C448.976 220.057 448.347 219.387 447.902 218.519C447.465 217.65 447.246 216.622 447.246 215.432V215.422C447.246 214.232 447.465 213.204 447.902 212.335C448.34 211.46 448.958 210.784 449.758 210.305C450.565 209.827 451.512 209.587 452.599 209.587C453.686 209.587 454.625 209.82 455.418 210.285C456.211 210.75 456.823 211.402 457.254 212.243C457.685 213.084 457.9 214.068 457.9 215.196V216.129H448.733V214.243H456.475L455.06 216.017V214.837C455.06 214.174 454.957 213.621 454.752 213.176C454.547 212.725 454.263 212.387 453.901 212.161C453.545 211.936 453.128 211.823 452.65 211.823C452.178 211.823 451.758 211.939 451.389 212.171C451.02 212.404 450.729 212.746 450.517 213.197C450.312 213.648 450.209 214.195 450.209 214.837V216.027C450.209 216.649 450.312 217.182 450.517 217.626C450.722 218.071 451.016 218.413 451.399 218.652C451.789 218.884 452.25 219 452.783 219C453.214 219 453.58 218.936 453.88 218.806C454.188 218.676 454.434 218.519 454.619 218.334C454.81 218.149 454.94 217.975 455.008 217.811L455.039 217.75H457.808L457.787 217.852C457.698 218.228 457.534 218.614 457.295 219.011C457.062 219.4 456.741 219.766 456.331 220.108C455.928 220.443 455.425 220.716 454.824 220.928C454.229 221.133 453.528 221.236 452.722 221.236Z" fill="#15151E"/>
<path d="M388.14 249.815C387.278 249.815 386.467 249.692 385.705 249.446C384.943 249.2 384.27 248.825 383.684 248.321C383.104 247.817 382.646 247.179 382.312 246.405C381.979 245.632 381.812 244.718 381.812 243.663V243.646C381.812 242.591 381.979 241.677 382.312 240.903C382.646 240.13 383.106 239.491 383.692 238.987C384.278 238.483 384.952 238.111 385.714 237.871C386.476 237.625 387.284 237.502 388.14 237.502C388.468 237.502 388.816 237.52 389.186 237.555C389.561 237.584 389.839 237.631 390.021 237.695V239.119C389.827 239.072 389.546 239.034 389.177 239.005C388.813 238.976 388.468 238.961 388.14 238.961C387.466 238.961 386.842 239.055 386.268 239.242C385.693 239.43 385.195 239.717 384.773 240.104C384.352 240.49 384.023 240.979 383.789 241.571C383.555 242.163 383.438 242.863 383.438 243.672V243.689C383.438 244.492 383.555 245.187 383.789 245.772C384.029 246.358 384.36 246.845 384.782 247.231C385.204 247.612 385.699 247.896 386.268 248.084C386.842 248.266 387.466 248.356 388.14 248.356C388.468 248.356 388.813 248.345 389.177 248.321C389.546 248.298 389.827 248.257 390.021 248.198V249.622C389.839 249.687 389.561 249.736 389.186 249.771C388.816 249.801 388.468 249.815 388.14 249.815ZM380.106 245.438V244.384H388.421V245.438H380.106ZM380.106 242.89V241.835H388.421V242.89H380.106ZM396.621 250.299C396.041 250.299 395.467 250.188 394.898 249.965C394.33 249.742 393.814 249.382 393.352 248.884C392.895 248.386 392.528 247.729 392.253 246.915C391.978 246.095 391.84 245.087 391.84 243.892V243.874C391.84 242.433 392.033 241.202 392.42 240.183C392.807 239.157 393.363 238.375 394.09 237.836C394.822 237.291 395.701 237.019 396.727 237.019C397.436 237.019 398.074 237.15 398.643 237.414C399.217 237.672 399.694 238.035 400.075 238.504C400.462 238.967 400.726 239.512 400.866 240.139L400.893 240.253H399.302L399.267 240.156C399.138 239.799 398.953 239.494 398.713 239.242C398.479 238.984 398.191 238.785 397.852 238.645C397.518 238.504 397.137 238.434 396.709 238.434C395.936 238.434 395.309 238.659 394.828 239.11C394.348 239.556 393.99 240.15 393.756 240.895C393.527 241.639 393.396 242.453 393.36 243.338C393.354 243.414 393.352 243.49 393.352 243.566C393.352 243.643 393.352 243.722 393.352 243.804L393.729 245.913C393.729 246.47 393.855 246.974 394.107 247.425C394.365 247.876 394.711 248.236 395.145 248.506C395.584 248.77 396.07 248.901 396.604 248.901C397.137 248.901 397.62 248.772 398.054 248.515C398.487 248.251 398.83 247.896 399.082 247.451C399.34 247.006 399.469 246.511 399.469 245.966V245.948C399.469 245.386 399.346 244.888 399.1 244.454C398.859 244.015 398.525 243.672 398.098 243.426C397.67 243.174 397.181 243.048 396.63 243.048C396.085 243.048 395.593 243.171 395.153 243.417C394.714 243.663 394.365 244.003 394.107 244.437C393.855 244.864 393.729 245.354 393.729 245.904V245.913H393.211V243.637H393.519C393.677 243.285 393.911 242.96 394.222 242.661C394.532 242.362 394.913 242.122 395.364 241.94C395.821 241.759 396.334 241.668 396.902 241.668C397.699 241.668 398.411 241.853 399.038 242.222C399.665 242.591 400.157 243.095 400.515 243.733C400.878 244.372 401.06 245.099 401.06 245.913V245.931C401.06 246.774 400.866 247.524 400.479 248.181C400.099 248.837 399.574 249.355 398.906 249.736C398.238 250.111 397.477 250.299 396.621 250.299ZM403.573 250V248.91L407.871 244.27C408.41 243.684 408.832 243.2 409.137 242.819C409.441 242.433 409.655 242.084 409.778 241.773C409.901 241.463 409.963 241.123 409.963 240.754V240.736C409.963 240.291 409.866 239.893 409.673 239.541C409.479 239.189 409.204 238.911 408.847 238.706C408.489 238.501 408.062 238.398 407.563 238.398C407.06 238.398 406.614 238.504 406.228 238.715C405.847 238.926 405.551 239.219 405.34 239.594C405.129 239.963 405.023 240.394 405.023 240.886L405.015 240.903L403.503 240.895L403.485 240.886C403.491 240.136 403.673 239.471 404.03 238.891C404.388 238.305 404.88 237.848 405.507 237.52C406.14 237.186 406.86 237.019 407.669 237.019C408.407 237.019 409.072 237.174 409.664 237.484C410.256 237.789 410.722 238.208 411.062 238.741C411.407 239.274 411.58 239.884 411.58 240.569V240.587C411.58 241.067 411.495 241.53 411.325 241.976C411.161 242.421 410.868 242.916 410.446 243.461C410.024 244 409.43 244.665 408.662 245.456L405.375 248.849L405.771 248.11V248.849L405.375 248.576H411.791V250H403.573ZM418.585 237.019C419.165 237.019 419.736 237.13 420.299 237.353C420.867 237.575 421.38 237.936 421.837 238.434C422.3 238.932 422.669 239.591 422.944 240.411C423.22 241.226 423.357 242.23 423.357 243.426V243.443C423.357 244.885 423.164 246.118 422.777 247.144C422.391 248.163 421.834 248.945 421.107 249.49C420.381 250.029 419.505 250.299 418.479 250.299C417.771 250.299 417.129 250.17 416.555 249.912C415.98 249.648 415.503 249.282 415.122 248.813C414.741 248.345 414.478 247.8 414.331 247.179L414.305 247.064H415.904L415.939 247.161C416.068 247.513 416.25 247.817 416.484 248.075C416.725 248.333 417.012 248.532 417.346 248.673C417.686 248.813 418.069 248.884 418.497 248.884C419.265 248.884 419.889 248.661 420.369 248.216C420.85 247.765 421.207 247.167 421.441 246.423C421.676 245.673 421.808 244.858 421.837 243.979C421.843 243.903 421.846 243.827 421.846 243.751C421.846 243.669 421.846 243.59 421.846 243.514L421.468 241.404C421.468 240.848 421.339 240.344 421.081 239.893C420.829 239.441 420.486 239.084 420.053 238.82C419.625 238.551 419.142 238.416 418.603 238.416C418.075 238.416 417.592 238.548 417.152 238.812C416.719 239.069 416.373 239.421 416.115 239.866C415.857 240.306 415.729 240.801 415.729 241.352V241.369C415.729 241.932 415.852 242.433 416.098 242.872C416.344 243.306 416.681 243.648 417.108 243.9C417.542 244.146 418.031 244.27 418.576 244.27C419.127 244.27 419.619 244.146 420.053 243.9C420.486 243.654 420.829 243.317 421.081 242.89C421.339 242.456 421.468 241.964 421.468 241.413V241.404H421.986V243.681H421.679C421.526 244.032 421.292 244.357 420.976 244.656C420.665 244.955 420.284 245.195 419.833 245.377C419.388 245.559 418.878 245.649 418.304 245.649C417.513 245.649 416.801 245.465 416.168 245.096C415.541 244.727 415.046 244.223 414.683 243.584C414.319 242.939 414.138 242.213 414.138 241.404V241.387C414.138 240.543 414.328 239.793 414.709 239.137C415.096 238.475 415.626 237.956 416.3 237.581C416.974 237.206 417.735 237.019 418.585 237.019ZM431.663 250V247.372H425.476V245.931C425.821 245.356 426.173 244.776 426.53 244.19C426.894 243.599 427.257 243.01 427.62 242.424C427.989 241.832 428.358 241.249 428.728 240.675C429.097 240.095 429.463 239.523 429.826 238.961C430.195 238.393 430.559 237.845 430.916 237.317H433.21V245.957H435.012V247.372H433.21V250H431.663ZM427.093 245.966H431.672V238.776H431.566C431.279 239.21 430.986 239.658 430.688 240.121C430.389 240.578 430.084 241.047 429.773 241.527C429.469 242.008 429.164 242.491 428.859 242.978C428.555 243.464 428.253 243.95 427.954 244.437C427.655 244.917 427.368 245.392 427.093 245.86V245.966ZM438.07 250.088C437.76 250.088 437.493 249.977 437.271 249.754C437.048 249.531 436.937 249.265 436.937 248.954C436.937 248.638 437.048 248.371 437.271 248.154C437.493 247.932 437.76 247.82 438.07 247.82C438.387 247.82 438.653 247.932 438.87 248.154C439.093 248.371 439.204 248.638 439.204 248.954C439.204 249.265 439.093 249.531 438.87 249.754C438.653 249.977 438.387 250.088 438.07 250.088ZM445.857 250.211C444.961 250.211 444.167 250.056 443.476 249.745C442.784 249.435 442.239 249.007 441.841 248.462C441.448 247.911 441.252 247.281 441.252 246.572V246.555C441.252 246.033 441.366 245.55 441.595 245.104C441.823 244.659 442.143 244.281 442.553 243.971C442.963 243.654 443.438 243.435 443.977 243.312V243.276C443.285 243.06 442.734 242.702 442.324 242.204C441.914 241.706 441.709 241.123 441.709 240.455V240.438C441.709 239.799 441.888 239.23 442.245 238.732C442.603 238.229 443.095 237.833 443.722 237.546C444.349 237.253 445.061 237.106 445.857 237.106C446.66 237.106 447.372 237.253 447.993 237.546C448.62 237.833 449.112 238.229 449.47 238.732C449.827 239.23 450.006 239.799 450.006 240.438V240.455C450.006 241.123 449.801 241.706 449.391 242.204C448.986 242.702 448.436 243.06 447.738 243.276V243.312C448.283 243.435 448.758 243.654 449.162 243.971C449.572 244.281 449.892 244.659 450.12 245.104C450.349 245.55 450.463 246.033 450.463 246.555V246.572C450.463 247.281 450.267 247.911 449.874 248.462C449.481 249.007 448.937 249.435 448.239 249.745C447.548 250.056 446.754 250.211 445.857 250.211ZM445.857 248.831C446.443 248.831 446.959 248.731 447.404 248.532C447.855 248.327 448.21 248.049 448.468 247.697C448.726 247.34 448.854 246.933 448.854 246.476V246.458C448.854 245.995 448.726 245.585 448.468 245.228C448.216 244.87 447.864 244.589 447.413 244.384C446.962 244.179 446.443 244.076 445.857 244.076C445.271 244.076 444.753 244.179 444.302 244.384C443.851 244.589 443.496 244.87 443.238 245.228C442.986 245.585 442.86 245.995 442.86 246.458V246.476C442.86 246.933 442.989 247.34 443.247 247.697C443.505 248.049 443.859 248.327 444.311 248.532C444.762 248.731 445.277 248.831 445.857 248.831ZM445.857 242.688C446.367 242.688 446.815 242.6 447.202 242.424C447.589 242.242 447.891 241.993 448.107 241.677C448.324 241.36 448.433 240.997 448.433 240.587V240.569C448.433 240.159 448.324 239.796 448.107 239.479C447.891 239.163 447.589 238.917 447.202 238.741C446.815 238.56 446.367 238.469 445.857 238.469C445.348 238.469 444.899 238.56 444.513 238.741C444.126 238.917 443.824 239.163 443.607 239.479C443.391 239.796 443.282 240.159 443.282 240.569V240.587C443.282 240.997 443.391 241.36 443.607 241.677C443.824 241.993 444.126 242.242 444.513 242.424C444.899 242.6 445.348 242.688 445.857 242.688Z" fill="#6B6B76"/>
<path d="M565 192C588.196 192 607 173.196 607 150C607 126.804 588.196 108 565 108C541.804 108 523 126.804 523 150C523 173.196 541.804 192 565 192Z" fill="#EFF1F4" stroke="#2E9E8F" stroke-width="3"/>
<path d="M553.979 162V142.643H553.879L547.77 146.793V142.344L553.962 138.044H558.942V162H553.979ZM573.668 162.415C571.764 162.415 570.088 162.122 568.638 161.535C567.188 160.949 566.053 160.135 565.234 159.095C564.415 158.043 564.006 156.831 564.006 155.459V155.426C564.006 154.385 564.244 153.45 564.72 152.62C565.196 151.79 565.849 151.098 566.679 150.545C567.509 149.992 568.461 149.61 569.534 149.399V149.3C568.151 148.957 567.027 148.32 566.164 147.391C565.312 146.45 564.886 145.338 564.886 144.054V144.021C564.886 142.781 565.257 141.685 565.998 140.733C566.74 139.771 567.769 139.012 569.086 138.459C570.414 137.906 571.941 137.629 573.668 137.629C575.395 137.629 576.916 137.906 578.233 138.459C579.55 139.012 580.58 139.771 581.321 140.733C582.074 141.685 582.45 142.781 582.45 144.021V144.054C582.45 145.338 582.019 146.45 581.155 147.391C580.303 148.32 579.185 148.957 577.802 149.3V149.399C578.875 149.61 579.827 149.992 580.657 150.545C581.487 151.098 582.135 151.79 582.6 152.62C583.076 153.45 583.313 154.385 583.313 155.426V155.459C583.313 156.831 582.904 158.043 582.085 159.095C581.277 160.135 580.148 160.949 578.698 161.535C577.248 162.122 575.572 162.415 573.668 162.415ZM573.668 158.763C574.542 158.763 575.312 158.608 575.976 158.298C576.64 157.988 577.16 157.556 577.536 157.003C577.924 156.45 578.117 155.824 578.117 155.127V155.094C578.117 154.385 577.929 153.755 577.553 153.201C577.176 152.648 576.651 152.216 575.976 151.906C575.312 151.585 574.542 151.425 573.668 151.425C572.783 151.425 572.002 151.585 571.327 151.906C570.663 152.216 570.143 152.648 569.767 153.201C569.39 153.755 569.202 154.385 569.202 155.094V155.127C569.202 155.824 569.39 156.45 569.767 157.003C570.154 157.556 570.68 157.988 571.344 158.298C572.019 158.608 572.794 158.763 573.668 158.763ZM573.668 147.789C574.421 147.789 575.085 147.651 575.66 147.374C576.236 147.097 576.684 146.715 577.005 146.229C577.326 145.73 577.486 145.16 577.486 144.519V144.485C577.486 143.843 577.32 143.279 576.988 142.792C576.667 142.305 576.219 141.929 575.644 141.663C575.068 141.386 574.41 141.248 573.668 141.248C572.915 141.248 572.251 141.386 571.676 141.663C571.1 141.929 570.646 142.305 570.314 142.792C569.993 143.279 569.833 143.843 569.833 144.485V144.519C569.833 145.16 569.993 145.73 570.314 146.229C570.646 146.715 571.1 147.097 571.676 147.374C572.251 147.651 572.915 147.789 573.668 147.789Z" fill="#2E9E8F"/>
<path d="M520.806 221.328C519.541 221.328 518.444 221.103 517.514 220.651C516.591 220.193 515.874 219.554 515.361 218.734C514.855 217.907 514.602 216.946 514.602 215.853V206.204H517.699V215.576C517.699 216.211 517.818 216.765 518.058 217.237C518.304 217.702 518.656 218.064 519.114 218.324C519.579 218.577 520.143 218.703 520.806 218.703C521.469 218.703 522.029 218.577 522.487 218.324C522.952 218.064 523.304 217.702 523.543 217.237C523.783 216.765 523.902 216.211 523.902 215.576V206.204H526.999V215.853C526.999 216.946 526.746 217.903 526.24 218.724C525.741 219.544 525.027 220.183 524.097 220.641C523.174 221.099 522.077 221.328 520.806 221.328ZM529.88 224.681V209.823H532.875V211.638H533.008C533.206 211.214 533.466 210.855 533.787 210.562C534.115 210.261 534.498 210.032 534.936 209.875C535.373 209.71 535.855 209.628 536.381 209.628C537.318 209.628 538.125 209.861 538.801 210.326C539.485 210.791 540.008 211.454 540.37 212.315C540.739 213.176 540.924 214.205 540.924 215.401V215.422C540.924 216.625 540.743 217.657 540.38 218.519C540.018 219.38 539.499 220.043 538.822 220.508C538.145 220.966 537.335 221.195 536.392 221.195C535.879 221.195 535.4 221.113 534.956 220.949C534.512 220.785 534.125 220.552 533.797 220.251C533.469 219.951 533.206 219.592 533.008 219.175H532.875V224.681H529.88ZM535.376 218.713C535.889 218.713 536.333 218.58 536.709 218.313C537.085 218.047 537.373 217.667 537.571 217.175C537.776 216.683 537.878 216.099 537.878 215.422V215.401C537.878 214.718 537.776 214.13 537.571 213.638C537.373 213.146 537.085 212.77 536.709 212.51C536.333 212.243 535.889 212.11 535.376 212.11C534.864 212.11 534.416 212.243 534.033 212.51C533.657 212.77 533.363 213.146 533.151 213.638C532.946 214.13 532.844 214.718 532.844 215.401V215.422C532.844 216.099 532.946 216.683 533.151 217.175C533.363 217.667 533.657 218.047 534.033 218.313C534.416 218.58 534.864 218.713 535.376 218.713ZM548.03 221.236C546.881 221.236 545.897 221.007 545.077 220.549C544.256 220.084 543.627 219.417 543.19 218.549C542.759 217.674 542.544 216.625 542.544 215.401V215.381C542.544 214.164 542.759 213.125 543.19 212.264C543.627 211.402 544.253 210.743 545.066 210.285C545.887 209.82 546.871 209.587 548.02 209.587C549.018 209.587 549.879 209.765 550.604 210.121C551.328 210.476 551.896 210.968 552.306 211.597C552.723 212.219 552.969 212.94 553.044 213.761L553.034 213.812H550.255L550.245 213.761C550.149 213.221 549.917 212.783 549.547 212.448C549.178 212.106 548.676 211.936 548.04 211.936C547.527 211.936 547.086 212.072 546.717 212.346C546.348 212.612 546.068 213.002 545.876 213.515C545.685 214.027 545.589 214.653 545.589 215.391V215.401C545.589 216.146 545.685 216.779 545.876 217.298C546.075 217.818 546.355 218.214 546.717 218.488C547.086 218.754 547.531 218.888 548.05 218.888C548.659 218.888 549.144 218.734 549.506 218.426C549.875 218.119 550.122 217.681 550.245 217.114L550.255 217.062L553.044 217.052L553.034 217.124C552.952 217.931 552.699 218.645 552.275 219.267C551.858 219.882 551.291 220.364 550.573 220.713C549.862 221.062 549.014 221.236 548.03 221.236ZM560.058 221.236C558.923 221.236 557.942 221.003 557.115 220.539C556.288 220.074 555.652 219.407 555.208 218.539C554.763 217.671 554.541 216.632 554.541 215.422V215.401C554.541 214.198 554.767 213.163 555.218 212.294C555.669 211.426 556.305 210.76 557.125 210.295C557.952 209.823 558.93 209.587 560.058 209.587C561.192 209.587 562.17 209.82 562.99 210.285C563.817 210.75 564.457 211.416 564.908 212.284C565.359 213.152 565.584 214.191 565.584 215.401V215.422C565.584 216.632 565.359 217.671 564.908 218.539C564.463 219.407 563.828 220.074 563 220.539C562.18 221.003 561.199 221.236 560.058 221.236ZM560.068 218.888C560.581 218.888 561.018 218.751 561.38 218.478C561.75 218.204 562.03 217.811 562.221 217.298C562.419 216.779 562.519 216.153 562.519 215.422V215.401C562.519 214.67 562.419 214.048 562.221 213.535C562.023 213.022 561.739 212.629 561.37 212.356C561.008 212.076 560.57 211.936 560.058 211.936C559.552 211.936 559.114 212.076 558.745 212.356C558.376 212.629 558.092 213.022 557.894 213.535C557.696 214.048 557.597 214.67 557.597 215.401V215.422C557.597 216.153 557.692 216.779 557.884 217.298C558.082 217.811 558.366 218.204 558.735 218.478C559.104 218.751 559.548 218.888 560.068 218.888ZM567.676 221V209.823H570.67V211.628H570.804C571.036 210.992 571.426 210.493 571.973 210.131C572.526 209.769 573.172 209.587 573.911 209.587C574.423 209.587 574.885 209.673 575.295 209.844C575.712 210.015 576.064 210.261 576.351 210.582C576.645 210.903 576.864 211.29 577.007 211.741H577.141C577.312 211.303 577.561 210.924 577.889 210.603C578.224 210.281 578.617 210.032 579.068 209.854C579.526 209.676 580.019 209.587 580.545 209.587C581.283 209.587 581.922 209.741 582.462 210.049C583.009 210.356 583.433 210.791 583.734 211.351C584.035 211.912 584.185 212.575 584.185 213.34V221H581.191V214.089C581.191 213.645 581.119 213.275 580.976 212.981C580.839 212.681 580.634 212.455 580.36 212.305C580.094 212.147 579.755 212.069 579.345 212.069C578.949 212.069 578.604 212.158 578.31 212.335C578.022 212.513 577.797 212.759 577.633 213.074C577.476 213.388 577.397 213.75 577.397 214.161V221H574.444V213.966C574.444 213.569 574.372 213.231 574.229 212.951C574.085 212.664 573.876 212.445 573.603 212.294C573.33 212.144 573.001 212.069 572.619 212.069C572.236 212.069 571.897 212.165 571.604 212.356C571.31 212.541 571.081 212.797 570.917 213.125C570.752 213.453 570.67 213.829 570.67 214.253V221H567.676ZM586.738 221V209.823H589.732V221H586.738ZM588.235 208.213C587.784 208.213 587.395 208.056 587.066 207.742C586.745 207.42 586.584 207.038 586.584 206.593C586.584 206.142 586.745 205.759 587.066 205.445C587.395 205.124 587.784 204.963 588.235 204.963C588.693 204.963 589.083 205.124 589.404 205.445C589.726 205.759 589.886 206.142 589.886 206.593C589.886 207.038 589.726 207.42 589.404 207.742C589.083 208.056 588.693 208.213 588.235 208.213ZM592.368 221V209.823H595.362V211.597H595.495C595.762 210.975 596.172 210.486 596.726 210.131C597.279 209.769 597.963 209.587 598.776 209.587C600.014 209.587 600.96 209.957 601.617 210.695C602.28 211.426 602.611 212.455 602.611 213.781V221H599.617V214.438C599.617 213.665 599.45 213.077 599.115 212.674C598.78 212.271 598.264 212.069 597.566 212.069C597.115 212.069 596.722 212.175 596.387 212.387C596.059 212.592 595.806 212.879 595.628 213.248C595.451 213.617 595.362 214.051 595.362 214.55V221H592.368ZM610.158 224.907C609.126 224.907 608.237 224.77 607.492 224.497C606.747 224.23 606.159 223.854 605.729 223.369C605.305 222.89 605.048 222.34 604.959 221.718V221.656H607.902L607.923 221.708C608.019 222.008 608.258 222.261 608.641 222.466C609.03 222.671 609.55 222.774 610.199 222.774C610.985 222.774 611.594 222.593 612.024 222.23C612.455 221.868 612.67 221.369 612.67 220.733V218.785H612.527C612.329 219.175 612.062 219.51 611.727 219.79C611.399 220.063 611.016 220.275 610.579 220.426C610.148 220.569 609.669 220.641 609.143 220.641C608.207 220.641 607.396 220.419 606.713 219.975C606.036 219.523 605.513 218.891 605.144 218.078C604.782 217.264 604.601 216.307 604.601 215.207V215.196C604.601 214.062 604.785 213.081 605.154 212.253C605.523 211.419 606.05 210.773 606.733 210.315C607.424 209.857 608.244 209.628 609.194 209.628C609.714 209.628 610.189 209.71 610.62 209.875C611.05 210.039 611.43 210.274 611.758 210.582C612.086 210.89 612.349 211.255 612.547 211.679H612.66V209.823H615.654V220.672C615.654 221.526 615.429 222.271 614.978 222.907C614.533 223.543 613.897 224.035 613.07 224.384C612.25 224.732 611.279 224.907 610.158 224.907ZM610.168 218.375C610.688 218.375 611.136 218.245 611.512 217.985C611.888 217.726 612.178 217.36 612.383 216.888C612.588 216.417 612.691 215.866 612.691 215.237V215.217C612.691 214.588 612.588 214.038 612.383 213.566C612.178 213.094 611.884 212.729 611.501 212.469C611.125 212.202 610.681 212.069 610.168 212.069C609.642 212.069 609.191 212.199 608.815 212.458C608.446 212.718 608.159 213.084 607.954 213.556C607.755 214.027 607.656 214.581 607.656 215.217V215.227C607.656 215.863 607.755 216.417 607.954 216.888C608.159 217.36 608.446 217.726 608.815 217.985C609.191 218.245 609.642 218.375 610.168 218.375Z" fill="#15151E"/>
<path d="M543.906 249.815C543.045 249.815 542.233 249.692 541.472 249.446C540.71 249.2 540.036 248.825 539.45 248.321C538.87 247.817 538.413 247.179 538.079 246.405C537.745 245.632 537.578 244.718 537.578 243.663V243.646C537.578 242.591 537.745 241.677 538.079 240.903C538.413 240.13 538.873 239.491 539.459 238.987C540.045 238.483 540.719 238.111 541.48 237.871C542.242 237.625 543.051 237.502 543.906 237.502C544.234 237.502 544.583 237.52 544.952 237.555C545.327 237.584 545.605 237.631 545.787 237.695V239.119C545.594 239.072 545.312 239.034 544.943 239.005C544.58 238.976 544.234 238.961 543.906 238.961C543.232 238.961 542.608 239.055 542.034 239.242C541.46 239.43 540.962 239.717 540.54 240.104C540.118 240.49 539.79 240.979 539.556 241.571C539.321 242.163 539.204 242.863 539.204 243.672V243.689C539.204 244.492 539.321 245.187 539.556 245.772C539.796 246.358 540.127 246.845 540.549 247.231C540.971 247.612 541.466 247.896 542.034 248.084C542.608 248.266 543.232 248.356 543.906 248.356C544.234 248.356 544.58 248.345 544.943 248.321C545.312 248.298 545.594 248.257 545.787 248.198V249.622C545.605 249.687 545.327 249.736 544.952 249.771C544.583 249.801 544.234 249.815 543.906 249.815ZM535.873 245.438V244.384H544.188V245.438H535.873ZM535.873 242.89V241.835H544.188V242.89H535.873ZM547.896 250V248.91L552.194 244.27C552.733 243.684 553.155 243.2 553.46 242.819C553.765 242.433 553.979 242.084 554.102 241.773C554.225 241.463 554.286 241.123 554.286 240.754V240.736C554.286 240.291 554.189 239.893 553.996 239.541C553.803 239.189 553.527 238.911 553.17 238.706C552.812 238.501 552.385 238.398 551.887 238.398C551.383 238.398 550.938 238.504 550.551 238.715C550.17 238.926 549.874 239.219 549.663 239.594C549.452 239.963 549.347 240.394 549.347 240.886L549.338 240.903L547.826 240.895L547.809 240.886C547.814 240.136 547.996 239.471 548.354 238.891C548.711 238.305 549.203 237.848 549.83 237.52C550.463 237.186 551.184 237.019 551.992 237.019C552.73 237.019 553.396 237.174 553.987 237.484C554.579 237.789 555.045 238.208 555.385 238.741C555.73 239.274 555.903 239.884 555.903 240.569V240.587C555.903 241.067 555.818 241.53 555.648 241.976C555.484 242.421 555.191 242.916 554.77 243.461C554.348 244 553.753 244.665 552.985 245.456L549.698 248.849L550.094 248.11V248.849L549.698 248.576H556.114V250H547.896ZM558.742 250V248.91L563.04 244.27C563.579 243.684 564.001 243.2 564.306 242.819C564.61 242.433 564.824 242.084 564.947 241.773C565.07 241.463 565.132 241.123 565.132 240.754V240.736C565.132 240.291 565.035 239.893 564.842 239.541C564.648 239.189 564.373 238.911 564.016 238.706C563.658 238.501 563.23 238.398 562.732 238.398C562.229 238.398 561.783 238.504 561.396 238.715C561.016 238.926 560.72 239.219 560.509 239.594C560.298 239.963 560.192 240.394 560.192 240.886L560.184 240.903L558.672 240.895L558.654 240.886C558.66 240.136 558.842 239.471 559.199 238.891C559.557 238.305 560.049 237.848 560.676 237.52C561.309 237.186 562.029 237.019 562.838 237.019C563.576 237.019 564.241 237.174 564.833 237.484C565.425 237.789 565.891 238.208 566.23 238.741C566.576 239.274 566.749 239.884 566.749 240.569V240.587C566.749 241.067 566.664 241.53 566.494 241.976C566.33 242.421 566.037 242.916 565.615 243.461C565.193 244 564.599 244.665 563.831 245.456L560.544 248.849L560.939 248.11V248.849L560.544 248.576H566.96V250H558.742ZM575.125 250V247.372H568.938V245.931C569.283 245.356 569.635 244.776 569.992 244.19C570.355 243.599 570.719 243.01 571.082 242.424C571.451 241.832 571.82 241.249 572.189 240.675C572.559 240.095 572.925 239.523 573.288 238.961C573.657 238.393 574.021 237.845 574.378 237.317H576.672V245.957H578.474V247.372H576.672V250H575.125ZM570.555 245.966H575.134V238.776H575.028C574.741 239.21 574.448 239.658 574.149 240.121C573.851 240.578 573.546 241.047 573.235 241.527C572.931 242.008 572.626 242.491 572.321 242.978C572.017 243.464 571.715 243.95 571.416 244.437C571.117 244.917 570.83 245.392 570.555 245.86V245.966ZM581.532 250.088C581.222 250.088 580.955 249.977 580.732 249.754C580.51 249.531 580.398 249.265 580.398 248.954C580.398 248.638 580.51 248.371 580.732 248.154C580.955 247.932 581.222 247.82 581.532 247.82C581.849 247.82 582.115 247.932 582.332 248.154C582.555 248.371 582.666 248.638 582.666 248.954C582.666 249.265 582.555 249.531 582.332 249.754C582.115 249.977 581.849 250.088 581.532 250.088ZM589.152 250.299C588.215 250.299 587.412 250.029 586.744 249.49C586.076 248.951 585.563 248.187 585.206 247.196C584.849 246.2 584.67 245.022 584.67 243.663V243.646C584.67 242.286 584.849 241.111 585.206 240.121C585.563 239.131 586.076 238.366 586.744 237.827C587.412 237.288 588.215 237.019 589.152 237.019C590.09 237.019 590.893 237.288 591.561 237.827C592.234 238.366 592.75 239.131 593.107 240.121C593.471 241.111 593.652 242.286 593.652 243.646V243.663C593.652 245.022 593.471 246.2 593.107 247.196C592.75 248.187 592.234 248.951 591.561 249.49C590.893 250.029 590.09 250.299 589.152 250.299ZM589.152 248.919C589.762 248.919 590.283 248.705 590.717 248.277C591.15 247.85 591.481 247.243 591.71 246.458C591.944 245.673 592.062 244.741 592.062 243.663V243.646C592.062 242.567 591.944 241.639 591.71 240.859C591.481 240.074 591.15 239.471 590.717 239.049C590.283 238.621 589.762 238.407 589.152 238.407C588.549 238.407 588.03 238.621 587.597 239.049C587.163 239.471 586.832 240.074 586.604 240.859C586.375 241.639 586.261 242.567 586.261 243.646V243.663C586.261 244.741 586.375 245.673 586.604 246.458C586.832 247.243 587.163 247.85 587.597 248.277C588.03 248.705 588.549 248.919 589.152 248.919Z" fill="#6B6B76"/>
<defs>
<linearGradient id="paint0_linear_2223_12" x1="2.5" y1="2.5" x2="219" y2="497.881" gradientUnits="userSpaceOnUse">
<stop stop-color="#4A7DFF"/>
<stop offset="0.5" stop-color="#A07AD0"/>
<stop offset="1" stop-color="#F0875A"/>
</linearGradient>
</defs>
</svg>
