<svg width="570" height="334" viewBox="0 0 570 334" fill="none" xmlns="http://www.w3.org/2000/svg">
<rect x="28" y="29" width="499" height="272" rx="13" fill="white" stroke="url(#paint0_linear_2225_27)" stroke-width="4" stroke-linejoin="round"/>
<path d="M58.082 82.3418C57.0612 82.3418 56.1452 82.2005 55.334 81.918C54.5319 81.6263 53.8438 81.2116 53.2695 80.6738C52.6953 80.1361 52.2533 79.4935 51.9434 78.7461C51.6335 77.9896 51.4648 77.1465 51.4375 76.2168L51.4238 76.0938H55.4297L55.4434 76.1758C55.4707 76.6862 55.5846 77.1374 55.7852 77.5293C55.9948 77.9212 56.2865 78.2266 56.6602 78.4453C57.043 78.6641 57.5033 78.7734 58.041 78.7734C58.9069 78.7734 59.5677 78.5137 60.0234 77.9941C60.4792 77.4746 60.707 76.7181 60.707 75.7246V62.2715H64.8359V75.7656C64.8359 77.1419 64.5671 78.3223 64.0293 79.3066C63.5007 80.291 62.735 81.043 61.7324 81.5625C60.7298 82.082 59.513 82.3418 58.082 82.3418ZM72.9297 82.3008C71.8542 82.3008 70.9382 82.082 70.1816 81.6445C69.4342 81.1979 68.86 80.5645 68.459 79.7441C68.0671 78.9238 67.8711 77.944 67.8711 76.8047V67.3438H71.8633V75.9707C71.8633 76.9277 72.0866 77.6706 72.5332 78.1992C72.9889 78.7279 73.6634 78.9922 74.5566 78.9922C75.0033 78.9922 75.4043 78.9147 75.7598 78.7598C76.1243 78.6048 76.4342 78.3861 76.6895 78.1035C76.9447 77.8118 77.1406 77.4701 77.2773 77.0781C77.4141 76.6771 77.4824 76.2396 77.4824 75.7656V67.3438H81.4746V82H77.4824V79.5801H77.4004C77.1452 80.1361 76.8079 80.6191 76.3887 81.0293C75.9785 81.4395 75.4818 81.7539 74.8984 81.9727C74.3242 82.1914 73.668 82.3008 72.9297 82.3008ZM84.0723 82V67.3438H88.0645V69.75H88.1465C88.5293 68.9115 89.0944 68.2507 89.8418 67.7676C90.5892 67.2845 91.5143 67.043 92.6172 67.043C94.2305 67.043 95.4746 67.5306 96.3496 68.5059C97.2337 69.472 97.6758 70.8164 97.6758 72.5391V82H93.6836V73.3594C93.6836 72.4023 93.4557 71.6641 93 71.1445C92.5534 70.6159 91.8835 70.3516 90.9902 70.3516C90.3978 70.3516 89.8828 70.4883 89.4453 70.7617C89.0078 71.026 88.666 71.3997 88.4199 71.8828C88.1829 72.3659 88.0645 72.931 88.0645 73.5781V82H84.0723ZM106.877 82.3008C105.382 82.3008 104.097 81.9954 103.021 81.3848C101.946 80.765 101.117 79.8854 100.533 78.7461C99.959 77.6068 99.6719 76.2578 99.6719 74.6992V74.6855C99.6719 73.127 99.959 71.778 100.533 70.6387C101.117 69.4902 101.932 68.6061 102.98 67.9863C104.038 67.3574 105.282 67.043 106.713 67.043C108.144 67.043 109.379 67.3483 110.418 67.959C111.466 68.5605 112.273 69.4128 112.838 70.5156C113.412 71.6185 113.699 72.9082 113.699 74.3848V75.6152H101.627V73.0996H111.812L109.912 75.4512V73.9199C109.912 73.0632 109.78 72.3477 109.516 71.7734C109.251 71.1901 108.882 70.7526 108.408 70.4609C107.943 70.1693 107.401 70.0234 106.781 70.0234C106.161 70.0234 105.61 70.1738 105.127 70.4746C104.653 70.7754 104.279 71.2174 104.006 71.8008C103.742 72.375 103.609 73.0814 103.609 73.9199V75.4648C103.609 76.276 103.742 76.9688 104.006 77.543C104.279 78.1172 104.667 78.5592 105.168 78.8691C105.669 79.1699 106.266 79.3203 106.959 79.3203C107.506 79.3203 107.98 79.2337 108.381 79.0605C108.782 78.8874 109.11 78.6686 109.365 78.4043C109.62 78.14 109.794 77.8711 109.885 77.5977L109.912 77.5156H113.576L113.535 77.666C113.426 78.2038 113.212 78.7461 112.893 79.293C112.574 79.8398 112.141 80.3411 111.594 80.7969C111.056 81.2526 110.395 81.6172 109.611 81.8906C108.837 82.1641 107.925 82.3008 106.877 82.3008ZM129.996 82.3008C129.294 82.3008 128.652 82.1868 128.068 81.959C127.485 81.7311 126.975 81.4121 126.537 81.002C126.1 80.5827 125.749 80.0814 125.484 79.498H125.402V82H121.41V62.2715H125.402V69.8867H125.484C125.758 69.2943 126.113 68.7884 126.551 68.3691C126.988 67.9408 127.499 67.6126 128.082 67.3848C128.674 67.1569 129.317 67.043 130.01 67.043C131.24 67.043 132.298 67.3483 133.182 67.959C134.075 68.5605 134.763 69.431 135.246 70.5703C135.729 71.7005 135.971 73.0632 135.971 74.6582V74.6719C135.971 76.2578 135.729 77.6204 135.246 78.7598C134.763 79.8991 134.075 80.7741 133.182 81.3848C132.288 81.9954 131.227 82.3008 129.996 82.3008ZM128.67 78.9922C129.335 78.9922 129.91 78.819 130.393 78.4727C130.876 78.1172 131.249 77.6159 131.514 76.9688C131.778 76.3216 131.91 75.556 131.91 74.6719V74.6582C131.91 73.765 131.778 72.9993 131.514 72.3613C131.249 71.7142 130.871 71.2174 130.379 70.8711C129.896 70.5247 129.326 70.3516 128.67 70.3516C128.023 70.3516 127.453 70.5293 126.961 70.8848C126.478 71.2311 126.095 71.7279 125.812 72.375C125.539 73.013 125.402 73.7741 125.402 74.6582V74.6719C125.402 75.556 125.539 76.3216 125.812 76.9688C126.086 77.6159 126.469 78.1172 126.961 78.4727C127.453 78.819 128.023 78.9922 128.67 78.9922ZM138.104 82V67.3438H142.096V82H138.104ZM140.1 65.457C139.498 65.457 138.992 65.252 138.582 64.8418C138.172 64.4316 137.967 63.944 137.967 63.3789C137.967 62.8047 138.172 62.3171 138.582 61.916C138.992 61.5059 139.498 61.3008 140.1 61.3008C140.701 61.3008 141.207 61.5059 141.617 61.916C142.027 62.3171 142.232 62.8047 142.232 63.3789C142.232 63.944 142.027 64.4316 141.617 64.8418C141.207 65.252 140.701 65.457 140.1 65.457ZM144.871 82V62.2715H148.863V82H144.871ZM151.652 82V62.2715H155.645V82H151.652ZM164.367 82.3008C163.018 82.3008 161.87 82.1048 160.922 81.7129C159.974 81.321 159.231 80.7786 158.693 80.0859C158.165 79.3841 157.846 78.5729 157.736 77.6523L157.723 77.5293H161.619L161.646 77.6523C161.774 78.2266 162.061 78.6732 162.508 78.9922C162.954 79.3112 163.574 79.4707 164.367 79.4707C164.878 79.4707 165.311 79.4115 165.666 79.293C166.021 79.1654 166.295 78.9876 166.486 78.7598C166.687 78.5319 166.787 78.2585 166.787 77.9395V77.9258C166.787 77.5339 166.646 77.2194 166.363 76.9824C166.081 76.7454 165.579 76.5449 164.859 76.3809L162.371 75.8613C161.423 75.6608 160.63 75.3737 159.992 75C159.363 74.6172 158.889 74.1478 158.57 73.5918C158.251 73.0267 158.092 72.3796 158.092 71.6504V71.6367C158.092 70.6979 158.342 69.8867 158.844 69.2031C159.345 68.5195 160.056 67.9909 160.977 67.6172C161.906 67.2344 162.991 67.043 164.23 67.043C165.525 67.043 166.623 67.2526 167.525 67.6719C168.437 68.082 169.134 68.638 169.617 69.3398C170.109 70.0417 170.369 70.821 170.396 71.6777V71.8145H166.719L166.705 71.7051C166.641 71.1764 166.395 70.7389 165.967 70.3926C165.548 70.0371 164.969 69.8594 164.23 69.8594C163.775 69.8594 163.378 69.9232 163.041 70.0508C162.704 70.1784 162.444 70.3607 162.262 70.5977C162.079 70.8255 161.988 71.099 161.988 71.418V71.4316C161.988 71.6777 162.048 71.901 162.166 72.1016C162.294 72.293 162.503 72.4616 162.795 72.6074C163.087 72.7533 163.479 72.8809 163.971 72.9902L166.459 73.5234C167.999 73.8424 169.102 74.321 169.768 74.959C170.442 75.597 170.779 76.4538 170.779 77.5293V77.543C170.779 78.5 170.506 79.334 169.959 80.0449C169.412 80.7559 168.656 81.3118 167.689 81.7129C166.732 82.1048 165.625 82.3008 164.367 82.3008Z" fill="#15151E"/>
<path d="M402.021 81.7129C400.481 81.7129 399.073 81.5124 397.797 81.1113C396.53 80.7012 395.436 80.0996 394.516 79.3066C393.595 78.5046 392.884 77.5065 392.383 76.3125C391.891 75.1094 391.645 73.7148 391.645 72.1289V72.1016C391.645 70.5156 391.891 69.1257 392.383 67.9316C392.884 66.7285 393.595 65.7305 394.516 64.9375C395.445 64.1354 396.544 63.5339 397.811 63.1328C399.077 62.7318 400.481 62.5312 402.021 62.5312C402.523 62.5312 403.015 62.5586 403.498 62.6133C403.99 62.6589 404.405 62.7272 404.742 62.8184V66.0996C404.414 66.0358 404.008 65.9857 403.525 65.9492C403.042 65.9128 402.591 65.8945 402.172 65.8945C401.169 65.8945 400.267 66.0221 399.465 66.2773C398.663 66.5326 397.979 66.9199 397.414 67.4395C396.849 67.9499 396.416 68.597 396.115 69.3809C395.814 70.1556 395.664 71.0671 395.664 72.1152V72.1426C395.664 73.1908 395.814 74.1022 396.115 74.877C396.416 75.6517 396.849 76.2988 397.414 76.8184C397.979 77.3288 398.663 77.7116 399.465 77.9668C400.267 78.2129 401.169 78.3359 402.172 78.3359C402.591 78.3359 403.042 78.3223 403.525 78.2949C404.008 78.2585 404.414 78.2083 404.742 78.1445V81.4258C404.405 81.5169 403.99 81.5898 403.498 81.6445C403.015 81.6901 402.523 81.7129 402.021 81.7129ZM389.32 74.6172V73.25H403.484V74.6172H389.32ZM389.32 70.9258V69.5586H403.484V70.9258H389.32ZM412.631 82V66.0586H412.549L407.518 69.4766V65.8125L412.617 62.2715H416.719V82H412.631ZM421.148 82V79.1699L428.121 72.6484C428.978 71.8555 429.625 71.1947 430.062 70.666C430.5 70.1374 430.796 69.6634 430.951 69.2441C431.115 68.8249 431.197 68.3874 431.197 67.9316V67.9043C431.197 67.3665 431.07 66.8926 430.814 66.4824C430.559 66.0632 430.204 65.735 429.748 65.498C429.301 65.2611 428.786 65.1426 428.203 65.1426C427.529 65.1426 426.936 65.2793 426.426 65.5527C425.915 65.8171 425.514 66.1862 425.223 66.6602C424.931 67.125 424.776 67.6536 424.758 68.2461L424.744 68.3691H420.916V68.2598C420.916 67.0202 421.23 65.9264 421.859 64.9785C422.488 64.0215 423.35 63.2741 424.443 62.7363C425.546 62.1986 426.79 61.9297 428.176 61.9297C429.57 61.9297 430.796 62.1758 431.854 62.668C432.911 63.151 433.736 63.8255 434.328 64.6914C434.921 65.5573 435.217 66.5508 435.217 67.6719V67.6992C435.217 68.4922 435.071 69.2305 434.779 69.9141C434.497 70.5885 434.027 71.3086 433.371 72.0742C432.715 72.8307 431.817 73.7331 430.678 74.7812L424.963 79.9902L426.549 77.2148V79.9902L424.977 78.7188H435.49V82H421.148ZM445.621 82.3418C444.19 82.3418 442.937 82.0866 441.861 81.5762C440.786 81.0658 439.934 80.373 439.305 79.498C438.676 78.623 438.32 77.6387 438.238 76.5449L438.225 76.3398H442.039L442.066 76.4355C442.167 76.9277 442.376 77.3743 442.695 77.7754C443.023 78.1764 443.438 78.4954 443.939 78.7324C444.441 78.9603 445.006 79.0742 445.635 79.0742C446.355 79.0742 446.988 78.9238 447.535 78.623C448.091 78.3132 448.524 77.8893 448.834 77.3516C449.153 76.8138 449.312 76.194 449.312 75.4922V75.4648C449.312 74.7721 449.153 74.1615 448.834 73.6328C448.524 73.0951 448.091 72.6758 447.535 72.375C446.988 72.0742 446.359 71.9238 445.648 71.9238C445.147 71.9238 444.682 71.9967 444.254 72.1426C443.826 72.2793 443.443 72.4844 443.105 72.7578C442.914 72.9128 442.736 73.0814 442.572 73.2637C442.408 73.446 442.271 73.6419 442.162 73.8516H438.566L439.469 62.2715H452.061V65.5527H442.75L442.271 71.1035H442.354C442.627 70.6569 442.982 70.2786 443.42 69.9688C443.867 69.6497 444.372 69.4036 444.938 69.2305C445.512 69.0573 446.132 68.9707 446.797 68.9707C448.055 68.9707 449.167 69.2487 450.133 69.8047C451.099 70.3516 451.86 71.1081 452.416 72.0742C452.972 73.0404 453.25 74.1432 453.25 75.3828V75.4102C453.25 76.7865 452.926 77.9941 452.279 79.0332C451.641 80.0723 450.748 80.8835 449.6 81.4668C448.451 82.0501 447.125 82.3418 445.621 82.3418ZM464.953 82V78.377H455.137V74.9316C455.665 74.0931 456.194 73.25 456.723 72.4023C457.251 71.5547 457.78 70.7116 458.309 69.873C458.837 69.0254 459.361 68.1823 459.881 67.3438C460.41 66.4961 460.938 65.6484 461.467 64.8008C461.995 63.9531 462.524 63.11 463.053 62.2715H468.877V75.082H471.475V78.377H468.877V82H464.953ZM458.732 75.1914H465.035V65.252H464.939C464.52 65.9082 464.105 66.5645 463.695 67.2207C463.285 67.877 462.87 68.5332 462.451 69.1895C462.041 69.8366 461.626 70.4928 461.207 71.1582C460.797 71.8145 460.382 72.4707 459.963 73.127C459.553 73.7741 459.143 74.4258 458.732 75.082V75.1914ZM475.658 82.2324C475.038 82.2324 474.514 82.0182 474.086 81.5898C473.658 81.1615 473.443 80.6374 473.443 80.0176C473.443 79.3978 473.658 78.8737 474.086 78.4453C474.514 78.0169 475.038 77.8027 475.658 77.8027C476.278 77.8027 476.802 78.0169 477.23 78.4453C477.659 78.8737 477.873 79.3978 477.873 80.0176C477.873 80.6374 477.659 81.1615 477.23 81.5898C476.802 82.0182 476.278 82.2324 475.658 82.2324ZM487.812 82.3418C486.145 82.3418 484.709 81.9271 483.506 81.0977C482.303 80.2682 481.378 79.0924 480.73 77.5703C480.092 76.0391 479.773 74.2298 479.773 72.1426V72.1152C479.773 70.0189 480.092 68.2096 480.73 66.6875C481.378 65.1654 482.303 63.9941 483.506 63.1738C484.709 62.3444 486.145 61.9297 487.812 61.9297C489.48 61.9297 490.911 62.3444 492.105 63.1738C493.309 63.9941 494.234 65.1654 494.881 66.6875C495.528 68.2096 495.852 70.0189 495.852 72.1152V72.1426C495.852 74.2298 495.528 76.0391 494.881 77.5703C494.234 79.0924 493.309 80.2682 492.105 81.0977C490.911 81.9271 489.48 82.3418 487.812 82.3418ZM487.812 79.0332C488.633 79.0332 489.33 78.7598 489.904 78.2129C490.479 77.666 490.916 76.8776 491.217 75.8477C491.527 74.8177 491.682 73.5827 491.682 72.1426V72.1152C491.682 70.666 491.527 69.431 491.217 68.4102C490.916 67.3802 490.479 66.5964 489.904 66.0586C489.33 65.5117 488.633 65.2383 487.812 65.2383C486.992 65.2383 486.29 65.5117 485.707 66.0586C485.133 66.5964 484.695 67.3802 484.395 68.4102C484.094 69.431 483.943 70.666 483.943 72.1152V72.1426C483.943 73.5827 484.094 74.8177 484.395 75.8477C484.695 76.8776 485.133 77.666 485.707 78.2129C486.29 78.7598 486.992 79.0332 487.812 79.0332Z" fill="#15151E"/>
<path d="M42 107L510 107.992" stroke="#E8E8ED" stroke-width="1.5" stroke-linecap="round"/>
<path d="M93 218C116.196 218 135 199.196 135 176C135 152.804 116.196 134 93 134C69.804 134 51 152.804 51 176C51 199.196 69.804 218 93 218Z" fill="#EFF1F4" stroke="#3B6FF5" stroke-width="3" stroke-linecap="round"/>
<path d="M67.6318 246V233.757H63.2534V231.204H75.1069V233.757H70.7285V246H67.6318ZM80.0596 246.236C78.9248 246.236 77.9438 246.003 77.1167 245.539C76.2896 245.074 75.6538 244.407 75.2095 243.539C74.7651 242.671 74.543 241.632 74.543 240.422V240.401C74.543 239.198 74.7686 238.163 75.2197 237.294C75.6709 236.426 76.3066 235.76 77.127 235.295C77.9541 234.823 78.9316 234.587 80.0596 234.587C81.1943 234.587 82.1719 234.82 82.9922 235.285C83.8193 235.75 84.4585 236.416 84.9097 237.284C85.3608 238.152 85.5864 239.191 85.5864 240.401V240.422C85.5864 241.632 85.3608 242.671 84.9097 243.539C84.4653 244.407 83.8296 245.074 83.0024 245.539C82.1821 246.003 81.2012 246.236 80.0596 246.236ZM80.0698 243.888C80.5825 243.888 81.02 243.751 81.3823 243.478C81.7515 243.204 82.0317 242.811 82.2231 242.298C82.4214 241.779 82.5205 241.153 82.5205 240.422V240.401C82.5205 239.67 82.4214 239.048 82.2231 238.535C82.0249 238.022 81.7412 237.629 81.3721 237.356C81.0098 237.076 80.5723 236.936 80.0596 236.936C79.5537 236.936 79.1162 237.076 78.7471 237.356C78.3779 237.629 78.0942 238.022 77.896 238.535C77.6978 239.048 77.5986 239.67 77.5986 240.401V240.422C77.5986 241.153 77.6943 241.779 77.8857 242.298C78.084 242.811 78.3677 243.204 78.7368 243.478C79.106 243.751 79.5503 243.888 80.0698 243.888ZM91.7183 246.195C90.7886 246.195 89.9819 245.962 89.2983 245.498C88.6147 245.033 88.0884 244.37 87.7192 243.508C87.3569 242.647 87.1758 241.618 87.1758 240.422V240.401C87.1758 239.198 87.3569 238.166 87.7192 237.305C88.0884 236.443 88.6113 235.784 89.2881 235.326C89.9648 234.861 90.7749 234.628 91.7183 234.628C92.231 234.628 92.7061 234.71 93.1436 234.875C93.5879 235.039 93.9741 235.274 94.3022 235.582C94.6372 235.883 94.9004 236.245 95.0918 236.669H95.2354V230.701H98.2295V246H95.2354V244.206H95.0918C94.9004 244.623 94.6406 244.978 94.3125 245.272C93.9912 245.566 93.6118 245.795 93.1743 245.959C92.7368 246.116 92.2515 246.195 91.7183 246.195ZM92.7231 243.713C93.2427 243.713 93.6904 243.583 94.0664 243.324C94.4424 243.057 94.7329 242.678 94.938 242.186C95.1499 241.687 95.2559 241.099 95.2559 240.422V240.412C95.2559 239.728 95.1499 239.14 94.938 238.648C94.7329 238.156 94.439 237.776 94.0562 237.51C93.6802 237.243 93.2358 237.11 92.7231 237.11C92.2173 237.11 91.7729 237.243 91.3901 237.51C91.0142 237.77 90.7236 238.146 90.5186 238.638C90.3203 239.13 90.2212 239.718 90.2212 240.401V240.422C90.2212 241.099 90.3203 241.687 90.5186 242.186C90.7236 242.678 91.0142 243.057 91.3901 243.324C91.7661 243.583 92.2104 243.713 92.7231 243.713ZM104.054 246.174C103.329 246.174 102.69 246.034 102.136 245.754C101.583 245.474 101.148 245.081 100.834 244.575C100.52 244.069 100.362 243.481 100.362 242.811V242.791C100.362 242.121 100.53 241.546 100.865 241.068C101.207 240.583 101.699 240.203 102.341 239.93C102.991 239.649 103.78 239.482 104.71 239.427L108.935 239.171V241.006L105.151 241.252C104.536 241.287 104.071 241.423 103.756 241.663C103.449 241.902 103.295 242.223 103.295 242.626V242.647C103.295 243.064 103.456 243.392 103.777 243.631C104.105 243.871 104.525 243.99 105.038 243.99C105.496 243.99 105.903 243.901 106.258 243.724C106.621 243.539 106.904 243.293 107.109 242.985C107.321 242.671 107.427 242.319 107.427 241.929V238.433C107.427 237.94 107.267 237.561 106.945 237.294C106.631 237.021 106.169 236.884 105.561 236.884C105.014 236.884 104.573 236.983 104.238 237.182C103.903 237.38 103.685 237.653 103.582 238.002L103.572 238.063H100.813L100.824 237.951C100.892 237.281 101.131 236.696 101.542 236.197C101.952 235.691 102.509 235.298 103.213 235.018C103.924 234.731 104.758 234.587 105.715 234.587C106.692 234.587 107.53 234.741 108.227 235.049C108.924 235.35 109.458 235.784 109.827 236.351C110.203 236.912 110.391 237.582 110.391 238.361V246H107.427V244.452H107.284C107.092 244.807 106.836 245.115 106.515 245.375C106.193 245.634 105.824 245.833 105.407 245.969C104.99 246.106 104.539 246.174 104.054 246.174ZM114.215 249.845C113.997 249.845 113.778 249.838 113.559 249.825C113.347 249.811 113.152 249.794 112.975 249.773V247.528C113.077 247.548 113.204 247.562 113.354 247.569C113.504 247.583 113.665 247.589 113.836 247.589C114.335 247.589 114.731 247.494 115.025 247.302C115.319 247.118 115.524 246.82 115.641 246.41L115.753 246L111.816 234.823H115.107L117.722 244.359L117.148 243.396H117.917L117.353 244.359L119.968 234.823H123.126L119.312 246.072C118.997 247.015 118.611 247.76 118.153 248.307C117.702 248.861 117.155 249.254 116.512 249.486C115.87 249.726 115.104 249.845 114.215 249.845Z" fill="#15151E"/>
<path d="M69.2871 275.815C68.2793 275.815 67.3623 275.687 66.5361 275.429C65.71 275.165 64.9951 274.778 64.3916 274.269C63.7939 273.753 63.334 273.111 63.0117 272.344C62.6895 271.57 62.5283 270.674 62.5283 269.654V269.646C62.5283 268.632 62.6895 267.741 63.0117 266.974C63.334 266.206 63.7939 265.564 64.3916 265.049C64.9893 264.533 65.6982 264.146 66.5186 263.889C67.3389 263.631 68.2412 263.502 69.2256 263.502C69.542 263.502 69.873 263.52 70.2188 263.555C70.5645 263.59 70.8516 263.64 71.0801 263.704V265.822C70.8516 265.775 70.5791 265.737 70.2627 265.708C69.9463 265.679 69.6299 265.664 69.3135 265.664C68.6807 265.664 68.1035 265.749 67.582 265.919C67.0664 266.083 66.624 266.332 66.2549 266.666C65.8857 266.994 65.6016 267.407 65.4023 267.905C65.209 268.403 65.1123 268.986 65.1123 269.654V269.663C65.1123 270.337 65.209 270.923 65.4023 271.421C65.6016 271.919 65.8857 272.335 66.2549 272.669C66.6299 272.997 67.0811 273.243 67.6084 273.407C68.1357 273.565 68.7246 273.645 69.375 273.645C69.6621 273.645 69.9697 273.636 70.2979 273.618C70.626 273.595 70.8984 273.562 71.1152 273.521V275.657C70.8867 275.71 70.6084 275.751 70.2803 275.78C69.9521 275.804 69.6211 275.815 69.2871 275.815ZM61.0342 271.403V270.393H70.1396V271.403H61.0342ZM61.0342 268.969V267.967H70.1396V268.969H61.0342ZM73.7871 276V274.216L77.8916 270.182C78.4834 269.607 78.9404 269.136 79.2627 268.767C79.5908 268.392 79.8193 268.066 79.9482 267.791C80.083 267.51 80.1504 267.223 80.1504 266.93V266.895C80.1504 266.537 80.0713 266.221 79.9131 265.945C79.7549 265.67 79.5293 265.456 79.2363 265.304C78.9434 265.146 78.5977 265.066 78.1992 265.066C77.7832 265.066 77.417 265.154 77.1006 265.33C76.7842 265.5 76.5381 265.737 76.3623 266.042C76.1865 266.341 76.0986 266.689 76.0986 267.088V267.141H73.6377V267.097C73.6377 266.282 73.834 265.57 74.2266 264.961C74.625 264.346 75.1729 263.865 75.8701 263.52C76.5732 263.174 77.3848 263.001 78.3047 263.001C79.1836 263.001 79.9541 263.156 80.6162 263.467C81.2842 263.777 81.8057 264.208 82.1807 264.759C82.5615 265.31 82.752 265.951 82.752 266.684V266.71C82.752 267.19 82.6582 267.659 82.4707 268.116C82.2832 268.573 81.9668 269.068 81.5215 269.602C81.0762 270.135 80.4697 270.759 79.7021 271.474L76.6084 274.348L77.3467 273.161V274.348L76.6172 273.864H82.9365V276H73.7871ZM90.3896 276.325C89.6514 276.325 88.9629 276.193 88.3242 275.93C87.6914 275.66 87.1348 275.259 86.6543 274.726C86.1797 274.187 85.8105 273.507 85.5469 272.687C85.2832 271.866 85.1514 270.896 85.1514 269.777V269.76C85.1514 268.348 85.3623 267.138 85.7842 266.13C86.2119 265.116 86.8184 264.343 87.6035 263.81C88.3887 263.271 89.3203 263.001 90.3984 263.001C91.2188 263.001 91.957 263.15 92.6133 263.449C93.2695 263.742 93.8086 264.146 94.2305 264.662C94.6582 265.178 94.9365 265.77 95.0654 266.438L95.083 266.517H92.4902L92.4551 266.438C92.3555 266.174 92.209 265.942 92.0156 265.743C91.8281 265.544 91.5996 265.389 91.3301 265.277C91.0605 265.166 90.7529 265.11 90.4072 265.11C89.7979 265.11 89.2969 265.295 88.9043 265.664C88.5117 266.027 88.2158 266.52 88.0166 267.141C87.8232 267.756 87.709 268.447 87.6738 269.215C87.668 269.303 87.665 269.391 87.665 269.479C87.665 269.561 87.665 269.648 87.665 269.742L88.0605 271.86C88.0605 272.306 88.1631 272.707 88.3682 273.064C88.5732 273.422 88.8516 273.703 89.2031 273.908C89.5547 274.113 89.9443 274.216 90.3721 274.216C90.7998 274.216 91.1865 274.116 91.5322 273.917C91.8838 273.712 92.1621 273.437 92.3672 273.091C92.5781 272.739 92.6836 272.347 92.6836 271.913V271.896C92.6836 271.45 92.584 271.058 92.3848 270.718C92.1855 270.372 91.9131 270.103 91.5674 269.909C91.2275 269.71 90.835 269.61 90.3896 269.61C89.9561 269.61 89.5635 269.707 89.2119 269.9C88.8604 270.088 88.5791 270.352 88.3682 270.691C88.1631 271.025 88.0605 271.412 88.0605 271.852V271.86H87.5332V269.514H87.8408C87.9932 269.18 88.2129 268.872 88.5 268.591C88.793 268.31 89.1562 268.084 89.5898 267.914C90.0234 267.738 90.5332 267.65 91.1191 267.65C91.9395 267.65 92.6602 267.829 93.2812 268.187C93.9023 268.544 94.3857 269.036 94.7314 269.663C95.0771 270.29 95.25 271.005 95.25 271.808V271.825C95.25 272.687 95.042 273.457 94.626 274.137C94.2158 274.816 93.6445 275.353 92.9121 275.745C92.1855 276.132 91.3447 276.325 90.3896 276.325ZM103.503 276V273.671H97.2891V271.579C97.6113 271.011 97.9365 270.445 98.2646 269.883C98.5986 269.314 98.9326 268.752 99.2666 268.195C99.6006 267.639 99.9375 267.088 100.277 266.543C100.617 265.992 100.957 265.447 101.297 264.908C101.637 264.369 101.977 263.839 102.316 263.317H106.034V271.544H107.695V273.671H106.034V276H103.503ZM99.6709 271.623H103.564V265.33H103.424C103.178 265.711 102.926 266.104 102.668 266.508C102.416 266.906 102.161 267.313 101.903 267.729C101.646 268.14 101.391 268.556 101.139 268.978C100.887 269.394 100.638 269.812 100.392 270.234C100.146 270.65 99.9053 271.066 99.6709 271.482V271.623ZM111.483 276.22C111.038 276.22 110.669 276.073 110.376 275.78C110.089 275.487 109.945 275.127 109.945 274.699C109.945 274.26 110.089 273.896 110.376 273.609C110.669 273.322 111.038 273.179 111.483 273.179C111.935 273.179 112.304 273.322 112.591 273.609C112.878 273.896 113.021 274.26 113.021 274.699C113.021 275.127 112.878 275.487 112.591 275.78C112.304 276.073 111.935 276.22 111.483 276.22ZM119.912 276.316C118.863 276.316 117.961 276.047 117.205 275.508C116.455 274.969 115.878 274.201 115.474 273.205C115.069 272.209 114.867 271.028 114.867 269.663V269.646C114.867 268.28 115.069 267.103 115.474 266.112C115.878 265.116 116.455 264.349 117.205 263.81C117.961 263.271 118.863 263.001 119.912 263.001C120.955 263.001 121.852 263.271 122.602 263.81C123.357 264.349 123.938 265.116 124.342 266.112C124.746 267.103 124.948 268.28 124.948 269.646V269.663C124.948 271.028 124.746 272.209 124.342 273.205C123.938 274.201 123.357 274.969 122.602 275.508C121.852 276.047 120.955 276.316 119.912 276.316ZM119.912 274.225C120.41 274.225 120.835 274.043 121.187 273.68C121.538 273.316 121.805 272.795 121.986 272.115C122.174 271.436 122.268 270.618 122.268 269.663V269.646C122.268 268.69 122.174 267.876 121.986 267.202C121.805 266.522 121.538 266.004 121.187 265.646C120.835 265.283 120.41 265.102 119.912 265.102C119.408 265.102 118.98 265.283 118.629 265.646C118.283 266.004 118.017 266.522 117.829 267.202C117.642 267.876 117.548 268.69 117.548 269.646V269.663C117.548 270.618 117.642 271.436 117.829 272.115C118.017 272.795 118.283 273.316 118.629 273.68C118.98 274.043 119.408 274.225 119.912 274.225Z" fill="black"/>
<path d="M83.9336 188V184.563L92.4004 176.645C93.4408 175.682 94.2266 174.879 94.7578 174.237C95.2891 173.595 95.6488 173.02 95.8369 172.511C96.0361 172.002 96.1357 171.47 96.1357 170.917V170.884C96.1357 170.231 95.9808 169.655 95.6709 169.157C95.361 168.648 94.9294 168.25 94.376 167.962C93.8337 167.674 93.2083 167.53 92.5 167.53C91.681 167.53 90.9616 167.696 90.3418 168.028C89.722 168.349 89.235 168.798 88.8809 169.373C88.5267 169.938 88.3385 170.579 88.3164 171.299L88.2998 171.448H83.6514V171.315C83.6514 169.81 84.0332 168.482 84.7969 167.331C85.5605 166.169 86.6064 165.261 87.9346 164.608C89.2738 163.955 90.7845 163.629 92.4668 163.629C94.1602 163.629 95.6488 163.928 96.9326 164.525C98.2165 165.112 99.2181 165.931 99.9375 166.982C100.657 168.034 101.017 169.24 101.017 170.602V170.635C101.017 171.598 100.84 172.494 100.485 173.324C100.142 174.143 99.5723 175.018 98.7754 175.947C97.9785 176.866 96.8883 177.962 95.5049 179.234L88.5654 185.56L90.4912 182.189V185.56L88.582 184.016H101.349V188H83.9336Z" fill="#3B6FF5"/>
<path d="M206 218C229.196 218 248 199.196 248 176C248 152.804 229.196 134 206 134C182.804 134 164 152.804 164 176C164 199.196 182.804 218 206 218Z" fill="#EFF1F4" stroke="#F5C518" stroke-width="3" stroke-linecap="round"/>
<path d="M166.061 246V231.204H169.619L173.751 241.96H173.885L178.017 231.204H181.575V246H178.817V235.951H177.33L180.334 231.614L174.787 246H172.849L167.302 231.614L170.306 235.951H168.819V246H166.061ZM189.481 246.236C188.346 246.236 187.365 246.003 186.538 245.539C185.711 245.074 185.075 244.407 184.631 243.539C184.187 242.671 183.964 241.632 183.964 240.422V240.401C183.964 239.198 184.19 238.163 184.641 237.294C185.092 236.426 185.728 235.76 186.548 235.295C187.375 234.823 188.353 234.587 189.481 234.587C190.616 234.587 191.593 234.82 192.414 235.285C193.241 235.75 193.88 236.416 194.331 237.284C194.782 238.152 195.008 239.191 195.008 240.401V240.422C195.008 241.632 194.782 242.671 194.331 243.539C193.887 244.407 193.251 245.074 192.424 245.539C191.604 246.003 190.623 246.236 189.481 246.236ZM189.491 243.888C190.004 243.888 190.441 243.751 190.804 243.478C191.173 243.204 191.453 242.811 191.645 242.298C191.843 241.779 191.942 241.153 191.942 240.422V240.401C191.942 239.67 191.843 239.048 191.645 238.535C191.446 238.022 191.163 237.629 190.793 237.356C190.431 237.076 189.994 236.936 189.481 236.936C188.975 236.936 188.538 237.076 188.168 237.356C187.799 237.629 187.516 238.022 187.317 238.535C187.119 239.048 187.02 239.67 187.02 240.401V240.422C187.02 241.153 187.116 241.779 187.307 242.298C187.505 242.811 187.789 243.204 188.158 243.478C188.527 243.751 188.972 243.888 189.491 243.888ZM197.1 246V234.823H200.094V236.597H200.227C200.494 235.975 200.904 235.486 201.458 235.131C202.011 234.769 202.695 234.587 203.508 234.587C204.746 234.587 205.692 234.957 206.349 235.695C207.012 236.426 207.343 237.455 207.343 238.781V246H204.349V239.438C204.349 238.665 204.182 238.077 203.847 237.674C203.512 237.271 202.996 237.069 202.298 237.069C201.847 237.069 201.454 237.175 201.119 237.387C200.791 237.592 200.538 237.879 200.36 238.248C200.183 238.617 200.094 239.051 200.094 239.55V246H197.1ZM214.418 246.113C213.106 246.113 212.149 245.867 211.547 245.375C210.953 244.882 210.655 244.072 210.655 242.944V237.079H209.004V234.823H210.655V232.137H213.68V234.823H215.895V237.079H213.68V242.391C213.68 242.903 213.793 243.272 214.019 243.498C214.251 243.717 214.613 243.826 215.105 243.826C215.27 243.826 215.41 243.823 215.526 243.816C215.649 243.802 215.772 243.789 215.895 243.775V245.99C215.717 246.024 215.499 246.051 215.239 246.072C214.986 246.099 214.712 246.113 214.418 246.113ZM218.141 246V230.701H221.135V236.628H221.278C221.545 235.985 221.955 235.486 222.509 235.131C223.069 234.769 223.756 234.587 224.57 234.587C225.39 234.587 226.087 234.758 226.662 235.1C227.236 235.435 227.673 235.92 227.974 236.556C228.275 237.192 228.425 237.958 228.425 238.853V246H225.431V239.509C225.431 238.723 225.257 238.122 224.908 237.705C224.56 237.281 224.037 237.069 223.339 237.069C222.888 237.069 222.499 237.175 222.17 237.387C221.842 237.592 221.586 237.882 221.401 238.258C221.224 238.627 221.135 239.062 221.135 239.561V246H218.141ZM231.04 246V230.701H234.034V246H231.04ZM238.218 249.845C237.999 249.845 237.78 249.838 237.562 249.825C237.35 249.811 237.155 249.794 236.977 249.773V247.528C237.08 247.548 237.206 247.562 237.356 247.569C237.507 247.583 237.667 247.589 237.838 247.589C238.337 247.589 238.734 247.494 239.028 247.302C239.322 247.118 239.527 246.82 239.643 246.41L239.756 246L235.818 234.823H239.11L241.725 244.359L241.15 243.396H241.919L241.355 244.359L243.97 234.823H247.128L243.314 246.072C243 247.015 242.613 247.76 242.155 248.307C241.704 248.861 241.157 249.254 240.515 249.486C239.872 249.726 239.106 249.845 238.218 249.845Z" fill="#15151E"/>
<path d="M177.875 275.815C176.867 275.815 175.95 275.687 175.124 275.429C174.298 275.165 173.583 274.778 172.979 274.269C172.382 273.753 171.922 273.111 171.6 272.344C171.277 271.57 171.116 270.674 171.116 269.654V269.646C171.116 268.632 171.277 267.741 171.6 266.974C171.922 266.206 172.382 265.564 172.979 265.049C173.577 264.533 174.286 264.146 175.106 263.889C175.927 263.631 176.829 263.502 177.813 263.502C178.13 263.502 178.461 263.52 178.807 263.555C179.152 263.59 179.439 263.64 179.668 263.704V265.822C179.439 265.775 179.167 265.737 178.851 265.708C178.534 265.679 178.218 265.664 177.901 265.664C177.269 265.664 176.691 265.749 176.17 265.919C175.654 266.083 175.212 266.332 174.843 266.666C174.474 266.994 174.189 267.407 173.99 267.905C173.797 268.403 173.7 268.986 173.7 269.654V269.663C173.7 270.337 173.797 270.923 173.99 271.421C174.189 271.919 174.474 272.335 174.843 272.669C175.218 272.997 175.669 273.243 176.196 273.407C176.724 273.565 177.312 273.645 177.963 273.645C178.25 273.645 178.558 273.636 178.886 273.618C179.214 273.595 179.486 273.562 179.703 273.521V275.657C179.475 275.71 179.196 275.751 178.868 275.78C178.54 275.804 178.209 275.815 177.875 275.815ZM169.622 271.403V270.393H178.728V271.403H169.622ZM169.622 268.969V267.967H178.728V268.969H169.622ZM185.478 276V265.822H185.328L182.208 267.984V265.594L185.486 263.317H188.132V276H185.478ZM191.568 276V274.216L195.673 270.182C196.265 269.607 196.722 269.136 197.044 268.767C197.372 268.392 197.601 268.066 197.729 267.791C197.864 267.51 197.932 267.223 197.932 266.93V266.895C197.932 266.537 197.853 266.221 197.694 265.945C197.536 265.67 197.311 265.456 197.018 265.304C196.725 265.146 196.379 265.066 195.98 265.066C195.564 265.066 195.198 265.154 194.882 265.33C194.565 265.5 194.319 265.737 194.144 266.042C193.968 266.341 193.88 266.689 193.88 267.088V267.141H191.419V267.097C191.419 266.282 191.615 265.57 192.008 264.961C192.406 264.346 192.954 263.865 193.651 263.52C194.354 263.174 195.166 263.001 196.086 263.001C196.965 263.001 197.735 263.156 198.397 263.467C199.065 263.777 199.587 264.208 199.962 264.759C200.343 265.31 200.533 265.951 200.533 266.684V266.71C200.533 267.19 200.439 267.659 200.252 268.116C200.064 268.573 199.748 269.068 199.303 269.602C198.857 270.135 198.251 270.759 197.483 271.474L194.39 274.348L195.128 273.161V274.348L194.398 273.864H200.718V276H191.568ZM207.925 276.316C207.022 276.316 206.231 276.152 205.552 275.824C204.872 275.496 204.333 275.051 203.935 274.488C203.536 273.926 203.311 273.293 203.258 272.59L203.249 272.458H205.666L205.684 272.52C205.748 272.836 205.88 273.123 206.079 273.381C206.284 273.633 206.545 273.835 206.861 273.987C207.178 274.134 207.535 274.207 207.934 274.207C208.391 274.207 208.792 274.107 209.138 273.908C209.489 273.709 209.762 273.437 209.955 273.091C210.154 272.739 210.254 272.338 210.254 271.887V271.869C210.254 271.418 210.154 271.02 209.955 270.674C209.756 270.328 209.483 270.059 209.138 269.865C208.792 269.672 208.394 269.575 207.942 269.575C207.626 269.575 207.333 269.622 207.063 269.716C206.794 269.804 206.551 269.938 206.334 270.12C206.217 270.214 206.105 270.322 206 270.445C205.9 270.562 205.815 270.688 205.745 270.823H203.469L204.049 263.317H211.994V265.427H206.123L205.807 269.039H205.965C206.135 268.752 206.352 268.506 206.615 268.301C206.885 268.096 207.192 267.938 207.538 267.826C207.89 267.715 208.268 267.659 208.672 267.659C209.463 267.659 210.163 267.838 210.772 268.195C211.388 268.553 211.871 269.045 212.223 269.672C212.574 270.293 212.75 271.008 212.75 271.816V271.834C212.75 272.725 212.545 273.507 212.135 274.181C211.73 274.854 211.165 275.379 210.438 275.754C209.712 276.129 208.874 276.316 207.925 276.316ZM220.915 276V273.671H214.701V271.579C215.023 271.011 215.349 270.445 215.677 269.883C216.011 269.314 216.345 268.752 216.679 268.195C217.013 267.639 217.35 267.088 217.689 266.543C218.029 265.992 218.369 265.447 218.709 264.908C219.049 264.369 219.389 263.839 219.729 263.317H223.446V271.544H225.107V273.671H223.446V276H220.915ZM217.083 271.623H220.977V265.33H220.836C220.59 265.711 220.338 266.104 220.08 266.508C219.828 266.906 219.573 267.313 219.315 267.729C219.058 268.14 218.803 268.556 218.551 268.978C218.299 269.394 218.05 269.812 217.804 270.234C217.558 270.65 217.317 271.066 217.083 271.482V271.623ZM228.896 276.22C228.45 276.22 228.081 276.073 227.788 275.78C227.501 275.487 227.357 275.127 227.357 274.699C227.357 274.26 227.501 273.896 227.788 273.609C228.081 273.322 228.45 273.179 228.896 273.179C229.347 273.179 229.716 273.322 230.003 273.609C230.29 273.896 230.434 274.26 230.434 274.699C230.434 275.127 230.29 275.487 230.003 275.78C229.716 276.073 229.347 276.22 228.896 276.22ZM237.324 276.316C236.275 276.316 235.373 276.047 234.617 275.508C233.867 274.969 233.29 274.201 232.886 273.205C232.481 272.209 232.279 271.028 232.279 269.663V269.646C232.279 268.28 232.481 267.103 232.886 266.112C233.29 265.116 233.867 264.349 234.617 263.81C235.373 263.271 236.275 263.001 237.324 263.001C238.367 263.001 239.264 263.271 240.014 263.81C240.77 264.349 241.35 265.116 241.754 266.112C242.158 267.103 242.36 268.28 242.36 269.646V269.663C242.36 271.028 242.158 272.209 241.754 273.205C241.35 274.201 240.77 274.969 240.014 275.508C239.264 276.047 238.367 276.316 237.324 276.316ZM237.324 274.225C237.822 274.225 238.247 274.043 238.599 273.68C238.95 273.316 239.217 272.795 239.398 272.115C239.586 271.436 239.68 270.618 239.68 269.663V269.646C239.68 268.69 239.586 267.876 239.398 267.202C239.217 266.522 238.95 266.004 238.599 265.646C238.247 265.283 237.822 265.102 237.324 265.102C236.82 265.102 236.393 265.283 236.041 265.646C235.695 266.004 235.429 266.522 235.241 267.202C235.054 267.876 234.96 268.69 234.96 269.646V269.663C234.96 270.618 235.054 271.436 235.241 272.115C235.429 272.795 235.695 273.316 236.041 273.68C236.393 274.043 236.82 274.225 237.324 274.225Z" fill="black"/>
<path d="M188.766 189V185.563L197.232 177.645C198.273 176.682 199.059 175.879 199.59 175.237C200.121 174.595 200.481 174.02 200.669 173.511C200.868 173.002 200.968 172.47 200.968 171.917V171.884C200.968 171.231 200.813 170.655 200.503 170.157C200.193 169.648 199.761 169.25 199.208 168.962C198.666 168.674 198.04 168.53 197.332 168.53C196.513 168.53 195.794 168.696 195.174 169.028C194.554 169.349 194.067 169.798 193.713 170.373C193.359 170.938 193.171 171.579 193.148 172.299L193.132 172.448H188.483V172.315C188.483 170.81 188.865 169.482 189.629 168.331C190.393 167.169 191.438 166.261 192.767 165.608C194.106 164.955 195.617 164.629 197.299 164.629C198.992 164.629 200.481 164.928 201.765 165.525C203.049 166.112 204.05 166.931 204.77 167.982C205.489 169.034 205.849 170.24 205.849 171.602V171.635C205.849 172.598 205.672 173.494 205.317 174.324C204.974 175.143 204.404 176.018 203.607 176.947C202.811 177.866 201.72 178.962 200.337 180.234L193.397 186.56L195.323 183.189V186.56L193.414 185.016H206.181V189H188.766ZM215.278 189V169.643H215.179L209.069 173.793V169.344L215.262 165.044H220.242V189H215.278Z" fill="#F5C518"/>
<path d="M320.5 218C343.696 218 362.5 199.196 362.5 176C362.5 152.804 343.696 134 320.5 134C297.304 134 278.5 152.804 278.5 176C278.5 199.196 297.304 218 320.5 218Z" fill="#EFF1F4" stroke="#F2784B" stroke-width="3" stroke-linecap="round"/>
<path d="M285.411 246.328C283.948 246.328 282.684 246.017 281.617 245.395C280.551 244.766 279.727 243.874 279.146 242.719C278.572 241.563 278.285 240.193 278.285 238.607V238.586C278.285 237 278.575 235.633 279.156 234.485C279.744 233.33 280.571 232.441 281.638 231.819C282.704 231.19 283.962 230.875 285.411 230.875C286.874 230.875 288.135 231.19 289.195 231.819C290.261 232.441 291.085 233.33 291.666 234.485C292.247 235.633 292.538 237 292.538 238.586V238.607C292.538 240.193 292.247 241.563 291.666 242.719C291.092 243.874 290.271 244.766 289.205 245.395C288.139 246.017 286.874 246.328 285.411 246.328ZM285.411 243.703C286.225 243.703 286.925 243.495 287.513 243.078C288.108 242.661 288.566 242.069 288.887 241.304C289.215 240.538 289.379 239.639 289.379 238.607V238.586C289.379 237.547 289.215 236.648 288.887 235.89C288.566 235.124 288.108 234.536 287.513 234.126C286.918 233.709 286.218 233.5 285.411 233.5C284.611 233.5 283.914 233.709 283.319 234.126C282.725 234.536 282.263 235.124 281.935 235.89C281.607 236.648 281.443 237.547 281.443 238.586V238.607C281.443 239.639 281.604 240.538 281.925 241.304C282.253 242.069 282.714 242.661 283.309 243.078C283.904 243.495 284.604 243.703 285.411 243.703ZM297.757 246L293.881 234.823H297.09L299.408 243.262H299.551L301.848 234.823H304.986L301.13 246H297.757ZM311.189 246.236C310.055 246.236 309.077 246 308.257 245.528C307.443 245.057 306.814 244.387 306.37 243.519C305.933 242.65 305.714 241.622 305.714 240.432V240.422C305.714 239.232 305.933 238.204 306.37 237.335C306.808 236.46 307.426 235.784 308.226 235.305C309.033 234.827 309.979 234.587 311.066 234.587C312.153 234.587 313.093 234.82 313.886 235.285C314.679 235.75 315.291 236.402 315.722 237.243C316.152 238.084 316.368 239.068 316.368 240.196V241.129H307.201V239.243H314.942L313.527 241.017V239.837C313.527 239.174 313.425 238.621 313.22 238.176C313.015 237.725 312.731 237.387 312.369 237.161C312.013 236.936 311.596 236.823 311.118 236.823C310.646 236.823 310.226 236.939 309.856 237.171C309.487 237.404 309.197 237.746 308.985 238.197C308.78 238.648 308.677 239.195 308.677 239.837V241.027C308.677 241.649 308.78 242.182 308.985 242.626C309.19 243.071 309.484 243.413 309.867 243.652C310.256 243.884 310.718 244 311.251 244C311.682 244 312.047 243.936 312.348 243.806C312.656 243.676 312.902 243.519 313.086 243.334C313.278 243.149 313.408 242.975 313.476 242.811L313.507 242.75H316.275L316.255 242.852C316.166 243.228 316.002 243.614 315.763 244.011C315.53 244.4 315.209 244.766 314.799 245.108C314.396 245.443 313.893 245.716 313.292 245.928C312.697 246.133 311.996 246.236 311.189 246.236ZM318.48 246V234.823H321.474V236.638H321.607C321.778 236.002 322.1 235.51 322.571 235.162C323.043 234.806 323.624 234.628 324.314 234.628C324.506 234.628 324.69 234.642 324.868 234.669C325.053 234.69 325.21 234.721 325.34 234.762V237.376C325.155 237.329 324.954 237.291 324.735 237.264C324.523 237.229 324.304 237.212 324.079 237.212C323.539 237.212 323.074 237.315 322.684 237.52C322.294 237.718 321.994 238.005 321.782 238.381C321.577 238.757 321.474 239.212 321.474 239.745V246H318.48ZM330.805 246.195C329.875 246.195 329.069 245.962 328.385 245.498C327.702 245.033 327.175 244.37 326.806 243.508C326.444 242.647 326.263 241.618 326.263 240.422V240.401C326.263 239.198 326.444 238.166 326.806 237.305C327.175 236.443 327.698 235.784 328.375 235.326C329.052 234.861 329.862 234.628 330.805 234.628C331.318 234.628 331.793 234.71 332.23 234.875C332.675 235.039 333.061 235.274 333.389 235.582C333.724 235.883 333.987 236.245 334.179 236.669H334.322V230.701H337.316V246H334.322V244.206H334.179C333.987 244.623 333.728 244.978 333.399 245.272C333.078 245.566 332.699 245.795 332.261 245.959C331.824 246.116 331.338 246.195 330.805 246.195ZM331.81 243.713C332.33 243.713 332.777 243.583 333.153 243.324C333.529 243.057 333.82 242.678 334.025 242.186C334.237 241.687 334.343 241.099 334.343 240.422V240.412C334.343 239.728 334.237 239.14 334.025 238.648C333.82 238.156 333.526 237.776 333.143 237.51C332.767 237.243 332.323 237.11 331.81 237.11C331.304 237.11 330.86 237.243 330.477 237.51C330.101 237.77 329.811 238.146 329.605 238.638C329.407 239.13 329.308 239.718 329.308 240.401V240.422C329.308 241.099 329.407 241.687 329.605 242.186C329.811 242.678 330.101 243.057 330.477 243.324C330.853 243.583 331.297 243.713 331.81 243.713ZM343.715 246.236C342.895 246.236 342.197 246.072 341.623 245.744C341.056 245.409 340.625 244.93 340.331 244.308C340.044 243.679 339.9 242.924 339.9 242.042V234.823H342.895V241.386C342.895 242.151 343.059 242.739 343.387 243.149C343.715 243.553 344.224 243.754 344.915 243.754C345.27 243.754 345.588 243.696 345.868 243.58C346.148 243.457 346.384 243.29 346.576 243.078C346.767 242.859 346.911 242.596 347.006 242.288C347.109 241.98 347.16 241.642 347.16 241.273V234.823H350.154V246H347.16V244.236H347.017C346.846 244.646 346.603 245.002 346.289 245.303C345.981 245.604 345.612 245.836 345.181 246C344.75 246.157 344.262 246.236 343.715 246.236ZM357.722 246.236C356.587 246.236 355.609 246 354.789 245.528C353.976 245.057 353.347 244.387 352.902 243.519C352.465 242.65 352.246 241.622 352.246 240.432V240.422C352.246 239.232 352.465 238.204 352.902 237.335C353.34 236.46 353.958 235.784 354.758 235.305C355.565 234.827 356.512 234.587 357.599 234.587C358.686 234.587 359.625 234.82 360.418 235.285C361.211 235.75 361.823 236.402 362.254 237.243C362.685 238.084 362.9 239.068 362.9 240.196V241.129H353.733V239.243H361.475L360.06 241.017V239.837C360.06 239.174 359.957 238.621 359.752 238.176C359.547 237.725 359.263 237.387 358.901 237.161C358.545 236.936 358.128 236.823 357.65 236.823C357.178 236.823 356.758 236.939 356.389 237.171C356.02 237.404 355.729 237.746 355.517 238.197C355.312 238.648 355.209 239.195 355.209 239.837V241.027C355.209 241.649 355.312 242.182 355.517 242.626C355.722 243.071 356.016 243.413 356.399 243.652C356.789 243.884 357.25 244 357.783 244C358.214 244 358.58 243.936 358.88 243.806C359.188 243.676 359.434 243.519 359.619 243.334C359.81 243.149 359.94 242.975 360.008 242.811L360.039 242.75H362.808L362.787 242.852C362.698 243.228 362.534 243.614 362.295 244.011C362.062 244.4 361.741 244.766 361.331 245.108C360.928 245.443 360.425 245.716 359.824 245.928C359.229 246.133 358.528 246.236 357.722 246.236Z" fill="#15151E"/>
<path d="M296.576 275.815C295.568 275.815 294.651 275.687 293.825 275.429C292.999 275.165 292.284 274.778 291.681 274.269C291.083 273.753 290.623 273.111 290.301 272.344C289.979 271.57 289.817 270.674 289.817 269.654V269.646C289.817 268.632 289.979 267.741 290.301 266.974C290.623 266.206 291.083 265.564 291.681 265.049C292.278 264.533 292.987 264.146 293.808 263.889C294.628 263.631 295.53 263.502 296.515 263.502C296.831 263.502 297.162 263.52 297.508 263.555C297.854 263.59 298.141 263.64 298.369 263.704V265.822C298.141 265.775 297.868 265.737 297.552 265.708C297.235 265.679 296.919 265.664 296.603 265.664C295.97 265.664 295.393 265.749 294.871 265.919C294.355 266.083 293.913 266.332 293.544 266.666C293.175 266.994 292.891 267.407 292.691 267.905C292.498 268.403 292.401 268.986 292.401 269.654V269.663C292.401 270.337 292.498 270.923 292.691 271.421C292.891 271.919 293.175 272.335 293.544 272.669C293.919 272.997 294.37 273.243 294.897 273.407C295.425 273.565 296.014 273.645 296.664 273.645C296.951 273.645 297.259 273.636 297.587 273.618C297.915 273.595 298.188 273.562 298.404 273.521V275.657C298.176 275.71 297.897 275.751 297.569 275.78C297.241 275.804 296.91 275.815 296.576 275.815ZM288.323 271.403V270.393H297.429V271.403H288.323ZM288.323 268.969V267.967H297.429V268.969H288.323ZM306.956 276V273.671H300.742V271.579C301.064 271.011 301.39 270.445 301.718 269.883C302.052 269.314 302.386 268.752 302.72 268.195C303.054 267.639 303.391 267.088 303.73 266.543C304.07 265.992 304.41 265.447 304.75 264.908C305.09 264.369 305.43 263.839 305.77 263.317H309.487V271.544H311.148V273.671H309.487V276H306.956ZM303.124 271.623H307.018V265.33H306.877C306.631 265.711 306.379 266.104 306.121 266.508C305.869 266.906 305.614 267.313 305.356 267.729C305.099 268.14 304.844 268.556 304.592 268.978C304.34 269.394 304.091 269.812 303.845 270.234C303.599 270.65 303.358 271.066 303.124 271.482V271.623ZM318.47 276.325C317.731 276.325 317.043 276.193 316.404 275.93C315.771 275.66 315.215 275.259 314.734 274.726C314.26 274.187 313.891 273.507 313.627 272.687C313.363 271.866 313.231 270.896 313.231 269.777V269.76C313.231 268.348 313.442 267.138 313.864 266.13C314.292 265.116 314.898 264.343 315.684 263.81C316.469 263.271 317.4 263.001 318.479 263.001C319.299 263.001 320.037 263.15 320.693 263.449C321.35 263.742 321.889 264.146 322.311 264.662C322.738 265.178 323.017 265.77 323.146 266.438L323.163 266.517H320.57L320.535 266.438C320.436 266.174 320.289 265.942 320.096 265.743C319.908 265.544 319.68 265.389 319.41 265.277C319.141 265.166 318.833 265.11 318.487 265.11C317.878 265.11 317.377 265.295 316.984 265.664C316.592 266.027 316.296 266.52 316.097 267.141C315.903 267.756 315.789 268.447 315.754 269.215C315.748 269.303 315.745 269.391 315.745 269.479C315.745 269.561 315.745 269.648 315.745 269.742L316.141 271.86C316.141 272.306 316.243 272.707 316.448 273.064C316.653 273.422 316.932 273.703 317.283 273.908C317.635 274.113 318.024 274.216 318.452 274.216C318.88 274.216 319.267 274.116 319.612 273.917C319.964 273.712 320.242 273.437 320.447 273.091C320.658 272.739 320.764 272.347 320.764 271.913V271.896C320.764 271.45 320.664 271.058 320.465 270.718C320.266 270.372 319.993 270.103 319.647 269.909C319.308 269.71 318.915 269.61 318.47 269.61C318.036 269.61 317.644 269.707 317.292 269.9C316.94 270.088 316.659 270.352 316.448 270.691C316.243 271.025 316.141 271.412 316.141 271.852V271.86H315.613V269.514H315.921C316.073 269.18 316.293 268.872 316.58 268.591C316.873 268.31 317.236 268.084 317.67 267.914C318.104 267.738 318.613 267.65 319.199 267.65C320.02 267.65 320.74 267.829 321.361 268.187C321.982 268.544 322.466 269.036 322.812 269.663C323.157 270.29 323.33 271.005 323.33 271.808V271.825C323.33 272.687 323.122 273.457 322.706 274.137C322.296 274.816 321.725 275.353 320.992 275.745C320.266 276.132 319.425 276.325 318.47 276.325ZM325.703 276V274.216L329.808 270.182C330.399 269.607 330.856 269.136 331.179 268.767C331.507 268.392 331.735 268.066 331.864 267.791C331.999 267.51 332.066 267.223 332.066 266.93V266.895C332.066 266.537 331.987 266.221 331.829 265.945C331.671 265.67 331.445 265.456 331.152 265.304C330.859 265.146 330.514 265.066 330.115 265.066C329.699 265.066 329.333 265.154 329.017 265.33C328.7 265.5 328.454 265.737 328.278 266.042C328.103 266.341 328.015 266.689 328.015 267.088V267.141H325.554V267.097C325.554 266.282 325.75 265.57 326.143 264.961C326.541 264.346 327.089 263.865 327.786 263.52C328.489 263.174 329.301 263.001 330.221 263.001C331.1 263.001 331.87 263.156 332.532 263.467C333.2 263.777 333.722 264.208 334.097 264.759C334.478 265.31 334.668 265.951 334.668 266.684V266.71C334.668 267.19 334.574 267.659 334.387 268.116C334.199 268.573 333.883 269.068 333.438 269.602C332.992 270.135 332.386 270.759 331.618 271.474L328.524 274.348L329.263 273.161V274.348L328.533 273.864H334.853V276H325.703ZM338.948 276.22C338.503 276.22 338.134 276.073 337.841 275.78C337.554 275.487 337.41 275.127 337.41 274.699C337.41 274.26 337.554 273.896 337.841 273.609C338.134 273.322 338.503 273.179 338.948 273.179C339.399 273.179 339.769 273.322 340.056 273.609C340.343 273.896 340.486 274.26 340.486 274.699C340.486 275.127 340.343 275.487 340.056 275.78C339.769 276.073 339.399 276.22 338.948 276.22ZM347.535 276.281C346.521 276.281 345.628 276.126 344.854 275.815C344.081 275.499 343.478 275.062 343.044 274.506C342.61 273.943 342.394 273.296 342.394 272.563V272.546C342.394 271.995 342.52 271.497 342.771 271.052C343.029 270.606 343.378 270.237 343.817 269.944C344.263 269.646 344.772 269.44 345.347 269.329V269.276C344.608 269.095 344.008 268.755 343.545 268.257C343.088 267.753 342.859 267.158 342.859 266.473V266.455C342.859 265.793 343.059 265.207 343.457 264.697C343.855 264.182 344.406 263.777 345.109 263.484C345.812 263.186 346.621 263.036 347.535 263.036C348.455 263.036 349.267 263.186 349.97 263.484C350.679 263.777 351.229 264.182 351.622 264.697C352.021 265.207 352.22 265.793 352.22 266.455V266.473C352.22 267.158 351.988 267.753 351.525 268.257C351.068 268.755 350.468 269.095 349.724 269.276V269.329C350.304 269.44 350.816 269.646 351.262 269.944C351.707 270.237 352.056 270.606 352.308 271.052C352.56 271.497 352.686 271.995 352.686 272.546V272.563C352.686 273.296 352.469 273.943 352.035 274.506C351.602 275.062 350.998 275.499 350.225 275.815C349.451 276.126 348.555 276.281 347.535 276.281ZM347.535 274.348C348.004 274.348 348.414 274.266 348.766 274.102C349.123 273.932 349.404 273.7 349.609 273.407C349.814 273.108 349.917 272.769 349.917 272.388V272.37C349.917 271.989 349.814 271.652 349.609 271.359C349.41 271.061 349.132 270.826 348.774 270.656C348.417 270.486 348.004 270.401 347.535 270.401C347.066 270.401 346.653 270.486 346.296 270.656C345.938 270.826 345.66 271.061 345.461 271.359C345.262 271.652 345.162 271.989 345.162 272.37V272.388C345.162 272.769 345.262 273.108 345.461 273.407C345.666 273.7 345.947 273.932 346.305 274.102C346.662 274.266 347.072 274.348 347.535 274.348ZM347.535 268.477C347.945 268.477 348.303 268.403 348.607 268.257C348.918 268.11 349.161 267.905 349.337 267.642C349.513 267.372 349.601 267.064 349.601 266.719V266.701C349.601 266.355 349.513 266.054 349.337 265.796C349.161 265.532 348.918 265.327 348.607 265.181C348.297 265.028 347.939 264.952 347.535 264.952C347.137 264.952 346.782 265.028 346.472 265.181C346.161 265.327 345.918 265.532 345.742 265.796C345.566 266.054 345.479 266.355 345.479 266.701V266.719C345.479 267.064 345.566 267.372 345.742 267.642C345.918 267.905 346.158 268.11 346.463 268.257C346.773 268.403 347.131 268.477 347.535 268.477Z" fill="black"/>
<path d="M300.877 189V185.563L309.344 177.645C310.384 176.682 311.17 175.879 311.701 175.237C312.232 174.595 312.592 174.02 312.78 173.511C312.979 173.002 313.079 172.47 313.079 171.917V171.884C313.079 171.231 312.924 170.655 312.614 170.157C312.304 169.648 311.873 169.25 311.319 168.962C310.777 168.674 310.152 168.53 309.443 168.53C308.624 168.53 307.905 168.696 307.285 169.028C306.665 169.349 306.178 169.798 305.824 170.373C305.47 170.938 305.282 171.579 305.26 172.299L305.243 172.448H300.595V172.315C300.595 170.81 300.977 169.482 301.74 168.331C302.504 167.169 303.55 166.261 304.878 165.608C306.217 164.955 307.728 164.629 309.41 164.629C311.104 164.629 312.592 164.928 313.876 165.525C315.16 166.112 316.161 166.931 316.881 167.982C317.6 169.034 317.96 170.24 317.96 171.602V171.635C317.96 172.598 317.783 173.494 317.429 174.324C317.086 175.143 316.516 176.018 315.719 176.947C314.922 177.866 313.832 178.962 312.448 180.234L305.509 186.56L307.435 183.189V186.56L305.525 185.016H318.292V189H300.877ZM330.992 189.415C329.542 189.415 328.209 189.16 326.991 188.651C325.785 188.142 324.728 187.384 323.82 186.377C322.924 185.359 322.227 184.091 321.729 182.575C321.242 181.048 320.998 179.266 320.998 177.229V177.196C320.998 174.584 321.402 172.338 322.21 170.456C323.018 168.575 324.169 167.136 325.663 166.14C327.168 165.132 328.961 164.629 331.042 164.629C332.591 164.629 333.986 164.906 335.226 165.459C336.465 166.001 337.489 166.754 338.297 167.717C339.116 168.68 339.642 169.775 339.874 171.004L339.907 171.17H334.96L334.91 171.021C334.711 170.534 334.429 170.113 334.063 169.759C333.709 169.394 333.278 169.111 332.769 168.912C332.259 168.702 331.678 168.597 331.025 168.597C329.863 168.597 328.906 168.934 328.153 169.609C327.412 170.285 326.853 171.192 326.477 172.332C326.1 173.472 325.879 174.75 325.812 176.167C325.801 176.333 325.79 176.499 325.779 176.665C325.779 176.831 325.779 176.997 325.779 177.163L326.543 181.147C326.543 181.944 326.737 182.669 327.124 183.322C327.511 183.964 328.037 184.479 328.701 184.866C329.365 185.243 330.107 185.431 330.926 185.431C331.745 185.431 332.486 185.243 333.15 184.866C333.814 184.49 334.346 183.986 334.744 183.355C335.143 182.714 335.342 182 335.342 181.214V181.181C335.342 180.351 335.148 179.615 334.761 178.973C334.384 178.331 333.864 177.833 333.2 177.479C332.547 177.113 331.806 176.931 330.976 176.931C330.146 176.931 329.393 177.113 328.718 177.479C328.043 177.833 327.511 178.325 327.124 178.956C326.737 179.587 326.543 180.306 326.543 181.114V181.147H325.53V177.08H325.879C326.2 176.339 326.665 175.68 327.273 175.104C327.893 174.529 328.635 174.075 329.498 173.743C330.372 173.4 331.346 173.229 332.42 173.229C333.969 173.229 335.325 173.566 336.487 174.241C337.66 174.905 338.574 175.824 339.227 176.997C339.891 178.17 340.223 179.504 340.223 180.998V181.031C340.223 182.669 339.824 184.119 339.027 185.381C338.23 186.632 337.135 187.617 335.74 188.336C334.357 189.055 332.774 189.415 330.992 189.415Z" fill="#F2784B"/>
<path d="M445 218C468.196 218 487 199.196 487 176C487 152.804 468.196 134 445 134C421.804 134 403 152.804 403 176C403 199.196 421.804 218 445 218Z" fill="#EFF1F4" stroke="#2E9E8F" stroke-width="3" stroke-linecap="round"/>
<path d="M400.806 246.328C399.541 246.328 398.444 246.103 397.514 245.651C396.591 245.193 395.874 244.554 395.361 243.734C394.855 242.907 394.602 241.946 394.602 240.853V231.204H397.699V240.576C397.699 241.211 397.818 241.765 398.058 242.237C398.304 242.702 398.656 243.064 399.114 243.324C399.579 243.577 400.143 243.703 400.806 243.703C401.469 243.703 402.029 243.577 402.487 243.324C402.952 243.064 403.304 242.702 403.543 242.237C403.783 241.765 403.902 241.211 403.902 240.576V231.204H406.999V240.853C406.999 241.946 406.746 242.903 406.24 243.724C405.741 244.544 405.027 245.183 404.097 245.641C403.174 246.099 402.077 246.328 400.806 246.328ZM409.88 249.681V234.823H412.875V236.638H413.008C413.206 236.214 413.466 235.855 413.787 235.562C414.115 235.261 414.498 235.032 414.936 234.875C415.373 234.71 415.855 234.628 416.381 234.628C417.318 234.628 418.125 234.861 418.801 235.326C419.485 235.791 420.008 236.454 420.37 237.315C420.739 238.176 420.924 239.205 420.924 240.401V240.422C420.924 241.625 420.743 242.657 420.38 243.519C420.018 244.38 419.499 245.043 418.822 245.508C418.145 245.966 417.335 246.195 416.392 246.195C415.879 246.195 415.4 246.113 414.956 245.949C414.512 245.785 414.125 245.552 413.797 245.251C413.469 244.951 413.206 244.592 413.008 244.175H412.875V249.681H409.88ZM415.376 243.713C415.889 243.713 416.333 243.58 416.709 243.313C417.085 243.047 417.373 242.667 417.571 242.175C417.776 241.683 417.878 241.099 417.878 240.422V240.401C417.878 239.718 417.776 239.13 417.571 238.638C417.373 238.146 417.085 237.77 416.709 237.51C416.333 237.243 415.889 237.11 415.376 237.11C414.864 237.11 414.416 237.243 414.033 237.51C413.657 237.77 413.363 238.146 413.151 238.638C412.946 239.13 412.844 239.718 412.844 240.401V240.422C412.844 241.099 412.946 241.683 413.151 242.175C413.363 242.667 413.657 243.047 414.033 243.313C414.416 243.58 414.864 243.713 415.376 243.713ZM428.03 246.236C426.881 246.236 425.897 246.007 425.077 245.549C424.256 245.084 423.627 244.417 423.19 243.549C422.759 242.674 422.544 241.625 422.544 240.401V240.381C422.544 239.164 422.759 238.125 423.19 237.264C423.627 236.402 424.253 235.743 425.066 235.285C425.887 234.82 426.871 234.587 428.02 234.587C429.018 234.587 429.879 234.765 430.604 235.121C431.328 235.476 431.896 235.968 432.306 236.597C432.723 237.219 432.969 237.94 433.044 238.761L433.034 238.812H430.255L430.245 238.761C430.149 238.221 429.917 237.783 429.547 237.448C429.178 237.106 428.676 236.936 428.04 236.936C427.527 236.936 427.086 237.072 426.717 237.346C426.348 237.612 426.068 238.002 425.876 238.515C425.685 239.027 425.589 239.653 425.589 240.391V240.401C425.589 241.146 425.685 241.779 425.876 242.298C426.075 242.818 426.355 243.214 426.717 243.488C427.086 243.754 427.531 243.888 428.05 243.888C428.659 243.888 429.144 243.734 429.506 243.426C429.875 243.119 430.122 242.681 430.245 242.114L430.255 242.062L433.044 242.052L433.034 242.124C432.952 242.931 432.699 243.645 432.275 244.267C431.858 244.882 431.291 245.364 430.573 245.713C429.862 246.062 429.014 246.236 428.03 246.236ZM440.058 246.236C438.923 246.236 437.942 246.003 437.115 245.539C436.288 245.074 435.652 244.407 435.208 243.539C434.763 242.671 434.541 241.632 434.541 240.422V240.401C434.541 239.198 434.767 238.163 435.218 237.294C435.669 236.426 436.305 235.76 437.125 235.295C437.952 234.823 438.93 234.587 440.058 234.587C441.192 234.587 442.17 234.82 442.99 235.285C443.817 235.75 444.457 236.416 444.908 237.284C445.359 238.152 445.584 239.191 445.584 240.401V240.422C445.584 241.632 445.359 242.671 444.908 243.539C444.463 244.407 443.828 245.074 443 245.539C442.18 246.003 441.199 246.236 440.058 246.236ZM440.068 243.888C440.581 243.888 441.018 243.751 441.38 243.478C441.75 243.204 442.03 242.811 442.221 242.298C442.419 241.779 442.519 241.153 442.519 240.422V240.401C442.519 239.67 442.419 239.048 442.221 238.535C442.023 238.022 441.739 237.629 441.37 237.356C441.008 237.076 440.57 236.936 440.058 236.936C439.552 236.936 439.114 237.076 438.745 237.356C438.376 237.629 438.092 238.022 437.894 238.535C437.696 239.048 437.597 239.67 437.597 240.401V240.422C437.597 241.153 437.692 241.779 437.884 242.298C438.082 242.811 438.366 243.204 438.735 243.478C439.104 243.751 439.548 243.888 440.068 243.888ZM447.676 246V234.823H450.67V236.628H450.804C451.036 235.992 451.426 235.493 451.973 235.131C452.526 234.769 453.172 234.587 453.911 234.587C454.423 234.587 454.885 234.673 455.295 234.844C455.712 235.015 456.064 235.261 456.351 235.582C456.645 235.903 456.864 236.29 457.007 236.741H457.141C457.312 236.303 457.561 235.924 457.889 235.603C458.224 235.281 458.617 235.032 459.068 234.854C459.526 234.676 460.019 234.587 460.545 234.587C461.283 234.587 461.922 234.741 462.462 235.049C463.009 235.356 463.433 235.791 463.734 236.351C464.035 236.912 464.185 237.575 464.185 238.34V246H461.191V239.089C461.191 238.645 461.119 238.275 460.976 237.981C460.839 237.681 460.634 237.455 460.36 237.305C460.094 237.147 459.755 237.069 459.345 237.069C458.949 237.069 458.604 237.158 458.31 237.335C458.022 237.513 457.797 237.759 457.633 238.074C457.476 238.388 457.397 238.75 457.397 239.161V246H454.444V238.966C454.444 238.569 454.372 238.231 454.229 237.951C454.085 237.664 453.876 237.445 453.603 237.294C453.33 237.144 453.001 237.069 452.619 237.069C452.236 237.069 451.897 237.165 451.604 237.356C451.31 237.541 451.081 237.797 450.917 238.125C450.752 238.453 450.67 238.829 450.67 239.253V246H447.676ZM466.738 246V234.823H469.732V246H466.738ZM468.235 233.213C467.784 233.213 467.395 233.056 467.066 232.742C466.745 232.42 466.584 232.038 466.584 231.593C466.584 231.142 466.745 230.759 467.066 230.445C467.395 230.124 467.784 229.963 468.235 229.963C468.693 229.963 469.083 230.124 469.404 230.445C469.726 230.759 469.886 231.142 469.886 231.593C469.886 232.038 469.726 232.42 469.404 232.742C469.083 233.056 468.693 233.213 468.235 233.213ZM472.368 246V234.823H475.362V236.597H475.495C475.762 235.975 476.172 235.486 476.726 235.131C477.279 234.769 477.963 234.587 478.776 234.587C480.014 234.587 480.96 234.957 481.617 235.695C482.28 236.426 482.611 237.455 482.611 238.781V246H479.617V239.438C479.617 238.665 479.45 238.077 479.115 237.674C478.78 237.271 478.264 237.069 477.566 237.069C477.115 237.069 476.722 237.175 476.387 237.387C476.059 237.592 475.806 237.879 475.628 238.248C475.451 238.617 475.362 239.051 475.362 239.55V246H472.368ZM490.158 249.907C489.126 249.907 488.237 249.77 487.492 249.497C486.747 249.23 486.159 248.854 485.729 248.369C485.305 247.89 485.048 247.34 484.959 246.718V246.656H487.902L487.923 246.708C488.019 247.008 488.258 247.261 488.641 247.466C489.03 247.671 489.55 247.774 490.199 247.774C490.985 247.774 491.594 247.593 492.024 247.23C492.455 246.868 492.67 246.369 492.67 245.733V243.785H492.527C492.329 244.175 492.062 244.51 491.727 244.79C491.399 245.063 491.016 245.275 490.579 245.426C490.148 245.569 489.669 245.641 489.143 245.641C488.207 245.641 487.396 245.419 486.713 244.975C486.036 244.523 485.513 243.891 485.144 243.078C484.782 242.264 484.601 241.307 484.601 240.207V240.196C484.601 239.062 484.785 238.081 485.154 237.253C485.523 236.419 486.05 235.773 486.733 235.315C487.424 234.857 488.244 234.628 489.194 234.628C489.714 234.628 490.189 234.71 490.62 234.875C491.05 235.039 491.43 235.274 491.758 235.582C492.086 235.89 492.349 236.255 492.547 236.679H492.66V234.823H495.654V245.672C495.654 246.526 495.429 247.271 494.978 247.907C494.533 248.543 493.897 249.035 493.07 249.384C492.25 249.732 491.279 249.907 490.158 249.907ZM490.168 243.375C490.688 243.375 491.136 243.245 491.512 242.985C491.888 242.726 492.178 242.36 492.383 241.888C492.588 241.417 492.691 240.866 492.691 240.237V240.217C492.691 239.588 492.588 239.038 492.383 238.566C492.178 238.094 491.884 237.729 491.501 237.469C491.125 237.202 490.681 237.069 490.168 237.069C489.642 237.069 489.191 237.199 488.815 237.458C488.446 237.718 488.159 238.084 487.954 238.556C487.755 239.027 487.656 239.581 487.656 240.217V240.227C487.656 240.863 487.755 241.417 487.954 241.888C488.159 242.36 488.446 242.726 488.815 242.985C489.191 243.245 489.642 243.375 490.168 243.375Z" fill="#15151E"/>
<path d="M421.604 275.815C420.596 275.815 419.679 275.687 418.853 275.429C418.026 275.165 417.312 274.778 416.708 274.269C416.11 273.753 415.65 273.111 415.328 272.344C415.006 271.57 414.845 270.674 414.845 269.654V269.646C414.845 268.632 415.006 267.741 415.328 266.974C415.65 266.206 416.11 265.564 416.708 265.049C417.306 264.533 418.015 264.146 418.835 263.889C419.655 263.631 420.558 263.502 421.542 263.502C421.858 263.502 422.189 263.52 422.535 263.555C422.881 263.59 423.168 263.64 423.396 263.704V265.822C423.168 265.775 422.896 265.737 422.579 265.708C422.263 265.679 421.946 265.664 421.63 265.664C420.997 265.664 420.42 265.749 419.898 265.919C419.383 266.083 418.94 266.332 418.571 266.666C418.202 266.994 417.918 267.407 417.719 267.905C417.525 268.403 417.429 268.986 417.429 269.654V269.663C417.429 270.337 417.525 270.923 417.719 271.421C417.918 271.919 418.202 272.335 418.571 272.669C418.946 272.997 419.397 273.243 419.925 273.407C420.452 273.565 421.041 273.645 421.691 273.645C421.979 273.645 422.286 273.636 422.614 273.618C422.942 273.595 423.215 273.562 423.432 273.521V275.657C423.203 275.71 422.925 275.751 422.597 275.78C422.269 275.804 421.938 275.815 421.604 275.815ZM413.351 271.403V270.393H422.456V271.403H413.351ZM413.351 268.969V267.967H422.456V268.969H413.351ZM430.911 276.316C430.009 276.316 429.218 276.152 428.538 275.824C427.858 275.496 427.319 275.051 426.921 274.488C426.522 273.926 426.297 273.293 426.244 272.59L426.235 272.458H428.652L428.67 272.52C428.734 272.836 428.866 273.123 429.065 273.381C429.271 273.633 429.531 273.835 429.848 273.987C430.164 274.134 430.521 274.207 430.92 274.207C431.377 274.207 431.778 274.107 432.124 273.908C432.476 273.709 432.748 273.437 432.941 273.091C433.141 272.739 433.24 272.338 433.24 271.887V271.869C433.24 271.418 433.141 271.02 432.941 270.674C432.742 270.328 432.47 270.059 432.124 269.865C431.778 269.672 431.38 269.575 430.929 269.575C430.612 269.575 430.319 269.622 430.05 269.716C429.78 269.804 429.537 269.938 429.32 270.12C429.203 270.214 429.092 270.322 428.986 270.445C428.887 270.562 428.802 270.688 428.731 270.823H426.455L427.035 263.317H434.98V265.427H429.109L428.793 269.039H428.951C429.121 268.752 429.338 268.506 429.602 268.301C429.871 268.096 430.179 267.938 430.524 267.826C430.876 267.715 431.254 267.659 431.658 267.659C432.449 267.659 433.149 267.838 433.759 268.195C434.374 268.553 434.857 269.045 435.209 269.672C435.561 270.293 435.736 271.008 435.736 271.816V271.834C435.736 272.725 435.531 273.507 435.121 274.181C434.717 274.854 434.151 275.379 433.425 275.754C432.698 276.129 431.86 276.316 430.911 276.316ZM438.021 276V274.216L442.126 270.182C442.718 269.607 443.175 269.136 443.497 268.767C443.825 268.392 444.054 268.066 444.183 267.791C444.317 267.51 444.385 267.223 444.385 266.93V266.895C444.385 266.537 444.306 266.221 444.147 265.945C443.989 265.67 443.764 265.456 443.471 265.304C443.178 265.146 442.832 265.066 442.434 265.066C442.018 265.066 441.651 265.154 441.335 265.33C441.019 265.5 440.772 265.737 440.597 266.042C440.421 266.341 440.333 266.689 440.333 267.088V267.141H437.872V267.097C437.872 266.282 438.068 265.57 438.461 264.961C438.859 264.346 439.407 263.865 440.104 263.52C440.808 263.174 441.619 263.001 442.539 263.001C443.418 263.001 444.188 263.156 444.851 263.467C445.519 263.777 446.04 264.208 446.415 264.759C446.796 265.31 446.986 265.951 446.986 266.684V266.71C446.986 267.19 446.893 267.659 446.705 268.116C446.518 268.573 446.201 269.068 445.756 269.602C445.311 270.135 444.704 270.759 443.937 271.474L440.843 274.348L441.581 273.161V274.348L440.852 273.864H447.171V276H438.021ZM454.527 276.281C453.514 276.281 452.62 276.126 451.847 275.815C451.073 275.499 450.47 275.062 450.036 274.506C449.603 273.943 449.386 273.296 449.386 272.563V272.546C449.386 271.995 449.512 271.497 449.764 271.052C450.021 270.606 450.37 270.237 450.81 269.944C451.255 269.646 451.765 269.44 452.339 269.329V269.276C451.601 269.095 451 268.755 450.537 268.257C450.08 267.753 449.852 267.158 449.852 266.473V266.455C449.852 265.793 450.051 265.207 450.449 264.697C450.848 264.182 451.398 263.777 452.102 263.484C452.805 263.186 453.613 263.036 454.527 263.036C455.447 263.036 456.259 263.186 456.962 263.484C457.671 263.777 458.222 264.182 458.614 264.697C459.013 265.207 459.212 265.793 459.212 266.455V266.473C459.212 267.158 458.98 267.753 458.518 268.257C458.061 268.755 457.46 269.095 456.716 269.276V269.329C457.296 269.44 457.809 269.646 458.254 269.944C458.699 270.237 459.048 270.606 459.3 271.052C459.552 271.497 459.678 271.995 459.678 272.546V272.563C459.678 273.296 459.461 273.943 459.027 274.506C458.594 275.062 457.99 275.499 457.217 275.815C456.443 276.126 455.547 276.281 454.527 276.281ZM454.527 274.348C454.996 274.348 455.406 274.266 455.758 274.102C456.115 273.932 456.396 273.7 456.602 273.407C456.807 273.108 456.909 272.769 456.909 272.388V272.37C456.909 271.989 456.807 271.652 456.602 271.359C456.402 271.061 456.124 270.826 455.767 270.656C455.409 270.486 454.996 270.401 454.527 270.401C454.059 270.401 453.646 270.486 453.288 270.656C452.931 270.826 452.652 271.061 452.453 271.359C452.254 271.652 452.154 271.989 452.154 272.37V272.388C452.154 272.769 452.254 273.108 452.453 273.407C452.658 273.7 452.939 273.932 453.297 274.102C453.654 274.266 454.064 274.348 454.527 274.348ZM454.527 268.477C454.938 268.477 455.295 268.403 455.6 268.257C455.91 268.11 456.153 267.905 456.329 267.642C456.505 267.372 456.593 267.064 456.593 266.719V266.701C456.593 266.355 456.505 266.054 456.329 265.796C456.153 265.532 455.91 265.327 455.6 265.181C455.289 265.028 454.932 264.952 454.527 264.952C454.129 264.952 453.774 265.028 453.464 265.181C453.153 265.327 452.91 265.532 452.734 265.796C452.559 266.054 452.471 266.355 452.471 266.701V266.719C452.471 267.064 452.559 267.372 452.734 267.642C452.91 267.905 453.15 268.11 453.455 268.257C453.766 268.403 454.123 268.477 454.527 268.477ZM463.167 276.22C462.722 276.22 462.353 276.073 462.06 275.78C461.772 275.487 461.629 275.127 461.629 274.699C461.629 274.26 461.772 273.896 462.06 273.609C462.353 273.322 462.722 273.179 463.167 273.179C463.618 273.179 463.987 273.322 464.274 273.609C464.562 273.896 464.705 274.26 464.705 274.699C464.705 275.127 464.562 275.487 464.274 275.78C463.987 276.073 463.618 276.22 463.167 276.22ZM471.596 276.316C470.547 276.316 469.645 276.047 468.889 275.508C468.139 274.969 467.562 274.201 467.157 273.205C466.753 272.209 466.551 271.028 466.551 269.663V269.646C466.551 268.28 466.753 267.103 467.157 266.112C467.562 265.116 468.139 264.349 468.889 263.81C469.645 263.271 470.547 263.001 471.596 263.001C472.639 263.001 473.535 263.271 474.285 263.81C475.041 264.349 475.621 265.116 476.025 266.112C476.43 267.103 476.632 268.28 476.632 269.646V269.663C476.632 271.028 476.43 272.209 476.025 273.205C475.621 274.201 475.041 274.969 474.285 275.508C473.535 276.047 472.639 276.316 471.596 276.316ZM471.596 274.225C472.094 274.225 472.519 274.043 472.87 273.68C473.222 273.316 473.488 272.795 473.67 272.115C473.857 271.436 473.951 270.618 473.951 269.663V269.646C473.951 268.69 473.857 267.876 473.67 267.202C473.488 266.522 473.222 266.004 472.87 265.646C472.519 265.283 472.094 265.102 471.596 265.102C471.092 265.102 470.664 265.283 470.312 265.646C469.967 266.004 469.7 266.522 469.513 267.202C469.325 267.876 469.231 268.69 469.231 269.646V269.663C469.231 270.618 469.325 271.436 469.513 272.115C469.7 272.795 469.967 273.316 470.312 273.68C470.664 274.043 471.092 274.225 471.596 274.225Z" fill="black"/>
<path d="M433.979 188V168.643H433.879L427.77 172.793V168.344L433.962 164.044H438.942V188H433.979ZM453.668 188.415C451.764 188.415 450.088 188.122 448.638 187.535C447.188 186.949 446.053 186.135 445.234 185.095C444.415 184.043 444.006 182.831 444.006 181.459V181.426C444.006 180.385 444.244 179.45 444.72 178.62C445.196 177.79 445.849 177.098 446.679 176.545C447.509 175.992 448.461 175.61 449.534 175.399V175.3C448.151 174.957 447.027 174.32 446.164 173.391C445.312 172.45 444.886 171.338 444.886 170.054V170.021C444.886 168.781 445.257 167.685 445.998 166.733C446.74 165.771 447.769 165.012 449.086 164.459C450.414 163.906 451.941 163.629 453.668 163.629C455.395 163.629 456.916 163.906 458.233 164.459C459.55 165.012 460.58 165.771 461.321 166.733C462.074 167.685 462.45 168.781 462.45 170.021V170.054C462.45 171.338 462.019 172.45 461.155 173.391C460.303 174.32 459.185 174.957 457.802 175.3V175.399C458.875 175.61 459.827 175.992 460.657 176.545C461.487 177.098 462.135 177.79 462.6 178.62C463.076 179.45 463.313 180.385 463.313 181.426V181.459C463.313 182.831 462.904 184.043 462.085 185.095C461.277 186.135 460.148 186.949 458.698 187.535C457.248 188.122 455.572 188.415 453.668 188.415ZM453.668 184.763C454.542 184.763 455.312 184.608 455.976 184.298C456.64 183.988 457.16 183.556 457.536 183.003C457.924 182.45 458.117 181.824 458.117 181.127V181.094C458.117 180.385 457.929 179.755 457.553 179.201C457.176 178.648 456.651 178.216 455.976 177.906C455.312 177.585 454.542 177.425 453.668 177.425C452.783 177.425 452.002 177.585 451.327 177.906C450.663 178.216 450.143 178.648 449.767 179.201C449.39 179.755 449.202 180.385 449.202 181.094V181.127C449.202 181.824 449.39 182.45 449.767 183.003C450.154 183.556 450.68 183.988 451.344 184.298C452.019 184.608 452.794 184.763 453.668 184.763ZM453.668 173.789C454.421 173.789 455.085 173.651 455.66 173.374C456.236 173.097 456.684 172.715 457.005 172.229C457.326 171.73 457.486 171.16 457.486 170.519V170.485C457.486 169.843 457.32 169.279 456.988 168.792C456.667 168.305 456.219 167.929 455.644 167.663C455.068 167.386 454.41 167.248 453.668 167.248C452.915 167.248 452.251 167.386 451.676 167.663C451.1 167.929 450.646 168.305 450.314 168.792C449.993 169.279 449.833 169.843 449.833 170.485V170.519C449.833 171.16 449.993 171.73 450.314 172.229C450.646 172.715 451.1 173.097 451.676 173.374C452.251 173.651 452.915 173.789 453.668 173.789Z" fill="#2E9E8F"/>
<defs>
<linearGradient id="paint0_linear_2225_27" x1="28" y1="34.6459" x2="527" y2="296.146" gradientUnits="userSpaceOnUse">
<stop stop-color="#4D7DFD"/>
<stop offset="0.547645" stop-color="#B27DB5"/>
<stop offset="1" stop-color="#8C0D0D"/>
</linearGradient>
</defs>
</svg>
