<svg width="580" height="72" viewBox="0 0 580 72" fill="none" xmlns="http://www.w3.org/2000/svg">
<path d="M181 9H29C14.0883 9 2 21.0883 2 36C2 50.9117 14.0883 63 29 63H181C195.912 63 208 50.9117 208 36C208 21.0883 195.912 9 181 9Z" fill="#2F6BF6"/>
<path d="M40 47C46.0751 47 51 42.0751 51 36C51 29.9249 46.0751 25 40 25C33.9249 25 29 29.9249 29 36C29 42.0751 33.9249 47 40 47Z" stroke="white" stroke-width="2.4" stroke-linecap="round" stroke-linejoin="round"/>
<path d="M40 30V36L44 39" stroke="white" stroke-width="2.4" stroke-linecap="round" stroke-linejoin="round"/>
<path d="M63.5684 43V27.499H69.5732C71.1201 27.499 72.4378 27.7998 73.5264 28.4014C74.6221 28.9958 75.46 29.8623 76.04 31.001C76.6201 32.1396 76.9102 33.5254 76.9102 35.1582V35.1797C76.9102 36.8268 76.6201 38.2376 76.04 39.4121C75.46 40.5794 74.6257 41.471 73.5371 42.0869C72.4486 42.6956 71.1273 43 69.5732 43H63.5684ZM66.8125 40.3252H69.1221C70.0889 40.3252 70.9017 40.1318 71.5605 39.7451C72.2266 39.3512 72.7314 38.7747 73.0752 38.0156C73.4261 37.2493 73.6016 36.3112 73.6016 35.2012V35.1797C73.6016 34.1126 73.4225 33.2067 73.0645 32.4619C72.7135 31.71 72.2051 31.1406 71.5391 30.7539C70.873 30.3672 70.0674 30.1738 69.1221 30.1738H66.8125V40.3252ZM83.0869 43.2471C82.2275 43.2471 81.5007 43.0752 80.9062 42.7314C80.3118 42.3805 79.8607 41.8792 79.5527 41.2275C79.252 40.5758 79.1016 39.7917 79.1016 38.875V31.334H82.2383V38.1875C82.2383 38.9824 82.4102 39.5911 82.7539 40.0137C83.0977 40.4362 83.6312 40.6475 84.3545 40.6475C84.7197 40.6475 85.0456 40.5866 85.332 40.4648C85.6257 40.3359 85.8727 40.1605 86.0732 39.9385C86.2738 39.7093 86.4242 39.4372 86.5244 39.1221C86.6318 38.7998 86.6855 38.4453 86.6855 38.0586V31.334H89.8223V43H86.6855V41.1416H86.5566C86.3704 41.5713 86.1162 41.9437 85.7939 42.2588C85.4717 42.5739 85.0814 42.8174 84.623 42.9893C84.1719 43.1611 83.6598 43.2471 83.0869 43.2471ZM97.6104 43.2471C96.4287 43.2471 95.4082 43.0036 94.5488 42.5166C93.6966 42.0225 93.0413 41.3242 92.583 40.4219C92.1247 39.5124 91.8955 38.4346 91.8955 37.1885V37.1777C91.8955 35.9388 92.1247 34.8646 92.583 33.9551C93.0413 33.0456 93.6895 32.3438 94.5273 31.8496C95.3652 31.3483 96.3499 31.0977 97.4814 31.0977C98.6201 31.0977 99.6012 31.3411 100.425 31.8281C101.256 32.3079 101.896 32.9883 102.348 33.8691C102.799 34.7428 103.024 35.7669 103.024 36.9414V37.9189H93.4424V35.9424H101.531L100.049 37.8008V36.5654C100.049 35.8779 99.9414 35.3014 99.7266 34.8359C99.5189 34.3704 99.2253 34.0231 98.8457 33.7939C98.4733 33.5576 98.0365 33.4395 97.5352 33.4395C97.041 33.4395 96.6006 33.5612 96.2139 33.8047C95.8343 34.041 95.5335 34.3955 95.3115 34.8682C95.0967 35.3337 94.9893 35.8994 94.9893 36.5654V37.8115C94.9893 38.4561 95.0967 39.0111 95.3115 39.4766C95.5335 39.9349 95.8451 40.2858 96.2461 40.5293C96.6471 40.7728 97.1234 40.8945 97.6748 40.8945C98.1188 40.8945 98.4984 40.8301 98.8135 40.7012C99.1357 40.5651 99.3936 40.4004 99.5869 40.207C99.7874 40.0065 99.9235 39.8132 99.9951 39.627L100.027 39.5625H102.928L102.896 39.6807C102.81 40.0817 102.641 40.4899 102.391 40.9053C102.147 41.3206 101.811 41.7074 101.381 42.0654C100.958 42.4163 100.436 42.7028 99.8125 42.9248C99.1895 43.1396 98.4554 43.2471 97.6104 43.2471ZM114.089 43V30.1738H109.534V27.499H121.898V30.1738H117.333V43H114.089ZM126.894 43.2471C125.712 43.2471 124.688 43.0036 123.821 42.5166C122.962 42.0296 122.299 41.335 121.834 40.4326C121.368 39.5231 121.136 38.4382 121.136 37.1777V37.1562C121.136 35.903 121.372 34.8252 121.845 33.9229C122.317 33.0133 122.983 32.3151 123.843 31.8281C124.702 31.3411 125.719 31.0977 126.894 31.0977C128.068 31.0977 129.085 31.3411 129.944 31.8281C130.811 32.3079 131.48 33.0026 131.953 33.9121C132.426 34.8145 132.662 35.8958 132.662 37.1562V37.1777C132.662 38.4453 132.429 39.5339 131.964 40.4434C131.498 41.3457 130.832 42.0404 129.966 42.5273C129.106 43.0072 128.082 43.2471 126.894 43.2471ZM126.904 40.7871C127.434 40.7871 127.889 40.6439 128.269 40.3574C128.655 40.071 128.949 39.6592 129.149 39.1221C129.357 38.585 129.461 37.9368 129.461 37.1777V37.1562C129.461 36.3971 129.357 35.749 129.149 35.2119C128.942 34.6748 128.645 34.2666 128.258 33.9873C127.878 33.7008 127.424 33.5576 126.894 33.5576C126.371 33.5576 125.916 33.7008 125.529 33.9873C125.143 34.2666 124.845 34.6748 124.638 35.2119C124.43 35.749 124.326 36.3971 124.326 37.1562V37.1777C124.326 37.9368 124.43 38.5885 124.638 39.1328C124.845 39.6699 125.139 40.0817 125.519 40.3682C125.905 40.6475 126.367 40.7871 126.904 40.7871ZM138.957 43.2148C137.983 43.2148 137.142 42.9714 136.433 42.4844C135.724 41.9974 135.176 41.3027 134.789 40.4004C134.41 39.498 134.22 38.4238 134.22 37.1777V37.1562C134.22 35.8958 134.41 34.818 134.789 33.9229C135.169 33.0205 135.713 32.3294 136.422 31.8496C137.131 31.3626 137.976 31.1191 138.957 31.1191C139.501 31.1191 140.003 31.2087 140.461 31.3877C140.919 31.5596 141.32 31.8066 141.664 32.1289C142.015 32.4512 142.294 32.8379 142.502 33.2891H142.62V27.1016H145.757V43H142.62V41.0986H142.502C142.294 41.5426 142.019 41.9222 141.675 42.2373C141.338 42.5452 140.941 42.7852 140.482 42.957C140.024 43.1289 139.516 43.2148 138.957 43.2148ZM140.01 40.6152C140.547 40.6152 141.012 40.4756 141.406 40.1963C141.8 39.917 142.104 39.5231 142.319 39.0146C142.534 38.499 142.642 37.8867 142.642 37.1777V37.167C142.642 36.458 142.531 35.8457 142.309 35.3301C142.094 34.8145 141.789 34.417 141.396 34.1377C141.002 33.8584 140.54 33.7188 140.01 33.7188C139.48 33.7188 139.018 33.8584 138.624 34.1377C138.237 34.417 137.937 34.8145 137.722 35.3301C137.514 35.8385 137.41 36.4473 137.41 37.1562V37.1777C137.41 37.8867 137.514 38.499 137.722 39.0146C137.929 39.5303 138.23 39.9277 138.624 40.207C139.018 40.4792 139.48 40.6152 140.01 40.6152ZM151.729 43.1826C150.97 43.1826 150.301 43.0358 149.721 42.7422C149.141 42.4486 148.686 42.0368 148.356 41.5068C148.027 40.9769 147.862 40.3646 147.862 39.6699V39.6484C147.862 38.9466 148.038 38.3451 148.389 37.8438C148.747 37.3424 149.262 36.9486 149.936 36.6621C150.609 36.3685 151.429 36.193 152.396 36.1357L156.843 35.8564V37.79L152.868 38.0479C152.231 38.0837 151.751 38.2269 151.429 38.4775C151.106 38.7282 150.945 39.0612 150.945 39.4766V39.498C150.945 39.9349 151.114 40.2786 151.45 40.5293C151.787 40.7728 152.224 40.8945 152.761 40.8945C153.241 40.8945 153.667 40.8014 154.039 40.6152C154.411 40.429 154.705 40.1748 154.92 39.8525C155.142 39.5231 155.253 39.1543 155.253 38.7461V35.126C155.253 34.6104 155.085 34.2093 154.748 33.9229C154.419 33.6364 153.939 33.4932 153.309 33.4932C152.736 33.4932 152.274 33.6042 151.923 33.8262C151.572 34.041 151.346 34.3311 151.246 34.6963L151.225 34.7607H148.346L148.356 34.6533C148.428 33.9443 148.675 33.3249 149.098 32.7949C149.527 32.265 150.111 31.8496 150.849 31.5488C151.586 31.248 152.456 31.0977 153.459 31.0977C154.476 31.0977 155.35 31.2588 156.08 31.5811C156.818 31.8962 157.383 32.3473 157.777 32.9346C158.171 33.5218 158.368 34.2165 158.368 35.0186V43H155.253V41.3564H155.124C154.916 41.736 154.644 42.0618 154.308 42.334C153.971 42.6061 153.584 42.8174 153.147 42.9678C152.711 43.111 152.238 43.1826 151.729 43.1826ZM162.321 46.9746C162.078 46.9746 161.834 46.9639 161.591 46.9424C161.347 46.9281 161.132 46.9102 160.946 46.8887V44.5361C161.061 44.5576 161.197 44.5755 161.354 44.5898C161.519 44.6042 161.698 44.6113 161.892 44.6113C162.4 44.6113 162.805 44.5182 163.105 44.332C163.406 44.1458 163.618 43.8415 163.739 43.4189L163.857 43L159.754 31.334H163.202L165.909 41.2383L165.351 40.3252H166.103L165.555 41.2383L168.262 31.334H171.57L167.585 43.1074C167.263 44.0742 166.865 44.8405 166.393 45.4062C165.92 45.972 165.351 46.373 164.685 46.6094C164.026 46.8529 163.238 46.9746 162.321 46.9746Z" fill="white"/>
<path d="M353 9H251C236.088 9 224 21.0883 224 36C224 50.9117 236.088 63 251 63H353C367.912 63 380 50.9117 380 36C380 21.0883 367.912 9 353 9Z" fill="white"/>
<path d="M258 47C264.075 47 269 42.0751 269 36C269 29.9249 264.075 25 258 25C251.925 25 247 29.9249 247 36C247 42.0751 251.925 47 258 47Z" stroke="#15151E" stroke-width="2.4" stroke-linecap="round"/>
<path d="M258 30V37" stroke="#15151E" stroke-width="2.4" stroke-linecap="round"/>
<path d="M258 41.9001C258.221 41.9001 258.4 41.721 258.4 41.5001C258.4 41.2792 258.221 41.1001 258 41.1001C257.779 41.1001 257.6 41.2792 257.6 41.5001C257.6 41.721 257.779 41.9001 258 41.9001Z" stroke="#15151E" stroke-width="2.4" stroke-linecap="round"/>
<path d="M288.454 43.333C286.922 43.333 285.597 43.0072 284.479 42.3555C283.362 41.6966 282.499 40.762 281.891 39.5518C281.289 38.3415 280.988 36.9092 280.988 35.2549V35.2334C280.988 33.5791 281.293 32.1504 281.901 30.9473C282.51 29.737 283.373 28.806 284.49 28.1543C285.615 27.4954 286.936 27.166 288.454 27.166C289.987 27.166 291.312 27.4954 292.429 28.1543C293.546 28.806 294.405 29.737 295.007 30.9473C295.616 32.1504 295.92 33.5791 295.92 35.2334V35.2549C295.92 36.9092 295.616 38.3415 295.007 39.5518C294.405 40.7549 293.546 41.6859 292.429 42.3447C291.312 43.0036 289.987 43.333 288.454 43.333ZM288.454 40.583C289.306 40.583 290.044 40.3646 290.667 39.9277C291.29 39.4909 291.77 38.875 292.106 38.0801C292.443 37.278 292.611 36.3363 292.611 35.2549V35.2334C292.611 34.1449 292.439 33.2031 292.096 32.4082C291.759 31.6133 291.279 31.001 290.656 30.5713C290.033 30.1344 289.299 29.916 288.454 29.916C287.616 29.916 286.882 30.1344 286.252 30.5713C285.629 31.001 285.146 31.6133 284.802 32.4082C284.465 33.2031 284.297 34.1449 284.297 35.2334V35.2549C284.297 36.3363 284.465 37.278 284.802 38.0801C285.146 38.875 285.629 39.4909 286.252 39.9277C286.875 40.3646 287.609 40.583 288.454 40.583ZM301.248 43L297.209 31.334H300.561L302.988 40.1533H303.117L305.513 31.334H308.8L304.782 43H301.248ZM315.138 43.2471C313.956 43.2471 312.936 43.0036 312.076 42.5166C311.224 42.0225 310.569 41.3242 310.11 40.4219C309.652 39.5124 309.423 38.4346 309.423 37.1885V37.1777C309.423 35.9388 309.652 34.8646 310.11 33.9551C310.569 33.0456 311.217 32.3438 312.055 31.8496C312.893 31.3483 313.877 31.0977 315.009 31.0977C316.147 31.0977 317.129 31.3411 317.952 31.8281C318.783 32.3079 319.424 32.9883 319.875 33.8691C320.326 34.7428 320.552 35.7669 320.552 36.9414V37.9189H310.97V35.9424H319.059L317.576 37.8008V36.5654C317.576 35.8779 317.469 35.3014 317.254 34.8359C317.046 34.3704 316.753 34.0231 316.373 33.7939C316.001 33.5576 315.564 33.4395 315.062 33.4395C314.568 33.4395 314.128 33.5612 313.741 33.8047C313.362 34.041 313.061 34.3955 312.839 34.8682C312.624 35.3337 312.517 35.8994 312.517 36.5654V37.8115C312.517 38.4561 312.624 39.0111 312.839 39.4766C313.061 39.9349 313.372 40.2858 313.773 40.5293C314.174 40.7728 314.651 40.8945 315.202 40.8945C315.646 40.8945 316.026 40.8301 316.341 40.7012C316.663 40.5651 316.921 40.4004 317.114 40.207C317.315 40.0065 317.451 39.8132 317.522 39.627L317.555 39.5625H320.455L320.423 39.6807C320.337 40.0817 320.169 40.4899 319.918 40.9053C319.674 41.3206 319.338 41.7074 318.908 42.0654C318.486 42.4163 317.963 42.7028 317.34 42.9248C316.717 43.1396 315.983 43.2471 315.138 43.2471ZM322.614 43V31.334H325.751V33.2676H325.88C326.059 32.5872 326.388 32.0609 326.868 31.6885C327.348 31.3089 327.946 31.1191 328.662 31.1191C328.855 31.1191 329.042 31.1335 329.221 31.1621C329.407 31.1836 329.564 31.2158 329.693 31.2588V34.0088C329.521 33.9515 329.325 33.9085 329.103 33.8799C328.881 33.8441 328.651 33.8262 328.415 33.8262C327.864 33.8262 327.387 33.9336 326.986 34.1484C326.592 34.3561 326.288 34.6569 326.073 35.0508C325.858 35.4375 325.751 35.9102 325.751 36.4688V43H322.614ZM335.279 43.2148C334.305 43.2148 333.464 42.9714 332.755 42.4844C332.046 41.9974 331.498 41.3027 331.111 40.4004C330.732 39.498 330.542 38.4238 330.542 37.1777V37.1562C330.542 35.8958 330.732 34.818 331.111 33.9229C331.491 33.0205 332.035 32.3294 332.744 31.8496C333.453 31.3626 334.298 31.1191 335.279 31.1191C335.824 31.1191 336.325 31.2087 336.783 31.3877C337.242 31.5596 337.643 31.8066 337.986 32.1289C338.337 32.4512 338.617 32.8379 338.824 33.2891H338.942V27.1016H342.079V43H338.942V41.0986H338.824C338.617 41.5426 338.341 41.9222 337.997 42.2373C337.66 42.5452 337.263 42.7852 336.805 42.957C336.346 43.1289 335.838 43.2148 335.279 43.2148ZM336.332 40.6152C336.869 40.6152 337.335 40.4756 337.729 40.1963C338.122 39.917 338.427 39.5231 338.642 39.0146C338.856 38.499 338.964 37.8867 338.964 37.1777V37.167C338.964 36.458 338.853 35.8457 338.631 35.3301C338.416 34.8145 338.112 34.417 337.718 34.1377C337.324 33.8584 336.862 33.7188 336.332 33.7188C335.802 33.7188 335.34 33.8584 334.946 34.1377C334.56 34.417 334.259 34.8145 334.044 35.3301C333.836 35.8385 333.732 36.4473 333.732 37.1562V37.1777C333.732 37.8867 333.836 38.499 334.044 39.0146C334.252 39.5303 334.552 39.9277 334.946 40.207C335.34 40.4792 335.802 40.6152 336.332 40.6152ZM348.632 43.2471C347.772 43.2471 347.046 43.0752 346.451 42.7314C345.857 42.3805 345.406 41.8792 345.098 41.2275C344.797 40.5758 344.646 39.7917 344.646 38.875V31.334H347.783V38.1875C347.783 38.9824 347.955 39.5911 348.299 40.0137C348.643 40.4362 349.176 40.6475 349.899 40.6475C350.265 40.6475 350.59 40.5866 350.877 40.4648C351.171 40.3359 351.418 40.1605 351.618 39.9385C351.819 39.7093 351.969 39.4372 352.069 39.1221C352.177 38.7998 352.23 38.4453 352.23 38.0586V31.334H355.367V43H352.23V41.1416H352.102C351.915 41.5713 351.661 41.9437 351.339 42.2588C351.017 42.5739 350.626 42.8174 350.168 42.9893C349.717 43.1611 349.205 43.2471 348.632 43.2471ZM363.155 43.2471C361.974 43.2471 360.953 43.0036 360.094 42.5166C359.242 42.0225 358.586 41.3242 358.128 40.4219C357.67 39.5124 357.44 38.4346 357.44 37.1885V37.1777C357.44 35.9388 357.67 34.8646 358.128 33.9551C358.586 33.0456 359.234 32.3438 360.072 31.8496C360.91 31.3483 361.895 31.0977 363.026 31.0977C364.165 31.0977 365.146 31.3411 365.97 31.8281C366.8 32.3079 367.441 32.9883 367.893 33.8691C368.344 34.7428 368.569 35.7669 368.569 36.9414V37.9189H358.987V35.9424H367.076L365.594 37.8008V36.5654C365.594 35.8779 365.486 35.3014 365.271 34.8359C365.064 34.3704 364.77 34.0231 364.391 33.7939C364.018 33.5576 363.581 33.4395 363.08 33.4395C362.586 33.4395 362.146 33.5612 361.759 33.8047C361.379 34.041 361.078 34.3955 360.856 34.8682C360.642 35.3337 360.534 35.8994 360.534 36.5654V37.8115C360.534 38.4561 360.642 39.0111 360.856 39.4766C361.078 39.9349 361.39 40.2858 361.791 40.5293C362.192 40.7728 362.668 40.8945 363.22 40.8945C363.664 40.8945 364.043 40.8301 364.358 40.7012C364.681 40.5651 364.938 40.4004 365.132 40.207C365.332 40.0065 365.468 39.8132 365.54 39.627L365.572 39.5625H368.473L368.44 39.6807C368.354 40.0817 368.186 40.4899 367.936 40.9053C367.692 41.3206 367.355 41.7074 366.926 42.0654C366.503 42.4163 365.98 42.7028 365.357 42.9248C364.734 43.1396 364 43.2471 363.155 43.2471Z" fill="#15151E"/>
<path d="M549 9H423C408.088 9 396 21.0883 396 36C396 50.9117 408.088 63 423 63H549C563.912 63 576 50.9117 576 36C576 21.0883 563.912 9 549 9Z" fill="white"/>
<path d="M430 47C436.075 47 441 42.0751 441 36C441 29.9249 436.075 25 430 25C423.925 25 419 29.9249 419 36C419 42.0751 423.925 47 430 47Z" stroke="#15151E" stroke-width="2.4" stroke-linecap="round" stroke-linejoin="round"/>
<path d="M425 36H434M430.5 39.5L434 36L430.5 32.5" stroke="#15151E" stroke-width="2.4" stroke-linecap="round" stroke-linejoin="round"/>
<path d="M460.057 43.333C458.739 43.333 457.593 43.0931 456.619 42.6133C455.645 42.1335 454.893 41.4639 454.363 40.6045C453.833 39.738 453.568 38.7318 453.568 37.5859V27.499H456.812V37.2959C456.812 37.9619 456.938 38.542 457.188 39.0361C457.446 39.5231 457.815 39.9027 458.295 40.1748C458.782 40.4469 459.373 40.583 460.067 40.583C460.762 40.583 461.349 40.4469 461.829 40.1748C462.316 39.9027 462.685 39.5231 462.936 39.0361C463.186 38.542 463.312 37.9619 463.312 37.2959V27.499H466.556V37.5859C466.556 38.7318 466.291 39.738 465.761 40.6045C465.231 41.4639 464.479 42.1335 463.505 42.6133C462.538 43.0931 461.389 43.333 460.057 43.333ZM469.392 46.835V31.334H472.528V33.2676H472.657C472.865 32.8164 473.137 32.4333 473.474 32.1182C473.817 31.7959 474.218 31.5488 474.677 31.377C475.135 31.2051 475.636 31.1191 476.181 31.1191C477.162 31.1191 478.007 31.3626 478.716 31.8496C479.425 32.3366 479.969 33.0312 480.349 33.9336C480.735 34.8288 480.929 35.903 480.929 37.1562V37.1777C480.929 38.431 480.739 39.5088 480.359 40.4111C479.98 41.3135 479.436 42.0081 478.727 42.4951C478.025 42.9749 477.187 43.2148 476.213 43.2148C475.669 43.2148 475.164 43.1289 474.698 42.957C474.233 42.7852 473.828 42.5381 473.484 42.2158C473.141 41.8936 472.865 41.514 472.657 41.0771H472.528V46.835H469.392ZM475.139 40.6152C475.676 40.6152 476.138 40.4756 476.524 40.1963C476.918 39.917 477.219 39.5231 477.427 39.0146C477.634 38.499 477.738 37.8867 477.738 37.1777V37.1562C477.738 36.4401 477.631 35.8278 477.416 35.3193C477.208 34.8037 476.908 34.4098 476.514 34.1377C476.127 33.8584 475.669 33.7188 475.139 33.7188C474.609 33.7188 474.147 33.8584 473.753 34.1377C473.359 34.417 473.051 34.8145 472.829 35.3301C472.614 35.8385 472.507 36.4473 472.507 37.1562V37.1777C472.507 37.8796 472.614 38.4883 472.829 39.0039C473.051 39.5195 473.359 39.917 473.753 40.1963C474.147 40.4756 474.609 40.6152 475.139 40.6152ZM488.244 43.2471C487.048 43.2471 486.021 43.0036 485.161 42.5166C484.309 42.0296 483.654 41.3314 483.195 40.4219C482.744 39.5124 482.519 38.4238 482.519 37.1562V37.1348C482.519 35.8743 482.744 34.793 483.195 33.8906C483.654 32.9883 484.309 32.2972 485.161 31.8174C486.021 31.3376 487.045 31.0977 488.233 31.0977C489.279 31.0977 490.181 31.2839 490.94 31.6562C491.7 32.0286 492.298 32.5443 492.734 33.2031C493.171 33.862 493.422 34.6211 493.486 35.4805V35.5342H490.575L490.554 35.4697C490.461 34.9111 490.221 34.4528 489.834 34.0947C489.447 33.7367 488.924 33.5576 488.266 33.5576C487.729 33.5576 487.267 33.7008 486.88 33.9873C486.5 34.2666 486.21 34.6748 486.01 35.2119C485.809 35.7419 485.709 36.3864 485.709 37.1455V37.167C485.709 37.9404 485.809 38.5957 486.01 39.1328C486.217 39.6699 486.511 40.0817 486.891 40.3682C487.27 40.6475 487.729 40.7871 488.266 40.7871C488.903 40.7871 489.411 40.6224 489.791 40.293C490.178 39.9635 490.432 39.5016 490.554 38.9072L490.575 38.8428H493.486V38.9072C493.408 39.7523 493.146 40.5007 492.702 41.1523C492.265 41.804 491.671 42.3161 490.919 42.6885C490.167 43.0609 489.275 43.2471 488.244 43.2471ZM500.716 43.2471C499.534 43.2471 498.51 43.0036 497.644 42.5166C496.784 42.0296 496.122 41.335 495.656 40.4326C495.191 39.5231 494.958 38.4382 494.958 37.1777V37.1562C494.958 35.903 495.194 34.8252 495.667 33.9229C496.14 33.0133 496.806 32.3151 497.665 31.8281C498.524 31.3411 499.541 31.0977 500.716 31.0977C501.89 31.0977 502.907 31.3411 503.767 31.8281C504.633 32.3079 505.303 33.0026 505.775 33.9121C506.248 34.8145 506.484 35.8958 506.484 37.1562V37.1777C506.484 38.4453 506.252 39.5339 505.786 40.4434C505.321 41.3457 504.655 42.0404 503.788 42.5273C502.929 43.0072 501.905 43.2471 500.716 43.2471ZM500.727 40.7871C501.257 40.7871 501.711 40.6439 502.091 40.3574C502.478 40.071 502.771 39.6592 502.972 39.1221C503.179 38.585 503.283 37.9368 503.283 37.1777V37.1562C503.283 36.3971 503.179 35.749 502.972 35.2119C502.764 34.6748 502.467 34.2666 502.08 33.9873C501.701 33.7008 501.246 33.5576 500.716 33.5576C500.193 33.5576 499.738 33.7008 499.352 33.9873C498.965 34.2666 498.668 34.6748 498.46 35.2119C498.252 35.749 498.148 36.3971 498.148 37.1562V37.1777C498.148 37.9368 498.252 38.5885 498.46 39.1328C498.668 39.6699 498.961 40.0817 499.341 40.3682C499.728 40.6475 500.189 40.7871 500.727 40.7871ZM508.536 43V31.334H511.673V33.2354H511.802C512.038 32.5693 512.443 32.0465 513.016 31.667C513.596 31.2874 514.272 31.0977 515.046 31.0977C515.583 31.0977 516.066 31.1872 516.496 31.3662C516.933 31.5452 517.302 31.8066 517.603 32.1504C517.903 32.487 518.125 32.8952 518.269 33.375H518.397C518.569 32.9095 518.827 32.5085 519.171 32.1719C519.522 31.8281 519.934 31.5632 520.406 31.377C520.886 31.1908 521.405 31.0977 521.964 31.0977C522.737 31.0977 523.407 31.2588 523.973 31.5811C524.538 31.9033 524.979 32.3581 525.294 32.9453C525.609 33.5254 525.767 34.2129 525.767 35.0078V43H522.63V35.8027C522.63 35.3372 522.555 34.9505 522.404 34.6426C522.261 34.3275 522.046 34.0911 521.76 33.9336C521.48 33.776 521.13 33.6973 520.707 33.6973C520.299 33.6973 519.941 33.7904 519.633 33.9766C519.332 34.1556 519.099 34.4098 518.935 34.7393C518.77 35.0687 518.688 35.4482 518.688 35.8779V43H515.604V35.6738C515.604 35.2585 515.529 34.904 515.379 34.6104C515.229 34.3096 515.01 34.084 514.724 33.9336C514.444 33.776 514.104 33.6973 513.703 33.6973C513.309 33.6973 512.958 33.7939 512.65 33.9873C512.342 34.1807 512.103 34.4492 511.931 34.793C511.759 35.1296 511.673 35.5199 511.673 35.9639V43H508.536ZM528.302 43V31.334H531.438V43H528.302ZM529.87 29.7012C529.397 29.7012 528.993 29.5365 528.656 29.207C528.32 28.8776 528.151 28.4801 528.151 28.0146C528.151 27.5492 528.32 27.1517 528.656 26.8223C528.993 26.4928 529.397 26.3281 529.87 26.3281C530.35 26.3281 530.755 26.4928 531.084 26.8223C531.421 27.1517 531.589 27.5492 531.589 28.0146C531.589 28.4801 531.421 28.8776 531.084 29.207C530.755 29.5365 530.35 29.7012 529.87 29.7012ZM534.038 43V31.334H537.175V33.2031H537.304C537.59 32.5514 538.023 32.0394 538.604 31.667C539.184 31.2874 539.903 31.0977 540.763 31.0977C542.052 31.0977 543.04 31.4808 543.728 32.2471C544.415 33.0133 544.759 34.0876 544.759 35.4697V43H541.622V36.1465C541.622 35.3516 541.447 34.7464 541.096 34.3311C540.745 33.9085 540.208 33.6973 539.484 33.6973C539.012 33.6973 538.604 33.8047 538.26 34.0195C537.916 34.2344 537.647 34.5352 537.454 34.9219C537.268 35.3086 537.175 35.7598 537.175 36.2754V43H534.038ZM552.558 47.0713C551.483 47.0713 550.556 46.9281 549.775 46.6416C548.995 46.3551 548.375 45.9613 547.917 45.46C547.466 44.9587 547.194 44.3893 547.101 43.752V43.666H550.173L550.194 43.7305C550.302 44.0384 550.56 44.2998 550.968 44.5146C551.376 44.7295 551.917 44.8369 552.59 44.8369C553.413 44.8369 554.044 44.6471 554.48 44.2676C554.924 43.888 555.146 43.3652 555.146 42.6992V40.7227H555.028C554.821 41.138 554.541 41.4925 554.19 41.7861C553.847 42.0726 553.446 42.291 552.987 42.4414C552.529 42.5918 552.024 42.667 551.473 42.667C550.499 42.667 549.657 42.4342 548.948 41.9688C548.239 41.5033 547.691 40.8444 547.305 39.9922C546.925 39.14 546.735 38.1374 546.735 36.9844V36.9629C546.735 35.7669 546.929 34.7357 547.315 33.8691C547.702 32.9954 548.254 32.3187 548.97 31.8389C549.686 31.359 550.538 31.1191 551.526 31.1191C552.071 31.1191 552.568 31.2087 553.02 31.3877C553.471 31.5667 553.868 31.8174 554.212 32.1396C554.556 32.4619 554.831 32.8451 555.039 33.2891H555.146V31.334H558.283V42.6562C558.283 43.5443 558.05 44.3177 557.585 44.9766C557.119 45.6426 556.457 46.1582 555.598 46.5234C554.738 46.8887 553.725 47.0713 552.558 47.0713ZM552.547 40.3252C553.084 40.3252 553.546 40.1891 553.933 39.917C554.326 39.6377 554.631 39.251 554.846 38.7568C555.061 38.2627 555.168 37.6826 555.168 37.0166V36.9951C555.168 36.3291 555.061 35.749 554.846 35.2549C554.631 34.7607 554.326 34.3776 553.933 34.1055C553.546 33.8333 553.084 33.6973 552.547 33.6973C552.01 33.6973 551.544 33.8333 551.15 34.1055C550.764 34.3776 550.463 34.7607 550.248 35.2549C550.04 35.7419 549.937 36.3219 549.937 36.9951V37.0059C549.937 37.679 550.04 38.2663 550.248 38.7676C550.463 39.2617 550.764 39.6449 551.15 39.917C551.544 40.1891 552.01 40.3252 552.547 40.3252Z" fill="#15151E"/>
</svg>
