<svg width="441" height="55" viewBox="0 0 441 55" fill="none" xmlns="http://www.w3.org/2000/svg">
<path d="M122.782 7H20.2184C10.1567 7 2 16.1782 2 27.5C2 38.8218 10.1567 48 20.2184 48H122.782C132.843 48 141 38.8218 141 27.5C141 16.1782 132.843 7 122.782 7Z" fill="#2F6BF6"/>
<path d="M30.4146 35.9027C35.0338 35.9027 38.7784 32.1407 38.7784 27.4999C38.7784 22.8592 35.0338 19.0972 30.4146 19.0972C25.7954 19.0972 22.0508 22.8592 22.0508 27.4999C22.0508 32.1407 25.7954 35.9027 30.4146 35.9027Z" stroke="white" stroke-width="2.4" stroke-linecap="round" stroke-linejoin="round"/>
<path d="M30.4141 22.9165V27.4998L33.4554 29.7915" stroke="white" stroke-width="2.4" stroke-linecap="round" stroke-linejoin="round"/>
<path d="M51.1963 33V23.1357H55.0791C56.0589 23.1357 56.8929 23.3271 57.5811 23.71C58.2692 24.0882 58.7956 24.6396 59.1602 25.3643C59.5247 26.0889 59.707 26.9661 59.707 27.9961V28.0098C59.707 29.0716 59.5247 29.974 59.1602 30.7168C58.8001 31.4596 58.276 32.027 57.5879 32.4189C56.8997 32.8063 56.0635 33 55.0791 33H51.1963ZM53.2607 31.2979H54.751C55.3617 31.2979 55.8789 31.1725 56.3027 30.9219C56.7266 30.6712 57.0479 30.3044 57.2666 29.8213C57.4899 29.3337 57.6016 28.7412 57.6016 28.0439V28.0303C57.6016 27.3512 57.4876 26.7747 57.2598 26.3008C57.0365 25.8223 56.7106 25.46 56.2822 25.2139C55.8584 24.9632 55.348 24.8379 54.751 24.8379H53.2607V31.2979ZM63.959 33.1572C63.3984 33.1572 62.9268 33.0479 62.5439 32.8291C62.1657 32.6104 61.8809 32.2913 61.6895 31.8721C61.498 31.4482 61.4023 30.9378 61.4023 30.3408V25.4736H63.3984V29.8828C63.3984 30.416 63.5033 30.8193 63.7129 31.0928C63.9271 31.3662 64.2712 31.5029 64.7451 31.5029C64.9912 31.5029 65.2077 31.4642 65.3945 31.3867C65.5859 31.3047 65.7454 31.1908 65.873 31.0449C66.0007 30.8991 66.0964 30.7236 66.1602 30.5186C66.2285 30.3089 66.2627 30.0765 66.2627 29.8213V25.4736H68.2588V33H66.2627V31.8379H66.1396C66.0257 32.1113 65.8662 32.3483 65.6611 32.5488C65.4561 32.7448 65.21 32.8952 64.9229 33C64.6357 33.1048 64.3145 33.1572 63.959 33.1572ZM73.5703 33.1572C72.8092 33.1572 72.153 33 71.6016 32.6855C71.0547 32.3665 70.6331 31.9154 70.3369 31.332C70.0407 30.7487 69.8926 30.0537 69.8926 29.2471V29.2402C69.8926 28.4427 70.0384 27.75 70.3301 27.1621C70.6263 26.5742 71.0433 26.1185 71.5811 25.7949C72.1234 25.4714 72.7591 25.3096 73.4883 25.3096C74.222 25.3096 74.8555 25.4668 75.3887 25.7812C75.9219 26.0957 76.332 26.5355 76.6191 27.1006C76.9062 27.6657 77.0498 28.3288 77.0498 29.0898V29.7119H70.8906V28.4609H76.0928L75.1562 29.6436V28.8438C75.1562 28.3926 75.0856 28.0166 74.9443 27.7158C74.8076 27.415 74.6162 27.1895 74.3701 27.0391C74.1286 26.8841 73.846 26.8066 73.5225 26.8066C73.2035 26.8066 72.9186 26.8864 72.668 27.0459C72.4219 27.2008 72.2259 27.431 72.0801 27.7363C71.9388 28.0371 71.8682 28.4062 71.8682 28.8438V29.6504C71.8682 30.0742 71.9388 30.4365 72.0801 30.7373C72.2214 31.0381 72.4219 31.2682 72.6816 31.4277C72.9414 31.5872 73.2513 31.667 73.6113 31.667C73.903 31.667 74.1514 31.6237 74.3564 31.5371C74.5615 31.4505 74.7256 31.3503 74.8486 31.2363C74.9762 31.1178 75.0628 31.0107 75.1084 30.915L75.1289 30.874H76.9883L76.9746 30.9424C76.9154 31.1794 76.8083 31.4277 76.6533 31.6875C76.4984 31.9427 76.2842 32.182 76.0107 32.4053C75.7419 32.6286 75.4046 32.8109 74.999 32.9521C74.598 33.0889 74.1217 33.1572 73.5703 33.1572ZM84.8838 33V24.8379H81.9238V23.1357H89.9082V24.8379H86.9482V33H84.8838ZM93.5791 33.1572C92.8089 33.1572 92.1458 33.0023 91.5898 32.6924C91.0339 32.3779 90.6077 31.929 90.3115 31.3457C90.0153 30.7578 89.8672 30.056 89.8672 29.2402V29.2266C89.8672 28.4154 90.0176 27.7181 90.3184 27.1348C90.6191 26.5514 91.0452 26.1025 91.5967 25.7881C92.1527 25.4691 92.8135 25.3096 93.5791 25.3096C94.3447 25.3096 95.0033 25.4668 95.5547 25.7812C96.1107 26.0957 96.5391 26.5469 96.8398 27.1348C97.1406 27.7181 97.291 28.4154 97.291 29.2266V29.2402C97.291 30.056 97.1429 30.7578 96.8467 31.3457C96.5505 31.929 96.1243 32.3779 95.5684 32.6924C95.0169 33.0023 94.3538 33.1572 93.5791 33.1572ZM93.5791 31.5918C93.9346 31.5918 94.2354 31.4984 94.4814 31.3115C94.7275 31.1247 94.9167 30.8558 95.0488 30.5049C95.181 30.154 95.2471 29.7324 95.2471 29.2402V29.2266C95.2471 28.7344 95.181 28.3151 95.0488 27.9688C94.9167 27.6178 94.7253 27.349 94.4746 27.1621C94.2285 26.9707 93.93 26.875 93.5791 26.875C93.2282 26.875 92.9274 26.9707 92.6768 27.1621C92.4307 27.349 92.2415 27.6178 92.1094 27.9688C91.9772 28.3151 91.9111 28.7344 91.9111 29.2266V29.2402C91.9111 29.737 91.9749 30.1608 92.1025 30.5117C92.2347 30.8626 92.4238 31.1315 92.6699 31.3184C92.9206 31.5007 93.2236 31.5918 93.5791 31.5918ZM101.604 33.1162C100.98 33.1162 100.438 32.9613 99.9775 32.6514C99.5218 32.3369 99.1686 31.8903 98.918 31.3115C98.6719 30.7327 98.5488 30.0423 98.5488 29.2402V29.2266C98.5488 28.4199 98.6696 27.7272 98.9111 27.1484C99.1572 26.5697 99.5081 26.1253 99.9639 25.8154C100.42 25.5055 100.966 25.3506 101.604 25.3506C101.946 25.3506 102.263 25.4053 102.555 25.5146C102.851 25.6195 103.111 25.7699 103.334 25.9658C103.557 26.1618 103.73 26.3988 103.854 26.6768H103.977V22.5957H105.973V33H103.977V31.8311H103.854C103.726 32.0999 103.553 32.3301 103.334 32.5215C103.12 32.7129 102.867 32.861 102.575 32.9658C102.284 33.0661 101.96 33.1162 101.604 33.1162ZM102.281 31.4619C102.637 31.4619 102.942 31.373 103.197 31.1953C103.452 31.0176 103.648 30.7624 103.785 30.4297C103.926 30.097 103.997 29.7028 103.997 29.2471V29.2334C103.997 28.7686 103.926 28.3721 103.785 28.0439C103.648 27.7113 103.45 27.4561 103.19 27.2783C102.935 27.096 102.632 27.0049 102.281 27.0049C101.935 27.0049 101.632 27.096 101.372 27.2783C101.117 27.4561 100.921 27.7113 100.784 28.0439C100.647 28.3721 100.579 28.7663 100.579 29.2266V29.2402C100.579 29.7005 100.647 30.097 100.784 30.4297C100.921 30.7624 101.117 31.0176 101.372 31.1953C101.627 31.373 101.93 31.4619 102.281 31.4619ZM110.088 33.1162C109.614 33.1162 109.19 33.0251 108.816 32.8428C108.447 32.6559 108.158 32.3939 107.948 32.0566C107.739 31.7148 107.634 31.3161 107.634 30.8604V30.8467C107.634 30.3955 107.745 30.0081 107.969 29.6846C108.197 29.361 108.527 29.1081 108.96 28.9258C109.397 28.7389 109.928 28.6273 110.553 28.5908L113.355 28.4199V29.6367L110.854 29.8008C110.425 29.8236 110.106 29.9147 109.896 30.0742C109.687 30.2337 109.582 30.4502 109.582 30.7236V30.7373C109.582 31.0244 109.691 31.25 109.91 31.4141C110.129 31.5781 110.411 31.6602 110.758 31.6602C111.068 31.6602 111.343 31.5986 111.585 31.4756C111.826 31.3525 112.018 31.1862 112.159 30.9766C112.3 30.7624 112.371 30.5231 112.371 30.2588V27.8594C112.371 27.5312 112.262 27.2806 112.043 27.1074C111.829 26.9297 111.517 26.8408 111.106 26.8408C110.746 26.8408 110.452 26.9023 110.225 27.0254C110.001 27.1439 109.851 27.3148 109.773 27.5381L109.76 27.5654H107.914L107.921 27.5039C107.976 27.0618 108.142 26.6768 108.42 26.3486C108.702 26.0205 109.081 25.7653 109.555 25.583C110.033 25.4007 110.587 25.3096 111.216 25.3096C111.881 25.3096 112.446 25.4121 112.911 25.6172C113.376 25.8177 113.729 26.1094 113.971 26.4922C114.217 26.8704 114.34 27.3262 114.34 27.8594V33H112.371V32.002H112.248C112.12 32.2344 111.95 32.4349 111.735 32.6035C111.526 32.7676 111.28 32.8952 110.997 32.9863C110.719 33.0729 110.416 33.1162 110.088 33.1162ZM116.985 35.6523C116.871 35.6523 116.753 35.6501 116.63 35.6455C116.507 35.641 116.386 35.6364 116.268 35.6318V34.1279C116.336 34.137 116.416 34.1416 116.507 34.1416C116.603 34.1462 116.696 34.1484 116.787 34.1484C117.143 34.1484 117.425 34.0778 117.635 33.9365C117.844 33.7952 117.983 33.5788 118.052 33.2871L118.12 33L115.475 25.4736H117.669L119.467 31.9678L119.009 31.1748H119.604L119.166 31.9678L120.964 25.4736H123.069L120.506 32.9932C120.287 33.654 120.021 34.1781 119.706 34.5654C119.396 34.9574 119.02 35.2354 118.578 35.3994C118.136 35.568 117.605 35.6523 116.985 35.6523Z" fill="white"/>
<path d="M265.288 8H175.712C162.616 8 152 17.1782 152 28.5C152 39.8218 162.616 49 175.712 49H265.288C278.384 49 289 39.8218 289 28.5C289 17.1782 278.384 8 265.288 8Z" fill="white"/>
<path d="M171.168 35.9027C175.788 35.9027 179.532 32.1407 179.532 27.4999C179.532 22.8592 175.788 19.0972 171.168 19.0972C166.549 19.0972 162.805 22.8592 162.805 27.4999C162.805 32.1407 166.549 35.9027 171.168 35.9027Z" stroke="#15151E" stroke-width="2.4" stroke-linecap="round"/>
<path d="M171.168 22.9165V28.2637" stroke="#15151E" stroke-width="2.4" stroke-linecap="round"/>
<path d="M171.169 32.0071C171.337 32.0071 171.474 31.8703 171.474 31.7016C171.474 31.5328 171.337 31.396 171.169 31.396C171.001 31.396 170.865 31.5328 170.865 31.7016C170.865 31.8703 171.001 32.0071 171.169 32.0071Z" stroke="#15151E" stroke-width="2.4" stroke-linecap="round"/>
<path d="M204.297 35.2891C203.182 35.2891 202.219 35.0495 201.406 34.5703C200.594 34.0859 199.966 33.401 199.523 32.5156C199.086 31.6302 198.867 30.5807 198.867 29.3672V29.3516C198.867 28.1328 199.089 27.0833 199.531 26.2031C199.979 25.3177 200.609 24.6354 201.422 24.1562C202.234 23.6771 203.193 23.4375 204.297 23.4375C205.406 23.4375 206.365 23.6771 207.172 24.1562C207.984 24.6354 208.612 25.3177 209.055 26.2031C209.497 27.0885 209.719 28.138 209.719 29.3516V29.3672C209.719 30.5807 209.497 31.6302 209.055 32.5156C208.617 33.401 207.992 34.0859 207.18 34.5703C206.367 35.0495 205.406 35.2891 204.297 35.2891ZM204.297 33.2891C204.906 33.2891 205.438 33.1276 205.891 32.8047C206.344 32.4818 206.693 32.026 206.938 31.4375C207.188 30.849 207.312 30.1589 207.312 29.3672V29.3516C207.312 28.5547 207.188 27.8646 206.938 27.2812C206.693 26.6927 206.344 26.2396 205.891 25.9219C205.438 25.599 204.906 25.4375 204.297 25.4375C203.688 25.4375 203.156 25.599 202.703 25.9219C202.25 26.2396 201.898 26.6927 201.648 27.2812C201.398 27.8646 201.273 28.5547 201.273 29.3516V29.3672C201.273 30.1589 201.396 30.849 201.641 31.4375C201.891 32.026 202.24 32.4818 202.688 32.8047C203.141 33.1276 203.677 33.2891 204.297 33.2891ZM213.984 35L210.992 26.3984H213.438L215.219 32.8672H215.359L217.125 26.3984H219.523L216.547 35H213.984ZM224.5 35.1797C223.63 35.1797 222.88 35 222.25 34.6406C221.625 34.276 221.143 33.7604 220.805 33.0938C220.466 32.4271 220.297 31.6328 220.297 30.7109V30.7031C220.297 29.7917 220.464 29 220.797 28.3281C221.135 27.6562 221.612 27.1354 222.227 26.7656C222.846 26.3958 223.573 26.2109 224.406 26.2109C225.245 26.2109 225.969 26.3906 226.578 26.75C227.188 27.1094 227.656 27.612 227.984 28.2578C228.312 28.9036 228.477 29.6615 228.477 30.5312V31.2422H221.438V29.8125H227.383L226.312 31.1641V30.25C226.312 29.7344 226.232 29.3047 226.07 28.9609C225.914 28.6172 225.695 28.3594 225.414 28.1875C225.138 28.0104 224.815 27.9219 224.445 27.9219C224.081 27.9219 223.755 28.013 223.469 28.1953C223.188 28.3724 222.964 28.6354 222.797 28.9844C222.635 29.3281 222.555 29.75 222.555 30.25V31.1719C222.555 31.6562 222.635 32.0703 222.797 32.4141C222.958 32.7578 223.188 33.0208 223.484 33.2031C223.781 33.3854 224.135 33.4766 224.547 33.4766C224.88 33.4766 225.164 33.4271 225.398 33.3281C225.633 33.2292 225.82 33.1146 225.961 32.9844C226.107 32.849 226.206 32.7266 226.258 32.6172L226.281 32.5703H228.406L228.391 32.6484C228.323 32.9193 228.201 33.2031 228.023 33.5C227.846 33.7917 227.602 34.0651 227.289 34.3203C226.982 34.5755 226.596 34.7839 226.133 34.9453C225.674 35.1016 225.13 35.1797 224.5 35.1797ZM230.344 35V26.3984H232.625V27.7344H232.766C232.906 27.2656 233.164 26.9036 233.539 26.6484C233.914 26.388 234.38 26.2578 234.938 26.2578C235.094 26.2578 235.245 26.2682 235.391 26.2891C235.542 26.3099 235.674 26.3359 235.789 26.3672V28.3594C235.617 28.3177 235.443 28.2865 235.266 28.2656C235.094 28.2396 234.919 28.2266 234.742 28.2266C234.31 28.2266 233.935 28.3073 233.617 28.4688C233.299 28.625 233.055 28.849 232.883 29.1406C232.711 29.4323 232.625 29.7812 232.625 30.1875V35H230.344ZM240.195 35.1328C239.482 35.1328 238.862 34.9557 238.336 34.6016C237.815 34.2422 237.411 33.7318 237.125 33.0703C236.844 32.4089 236.703 31.6198 236.703 30.7031V30.6875C236.703 29.7656 236.841 28.974 237.117 28.3125C237.398 27.651 237.799 27.1432 238.32 26.7891C238.841 26.4349 239.466 26.2578 240.195 26.2578C240.586 26.2578 240.948 26.3203 241.281 26.4453C241.62 26.5651 241.917 26.737 242.172 26.9609C242.427 27.1849 242.625 27.4557 242.766 27.7734H242.906V23.1094H245.188V35H242.906V33.6641H242.766C242.62 33.9714 242.422 34.2344 242.172 34.4531C241.927 34.6719 241.638 34.8411 241.305 34.9609C240.971 35.0755 240.602 35.1328 240.195 35.1328ZM240.969 33.2422C241.375 33.2422 241.724 33.1406 242.016 32.9375C242.307 32.7344 242.531 32.4427 242.688 32.0625C242.849 31.6823 242.93 31.2318 242.93 30.7109V30.6953C242.93 30.1641 242.849 29.7109 242.688 29.3359C242.531 28.9557 242.305 28.6641 242.008 28.4609C241.716 28.2526 241.37 28.1484 240.969 28.1484C240.573 28.1484 240.227 28.2526 239.93 28.4609C239.638 28.6641 239.414 28.9557 239.258 29.3359C239.102 29.7109 239.023 30.1615 239.023 30.6875V30.7031C239.023 31.2292 239.102 31.6823 239.258 32.0625C239.414 32.4427 239.638 32.7344 239.93 32.9375C240.221 33.1406 240.568 33.2422 240.969 33.2422ZM250.391 35.1797C249.75 35.1797 249.211 35.0547 248.773 34.8047C248.341 34.5547 248.016 34.1901 247.797 33.7109C247.578 33.2266 247.469 32.6432 247.469 31.9609V26.3984H249.75V31.4375C249.75 32.0469 249.87 32.5078 250.109 32.8203C250.354 33.1328 250.747 33.2891 251.289 33.2891C251.57 33.2891 251.818 33.2448 252.031 33.1562C252.25 33.0625 252.432 32.9323 252.578 32.7656C252.724 32.599 252.833 32.3984 252.906 32.1641C252.984 31.9245 253.023 31.6589 253.023 31.3672V26.3984H255.305V35H253.023V33.6719H252.883C252.753 33.9844 252.57 34.2552 252.336 34.4844C252.102 34.7083 251.82 34.8802 251.492 35C251.164 35.1198 250.797 35.1797 250.391 35.1797ZM261.375 35.1797C260.505 35.1797 259.755 35 259.125 34.6406C258.5 34.276 258.018 33.7604 257.68 33.0938C257.341 32.4271 257.172 31.6328 257.172 30.7109V30.7031C257.172 29.7917 257.339 29 257.672 28.3281C258.01 27.6562 258.487 27.1354 259.102 26.7656C259.721 26.3958 260.448 26.2109 261.281 26.2109C262.12 26.2109 262.844 26.3906 263.453 26.75C264.062 27.1094 264.531 27.612 264.859 28.2578C265.188 28.9036 265.352 29.6615 265.352 30.5312V31.2422H258.312V29.8125H264.258L263.188 31.1641V30.25C263.188 29.7344 263.107 29.3047 262.945 28.9609C262.789 28.6172 262.57 28.3594 262.289 28.1875C262.013 28.0104 261.69 27.9219 261.32 27.9219C260.956 27.9219 260.63 28.013 260.344 28.1953C260.062 28.3724 259.839 28.6354 259.672 28.9844C259.51 29.3281 259.43 29.75 259.43 30.25V31.1719C259.43 31.6562 259.51 32.0703 259.672 32.4141C259.833 32.7578 260.062 33.0208 260.359 33.2031C260.656 33.3854 261.01 33.4766 261.422 33.4766C261.755 33.4766 262.039 33.4271 262.273 33.3281C262.508 33.2292 262.695 33.1146 262.836 32.9844C262.982 32.849 263.081 32.7266 263.133 32.6172L263.156 32.5703H265.281L265.266 32.6484C265.198 32.9193 265.076 33.2031 264.898 33.5C264.721 33.7917 264.477 34.0651 264.164 34.3203C263.857 34.5755 263.471 34.7839 263.008 34.9453C262.549 35.1016 262.005 35.1797 261.375 35.1797Z" fill="#15151E"/>
<path d="M419.85 8H321.15C309.469 8 300 17.1782 300 28.5C300 39.8218 309.469 49 321.15 49H419.85C431.531 49 441 39.8218 441 28.5C441 17.1782 431.531 8 419.85 8Z" fill="white"/>
<path d="M325.852 37.0277C330.471 37.0277 334.216 33.2657 334.216 28.6249C334.216 23.9842 330.471 20.2222 325.852 20.2222C321.233 20.2222 317.488 23.9842 317.488 28.6249C317.488 33.2657 321.233 37.0277 325.852 37.0277Z" stroke="#15151E" stroke-width="2.4" stroke-linecap="round" stroke-linejoin="round"/>
<path d="M322.051 28.6248H328.894M326.233 31.2984L328.894 28.6248L326.233 25.9512" stroke="#15151E" stroke-width="2.4" stroke-linecap="round" stroke-linejoin="round"/>
<path d="M351.086 34.2891C350.122 34.2891 349.286 34.1146 348.578 33.7656C347.875 33.4167 347.328 32.9297 346.938 32.3047C346.552 31.6797 346.359 30.9479 346.359 30.1094V22.7266H348.719V29.8984C348.719 30.3828 348.81 30.8047 348.992 31.1641C349.18 31.5182 349.448 31.7943 349.797 31.9922C350.151 32.1901 350.581 32.2891 351.086 32.2891C351.591 32.2891 352.018 32.1901 352.367 31.9922C352.721 31.7943 352.99 31.5182 353.172 31.1641C353.354 30.8047 353.445 30.3828 353.445 29.8984V22.7266H355.805V30.1094C355.805 30.9427 355.612 31.6745 355.227 32.3047C354.846 32.9297 354.302 33.4167 353.594 33.7656C352.891 34.1146 352.055 34.2891 351.086 34.2891ZM358.312 36.8516V25.3984H360.594V26.7266H360.734C360.885 26.4193 361.083 26.1562 361.328 25.9375C361.578 25.7188 361.87 25.5521 362.203 25.4375C362.536 25.3177 362.906 25.2578 363.312 25.2578C364.031 25.2578 364.651 25.4375 365.172 25.7969C365.693 26.1562 366.094 26.6667 366.375 27.3281C366.661 27.9844 366.805 28.7708 366.805 29.6875V29.7031C366.805 30.625 366.664 31.4167 366.383 32.0781C366.102 32.7396 365.701 33.2474 365.18 33.6016C364.659 33.9557 364.036 34.1328 363.312 34.1328C362.917 34.1328 362.549 34.0729 362.211 33.9531C361.878 33.8281 361.583 33.6536 361.328 33.4297C361.078 33.2057 360.88 32.9375 360.734 32.625H360.594V36.8516H358.312ZM362.531 32.2422C362.938 32.2422 363.284 32.1406 363.57 31.9375C363.862 31.7344 364.086 31.4427 364.242 31.0625C364.404 30.6823 364.484 30.2292 364.484 29.7031V29.6875C364.484 29.1615 364.404 28.7083 364.242 28.3281C364.086 27.9479 363.862 27.6562 363.57 27.4531C363.284 27.25 362.938 27.1484 362.531 27.1484C362.13 27.1484 361.781 27.25 361.484 27.4531C361.193 27.6562 360.966 27.9479 360.805 28.3281C360.648 28.7031 360.57 29.1562 360.57 29.6875V29.7031C360.57 30.224 360.651 30.6771 360.812 31.0625C360.974 31.4427 361.201 31.7344 361.492 31.9375C361.789 32.1406 362.135 32.2422 362.531 32.2422ZM372.461 34.1797C371.565 34.1797 370.802 34.0052 370.172 33.6562C369.547 33.3021 369.07 32.7917 368.742 32.125C368.414 31.4531 368.25 30.6406 368.25 29.6875V29.6719C368.25 28.724 368.414 27.9193 368.742 27.2578C369.07 26.5964 369.547 26.0911 370.172 25.7422C370.802 25.388 371.565 25.2109 372.461 25.2109C373.221 25.2109 373.875 25.3411 374.422 25.6016C374.969 25.862 375.401 26.2292 375.719 26.7031C376.036 27.1771 376.229 27.7344 376.297 28.375V28.3984H374.18L374.172 28.3828C374.094 27.9661 373.911 27.6328 373.625 27.3828C373.344 27.1276 372.958 27 372.469 27C372.062 27 371.716 27.1042 371.43 27.3125C371.148 27.5156 370.935 27.8151 370.789 28.2109C370.643 28.6068 370.57 29.0938 370.57 29.6719V29.6875C370.57 30.2656 370.643 30.7578 370.789 31.1641C370.94 31.5651 371.156 31.8698 371.438 32.0781C371.719 32.2865 372.062 32.3906 372.469 32.3906C372.938 32.3906 373.312 32.2812 373.594 32.0625C373.875 31.8438 374.065 31.5156 374.164 31.0781L374.18 31.0547L376.289 31.0469V31.1016C376.206 31.7214 376.005 32.263 375.688 32.7266C375.37 33.1901 374.94 33.5495 374.398 33.8047C373.857 34.0547 373.211 34.1797 372.461 34.1797ZM381.898 34.1797C381.018 34.1797 380.26 34.0026 379.625 33.6484C378.99 33.2891 378.503 32.776 378.164 32.1094C377.826 31.4375 377.656 30.6354 377.656 29.7031V29.6875C377.656 28.7604 377.828 27.9635 378.172 27.2969C378.516 26.6302 379.003 26.1172 379.633 25.7578C380.268 25.3932 381.023 25.2109 381.898 25.2109C382.773 25.2109 383.526 25.3906 384.156 25.75C384.792 26.1094 385.281 26.625 385.625 27.2969C385.969 27.9635 386.141 28.7604 386.141 29.6875V29.7031C386.141 30.6354 385.971 31.4375 385.633 32.1094C385.294 32.776 384.807 33.2891 384.172 33.6484C383.542 34.0026 382.784 34.1797 381.898 34.1797ZM381.898 32.3906C382.305 32.3906 382.648 32.2839 382.93 32.0703C383.211 31.8568 383.427 31.5495 383.578 31.1484C383.729 30.7474 383.805 30.2656 383.805 29.7031V29.6875C383.805 29.125 383.729 28.6458 383.578 28.25C383.427 27.849 383.208 27.5417 382.922 27.3281C382.641 27.1094 382.299 27 381.898 27C381.497 27 381.154 27.1094 380.867 27.3281C380.586 27.5417 380.37 27.849 380.219 28.25C380.068 28.6458 379.992 29.125 379.992 29.6875V29.7031C379.992 30.2708 380.065 30.7552 380.211 31.1562C380.362 31.5573 380.578 31.8646 380.859 32.0781C381.146 32.2865 381.492 32.3906 381.898 32.3906ZM388 34V25.3984H390.281V26.7422H390.422C390.604 26.2578 390.906 25.8828 391.328 25.6172C391.75 25.3464 392.242 25.2109 392.805 25.2109C393.195 25.2109 393.549 25.276 393.867 25.4062C394.185 25.5312 394.456 25.7109 394.68 25.9453C394.904 26.1797 395.076 26.4635 395.195 26.7969H395.336C395.466 26.4792 395.659 26.2031 395.914 25.9688C396.169 25.7292 396.469 25.5443 396.812 25.4141C397.156 25.2786 397.529 25.2109 397.93 25.2109C398.503 25.2109 398.995 25.3281 399.406 25.5625C399.823 25.7969 400.143 26.1302 400.367 26.5625C400.596 26.9896 400.711 27.5 400.711 28.0938V34H398.43V28.6641C398.43 28.3151 398.378 28.026 398.273 27.7969C398.169 27.5677 398.01 27.3958 397.797 27.2812C397.589 27.1615 397.326 27.1016 397.008 27.1016C396.701 27.1016 396.432 27.1719 396.203 27.3125C395.979 27.4531 395.805 27.6432 395.68 27.8828C395.555 28.1224 395.492 28.3984 395.492 28.7109V34H393.211V28.5625C393.211 28.2552 393.154 27.9922 393.039 27.7734C392.93 27.5547 392.768 27.388 392.555 27.2734C392.346 27.1589 392.094 27.1016 391.797 27.1016C391.5 27.1016 391.237 27.1771 391.008 27.3281C390.784 27.474 390.607 27.6771 390.477 27.9375C390.346 28.1927 390.281 28.4844 390.281 28.8125V34H388ZM402.938 34V25.3984H405.219V34H402.938ZM404.086 24.0781C403.737 24.0781 403.435 23.9557 403.18 23.7109C402.924 23.4609 402.797 23.1615 402.797 22.8125C402.797 22.4583 402.924 22.1589 403.18 21.9141C403.435 21.6641 403.737 21.5391 404.086 21.5391C404.44 21.5391 404.742 21.6641 404.992 21.9141C405.242 22.1589 405.367 22.4583 405.367 22.8125C405.367 23.1615 405.242 23.4609 404.992 23.7109C404.742 23.9557 404.44 24.0781 404.086 24.0781ZM407.516 34V25.3984H409.797V26.7266H409.938C410.135 26.2578 410.443 25.888 410.859 25.6172C411.276 25.3464 411.792 25.2109 412.406 25.2109C413.365 25.2109 414.094 25.4922 414.594 26.0547C415.099 26.612 415.352 27.4062 415.352 28.4375V34H413.07V28.9531C413.07 28.3438 412.943 27.8828 412.688 27.5703C412.432 27.2578 412.034 27.1016 411.492 27.1016C411.143 27.1016 410.841 27.1823 410.586 27.3438C410.336 27.5 410.141 27.7214 410 28.0078C409.865 28.2943 409.797 28.6328 409.797 29.0234V34H407.516ZM421.359 37.0234C420.562 37.0234 419.88 36.9193 419.312 36.7109C418.75 36.5078 418.307 36.2188 417.984 35.8438C417.661 35.474 417.469 35.0469 417.406 34.5625V34.5234H419.664L419.672 34.5547C419.734 34.8047 419.911 35.0078 420.203 35.1641C420.5 35.3203 420.901 35.3984 421.406 35.3984C422.016 35.3984 422.49 35.2604 422.828 34.9844C423.167 34.7135 423.336 34.3281 423.336 33.8281V32.2266H423.195C423.039 32.5286 422.833 32.7839 422.578 32.9922C422.328 33.2005 422.036 33.3594 421.703 33.4688C421.375 33.5729 421.013 33.625 420.617 33.625C419.898 33.625 419.276 33.4531 418.75 33.1094C418.229 32.7604 417.826 32.276 417.539 31.6562C417.258 31.0365 417.117 30.3203 417.117 29.5078V29.4922C417.117 28.6484 417.258 27.9089 417.539 27.2734C417.826 26.638 418.232 26.1432 418.758 25.7891C419.289 25.4349 419.922 25.2578 420.656 25.2578C421.052 25.2578 421.414 25.3203 421.742 25.4453C422.076 25.5703 422.367 25.7474 422.617 25.9766C422.867 26.2057 423.068 26.4818 423.219 26.8047H423.328V25.3984H425.609V33.7344C425.609 34.4062 425.435 34.987 425.086 35.4766C424.742 35.9714 424.253 36.3516 423.617 36.6172C422.982 36.888 422.229 37.0234 421.359 37.0234ZM421.391 31.875C421.802 31.875 422.154 31.776 422.445 31.5781C422.737 31.375 422.961 31.0964 423.117 30.7422C423.279 30.388 423.359 29.974 423.359 29.5V29.4844C423.359 29.0156 423.279 28.6016 423.117 28.2422C422.961 27.8828 422.737 27.6042 422.445 27.4062C422.154 27.2083 421.802 27.1094 421.391 27.1094C420.979 27.1094 420.63 27.2083 420.344 27.4062C420.057 27.6042 419.836 27.8828 419.68 28.2422C419.529 28.5964 419.453 29.0104 419.453 29.4844V29.5C419.453 29.9688 419.529 30.3828 419.68 30.7422C419.836 31.0964 420.057 31.375 420.344 31.5781C420.63 31.776 420.979 31.875 421.391 31.875Z" fill="#15151E"/>
</svg>
