<svg width="441" height="55" viewBox="0 0 441 55" fill="none" xmlns="http://www.w3.org/2000/svg">
<path d="M122.782 7H20.2184C10.1567 7 2 16.1782 2 27.5C2 38.8218 10.1567 48 20.2184 48H122.782C132.843 48 141 38.8218 141 27.5C141 16.1782 132.843 7 122.782 7Z" fill="#2F6BF6"/>
<path d="M30.4146 35.9027C35.0338 35.9027 38.7784 32.1407 38.7784 27.4999C38.7784 22.8592 35.0338 19.0972 30.4146 19.0972C25.7954 19.0972 22.0508 22.8592 22.0508 27.4999C22.0508 32.1407 25.7954 35.9027 30.4146 35.9027Z" stroke="white" stroke-width="2.4" stroke-linecap="round" stroke-linejoin="round"/>
<path d="M30.4141 22.9165V27.4998L33.4554 29.7915" stroke="white" stroke-width="2.4" stroke-linecap="round" stroke-linejoin="round"/>
<path d="M51.1963 33V23.1357H55.0791C56.0589 23.1357 56.8929 23.3271 57.5811 23.71C58.2692 24.0882 58.7956 24.6396 59.1602 25.3643C59.5247 26.0889 59.707 26.9661 59.707 27.9961V28.0098C59.707 29.0716 59.5247 29.974 59.1602 30.7168C58.8001 31.4596 58.276 32.027 57.5879 32.4189C56.8997 32.8063 56.0635 33 55.0791 33H51.1963ZM53.2607 31.2979H54.751C55.3617 31.2979 55.8789 31.1725 56.3027 30.9219C56.7266 30.6712 57.0479 30.3044 57.2666 29.8213C57.4899 29.3337 57.6016 28.7412 57.6016 28.0439V28.0303C57.6016 27.3512 57.4876 26.7747 57.2598 26.3008C57.0365 25.8223 56.7106 25.46 56.2822 25.2139C55.8584 24.9632 55.348 24.8379 54.751 24.8379H53.2607V31.2979ZM63.959 33.1572C63.3984 33.1572 62.9268 33.0479 62.5439 32.8291C62.1657 32.6104 61.8809 32.2913 61.6895 31.8721C61.498 31.4482 61.4023 30.9378 61.4023 30.3408V25.4736H63.3984V29.8828C63.3984 30.416 63.5033 30.8193 63.7129 31.0928C63.9271 31.3662 64.2712 31.5029 64.7451 31.5029C64.9912 31.5029 65.2077 31.4642 65.3945 31.3867C65.5859 31.3047 65.7454 31.1908 65.873 31.0449C66.0007 30.8991 66.0964 30.7236 66.1602 30.5186C66.2285 30.3089 66.2627 30.0765 66.2627 29.8213V25.4736H68.2588V33H66.2627V31.8379H66.1396C66.0257 32.1113 65.8662 32.3483 65.6611 32.5488C65.4561 32.7448 65.21 32.8952 64.9229 33C64.6357 33.1048 64.3145 33.1572 63.959 33.1572ZM73.5703 33.1572C72.8092 33.1572 72.153 33 71.6016 32.6855C71.0547 32.3665 70.6331 31.9154 70.3369 31.332C70.0407 30.7487 69.8926 30.0537 69.8926 29.2471V29.2402C69.8926 28.4427 70.0384 27.75 70.3301 27.1621C70.6263 26.5742 71.0433 26.1185 71.5811 25.7949C72.1234 25.4714 72.7591 25.3096 73.4883 25.3096C74.222 25.3096 74.8555 25.4668 75.3887 25.7812C75.9219 26.0957 76.332 26.5355 76.6191 27.1006C76.9062 27.6657 77.0498 28.3288 77.0498 29.0898V29.7119H70.8906V28.4609H76.0928L75.1562 29.6436V28.8438C75.1562 28.3926 75.0856 28.0166 74.9443 27.7158C74.8076 27.415 74.6162 27.1895 74.3701 27.0391C74.1286 26.8841 73.846 26.8066 73.5225 26.8066C73.2035 26.8066 72.9186 26.8864 72.668 27.0459C72.4219 27.2008 72.2259 27.431 72.0801 27.7363C71.9388 28.0371 71.8682 28.4062 71.8682 28.8438V29.6504C71.8682 30.0742 71.9388 30.4365 72.0801 30.7373C72.2214 31.0381 72.4219 31.2682 72.6816 31.4277C72.9414 31.5872 73.2513 31.667 73.6113 31.667C73.903 31.667 74.1514 31.6237 74.3564 31.5371C74.5615 31.4505 74.7256 31.3503 74.8486 31.2363C74.9762 31.1178 75.0628 31.0107 75.1084 30.915L75.1289 30.874H76.9883L76.9746 30.9424C76.9154 31.1794 76.8083 31.4277 76.6533 31.6875C76.4984 31.9427 76.2842 32.182 76.0107 32.4053C75.7419 32.6286 75.4046 32.8109 74.999 32.9521C74.598 33.0889 74.1217 33.1572 73.5703 33.1572ZM84.8838 33V24.8379H81.9238V23.1357H89.9082V24.8379H86.9482V33H84.8838ZM93.5791 33.1572C92.8089 33.1572 92.1458 33.0023 91.5898 32.6924C91.0339 32.3779 90.6077 31.929 90.3115 31.3457C90.0153 30.7578 89.8672 30.056 89.8672 29.2402V29.2266C89.8672 28.4154 90.0176 27.7181 90.3184 27.1348C90.6191 26.5514 91.0452 26.1025 91.5967 25.7881C92.1527 25.4691 92.8135 25.3096 93.5791 25.3096C94.3447 25.3096 95.0033 25.4668 95.5547 25.7812C96.1107 26.0957 96.5391 26.5469 96.8398 27.1348C97.1406 27.7181 97.291 28.4154 97.291 29.2266V29.2402C97.291 30.056 97.1429 30.7578 96.8467 31.3457C96.5505 31.929 96.1243 32.3779 95.5684 32.6924C95.0169 33.0023 94.3538 33.1572 93.5791 33.1572ZM93.5791 31.5918C93.9346 31.5918 94.2354 31.4984 94.4814 31.3115C94.7275 31.1247 94.9167 30.8558 95.0488 30.5049C95.181 30.154 95.2471 29.7324 95.2471 29.2402V29.2266C95.2471 28.7344 95.181 28.3151 95.0488 27.9688C94.9167 27.6178 94.7253 27.349 94.4746 27.1621C94.2285 26.9707 93.93 26.875 93.5791 26.875C93.2282 26.875 92.9274 26.9707 92.6768 27.1621C92.4307 27.349 92.2415 27.6178 92.1094 27.9688C91.9772 28.3151 91.9111 28.7344 91.9111 29.2266V29.2402C91.9111 29.737 91.9749 30.1608 92.1025 30.5117C92.2347 30.8626 92.4238 31.1315 92.6699 31.3184C92.9206 31.5007 93.2236 31.5918 93.5791 31.5918ZM101.604 33.1162C100.98 33.1162 100.438 32.9613 99.9775 32.6514C99.5218 32.3369 99.1686 31.8903 98.918 31.3115C98.6719 30.7327 98.5488 30.0423 98.5488 29.2402V29.2266C98.5488 28.4199 98.6696 27.7272 98.9111 27.1484C99.1572 26.5697 99.5081 26.1253 99.9639 25.8154C100.42 25.5055 100.966 25.3506 101.604 25.3506C101.946 25.3506 102.263 25.4053 102.555 25.5146C102.851 25.6195 103.111 25.7699 103.334 25.9658C103.557 26.1618 103.73 26.3988 103.854 26.6768H103.977V22.5957H105.973V33H103.977V31.8311H103.854C103.726 32.0999 103.553 32.3301 103.334 32.5215C103.12 32.7129 102.867 32.861 102.575 32.9658C102.284 33.0661 101.96 33.1162 101.604 33.1162ZM102.281 31.4619C102.637 31.4619 102.942 31.373 103.197 31.1953C103.452 31.0176 103.648 30.7624 103.785 30.4297C103.926 30.097 103.997 29.7028 103.997 29.2471V29.2334C103.997 28.7686 103.926 28.3721 103.785 28.0439C103.648 27.7113 103.45 27.4561 103.19 27.2783C102.935 27.096 102.632 27.0049 102.281 27.0049C101.935 27.0049 101.632 27.096 101.372 27.2783C101.117 27.4561 100.921 27.7113 100.784 28.0439C100.647 28.3721 100.579 28.7663 100.579 29.2266V29.2402C100.579 29.7005 100.647 30.097 100.784 30.4297C100.921 30.7624 101.117 31.0176 101.372 31.1953C101.627 31.373 101.93 31.4619 102.281 31.4619ZM110.088 33.1162C109.614 33.1162 109.19 33.0251 108.816 32.8428C108.447 32.6559 108.158 32.3939 107.948 32.0566C107.739 31.7148 107.634 31.3161 107.634 30.8604V30.8467C107.634 30.3955 107.745 30.0081 107.969 29.6846C108.197 29.361 108.527 29.1081 108.96 28.9258C109.397 28.7389 109.928 28.6273 110.553 28.5908L113.355 28.4199V29.6367L110.854 29.8008C110.425 29.8236 110.106 29.9147 109.896 30.0742C109.687 30.2337 109.582 30.4502 109.582 30.7236V30.7373C109.582 31.0244 109.691 31.25 109.91 31.4141C110.129 31.5781 110.411 31.6602 110.758 31.6602C111.068 31.6602 111.343 31.5986 111.585 31.4756C111.826 31.3525 112.018 31.1862 112.159 30.9766C112.3 30.7624 112.371 30.5231 112.371 30.2588V27.8594C112.371 27.5312 112.262 27.2806 112.043 27.1074C111.829 26.9297 111.517 26.8408 111.106 26.8408C110.746 26.8408 110.452 26.9023 110.225 27.0254C110.001 27.1439 109.851 27.3148 109.773 27.5381L109.76 27.5654H107.914L107.921 27.5039C107.976 27.0618 108.142 26.6768 108.42 26.3486C108.702 26.0205 109.081 25.7653 109.555 25.583C110.033 25.4007 110.587 25.3096 111.216 25.3096C111.881 25.3096 112.446 25.4121 112.911 25.6172C113.376 25.8177 113.729 26.1094 113.971 26.4922C114.217 26.8704 114.34 27.3262 114.34 27.8594V33H112.371V32.002H112.248C112.12 32.2344 111.95 32.4349 111.735 32.6035C111.526 32.7676 111.28 32.8952 110.997 32.9863C110.719 33.0729 110.416 33.1162 110.088 33.1162ZM116.985 35.6523C116.871 35.6523 116.753 35.6501 116.63 35.6455C116.507 35.641 116.386 35.6364 116.268 35.6318V34.1279C116.336 34.137 116.416 34.1416 116.507 34.1416C116.603 34.1462 116.696 34.1484 116.787 34.1484C117.143 34.1484 117.425 34.0778 117.635 33.9365C117.844 33.7952 117.983 33.5788 118.052 33.2871L118.12 33L115.475 25.4736H117.669L119.467 31.9678L119.009 31.1748H119.604L119.166 31.9678L120.964 25.4736H123.069L120.506 32.9932C120.287 33.654 120.021 34.1781 119.706 34.5654C119.396 34.9574 119.02 35.2354 118.578 35.3994C118.136 35.568 117.605 35.6523 116.985 35.6523Z" fill="white"/>
<path d="M265.288 8H175.712C162.616 8 152 17.1782 152 28.5C152 39.8218 162.616 49 175.712 49H265.288C278.384 49 289 39.8218 289 28.5C289 17.1782 278.384 8 265.288 8Z" fill="white"/>
<path d="M174.364 36.8056C178.983 36.8056 182.728 33.0435 182.728 28.4028C182.728 23.7621 178.983 20 174.364 20C169.745 20 166 23.7621 166 28.4028C166 33.0435 169.745 36.8056 174.364 36.8056Z" stroke="#15151E" stroke-width="2.4" stroke-linecap="round"/>
<path d="M174.363 23.8193V29.1666" stroke="#15151E" stroke-width="2.4" stroke-linecap="round"/>
<path d="M174.365 32.9099C174.533 32.9099 174.669 32.7731 174.669 32.6044C174.669 32.4356 174.533 32.2988 174.365 32.2988C174.197 32.2988 174.061 32.4356 174.061 32.6044C174.061 32.7731 174.197 32.9099 174.365 32.9099Z" stroke="#15151E" stroke-width="2.4" stroke-linecap="round"/>
<path d="M198.297 34.2891C197.182 34.2891 196.219 34.0495 195.406 33.5703C194.594 33.0859 193.966 32.401 193.523 31.5156C193.086 30.6302 192.867 29.5807 192.867 28.3672V28.3516C192.867 27.1328 193.089 26.0833 193.531 25.2031C193.979 24.3177 194.609 23.6354 195.422 23.1562C196.234 22.6771 197.193 22.4375 198.297 22.4375C199.406 22.4375 200.365 22.6771 201.172 23.1562C201.984 23.6354 202.612 24.3177 203.055 25.2031C203.497 26.0885 203.719 27.138 203.719 28.3516V28.3672C203.719 29.5807 203.497 30.6302 203.055 31.5156C202.617 32.401 201.992 33.0859 201.18 33.5703C200.367 34.0495 199.406 34.2891 198.297 34.2891ZM198.297 32.2891C198.906 32.2891 199.438 32.1276 199.891 31.8047C200.344 31.4818 200.693 31.026 200.938 30.4375C201.188 29.849 201.312 29.1589 201.312 28.3672V28.3516C201.312 27.5547 201.188 26.8646 200.938 26.2812C200.693 25.6927 200.344 25.2396 199.891 24.9219C199.438 24.599 198.906 24.4375 198.297 24.4375C197.688 24.4375 197.156 24.599 196.703 24.9219C196.25 25.2396 195.898 25.6927 195.648 26.2812C195.398 26.8646 195.273 27.5547 195.273 28.3516V28.3672C195.273 29.1589 195.396 29.849 195.641 30.4375C195.891 31.026 196.24 31.4818 196.688 31.8047C197.141 32.1276 197.677 32.2891 198.297 32.2891ZM207.984 34L204.992 25.3984H207.438L209.219 31.8672H209.359L211.125 25.3984H213.523L210.547 34H207.984ZM218.5 34.1797C217.63 34.1797 216.88 34 216.25 33.6406C215.625 33.276 215.143 32.7604 214.805 32.0938C214.466 31.4271 214.297 30.6328 214.297 29.7109V29.7031C214.297 28.7917 214.464 28 214.797 27.3281C215.135 26.6562 215.612 26.1354 216.227 25.7656C216.846 25.3958 217.573 25.2109 218.406 25.2109C219.245 25.2109 219.969 25.3906 220.578 25.75C221.188 26.1094 221.656 26.612 221.984 27.2578C222.312 27.9036 222.477 28.6615 222.477 29.5312V30.2422H215.438V28.8125H221.383L220.312 30.1641V29.25C220.312 28.7344 220.232 28.3047 220.07 27.9609C219.914 27.6172 219.695 27.3594 219.414 27.1875C219.138 27.0104 218.815 26.9219 218.445 26.9219C218.081 26.9219 217.755 27.013 217.469 27.1953C217.188 27.3724 216.964 27.6354 216.797 27.9844C216.635 28.3281 216.555 28.75 216.555 29.25V30.1719C216.555 30.6562 216.635 31.0703 216.797 31.4141C216.958 31.7578 217.188 32.0208 217.484 32.2031C217.781 32.3854 218.135 32.4766 218.547 32.4766C218.88 32.4766 219.164 32.4271 219.398 32.3281C219.633 32.2292 219.82 32.1146 219.961 31.9844C220.107 31.849 220.206 31.7266 220.258 31.6172L220.281 31.5703H222.406L222.391 31.6484C222.323 31.9193 222.201 32.2031 222.023 32.5C221.846 32.7917 221.602 33.0651 221.289 33.3203C220.982 33.5755 220.596 33.7839 220.133 33.9453C219.674 34.1016 219.13 34.1797 218.5 34.1797ZM224.344 34V25.3984H226.625V26.7344H226.766C226.906 26.2656 227.164 25.9036 227.539 25.6484C227.914 25.388 228.38 25.2578 228.938 25.2578C229.094 25.2578 229.245 25.2682 229.391 25.2891C229.542 25.3099 229.674 25.3359 229.789 25.3672V27.3594C229.617 27.3177 229.443 27.2865 229.266 27.2656C229.094 27.2396 228.919 27.2266 228.742 27.2266C228.31 27.2266 227.935 27.3073 227.617 27.4688C227.299 27.625 227.055 27.849 226.883 28.1406C226.711 28.4323 226.625 28.7812 226.625 29.1875V34H224.344ZM234.195 34.1328C233.482 34.1328 232.862 33.9557 232.336 33.6016C231.815 33.2422 231.411 32.7318 231.125 32.0703C230.844 31.4089 230.703 30.6198 230.703 29.7031V29.6875C230.703 28.7656 230.841 27.974 231.117 27.3125C231.398 26.651 231.799 26.1432 232.32 25.7891C232.841 25.4349 233.466 25.2578 234.195 25.2578C234.586 25.2578 234.948 25.3203 235.281 25.4453C235.62 25.5651 235.917 25.737 236.172 25.9609C236.427 26.1849 236.625 26.4557 236.766 26.7734H236.906V22.1094H239.188V34H236.906V32.6641H236.766C236.62 32.9714 236.422 33.2344 236.172 33.4531C235.927 33.6719 235.638 33.8411 235.305 33.9609C234.971 34.0755 234.602 34.1328 234.195 34.1328ZM234.969 32.2422C235.375 32.2422 235.724 32.1406 236.016 31.9375C236.307 31.7344 236.531 31.4427 236.688 31.0625C236.849 30.6823 236.93 30.2318 236.93 29.7109V29.6953C236.93 29.1641 236.849 28.7109 236.688 28.3359C236.531 27.9557 236.305 27.6641 236.008 27.4609C235.716 27.2526 235.37 27.1484 234.969 27.1484C234.573 27.1484 234.227 27.2526 233.93 27.4609C233.638 27.6641 233.414 27.9557 233.258 28.3359C233.102 28.7109 233.023 29.1615 233.023 29.6875V29.7031C233.023 30.2292 233.102 30.6823 233.258 31.0625C233.414 31.4427 233.638 31.7344 233.93 31.9375C234.221 32.1406 234.568 32.2422 234.969 32.2422ZM244.391 34.1797C243.75 34.1797 243.211 34.0547 242.773 33.8047C242.341 33.5547 242.016 33.1901 241.797 32.7109C241.578 32.2266 241.469 31.6432 241.469 30.9609V25.3984H243.75V30.4375C243.75 31.0469 243.87 31.5078 244.109 31.8203C244.354 32.1328 244.747 32.2891 245.289 32.2891C245.57 32.2891 245.818 32.2448 246.031 32.1562C246.25 32.0625 246.432 31.9323 246.578 31.7656C246.724 31.599 246.833 31.3984 246.906 31.1641C246.984 30.9245 247.023 30.6589 247.023 30.3672V25.3984H249.305V34H247.023V32.6719H246.883C246.753 32.9844 246.57 33.2552 246.336 33.4844C246.102 33.7083 245.82 33.8802 245.492 34C245.164 34.1198 244.797 34.1797 244.391 34.1797ZM255.375 34.1797C254.505 34.1797 253.755 34 253.125 33.6406C252.5 33.276 252.018 32.7604 251.68 32.0938C251.341 31.4271 251.172 30.6328 251.172 29.7109V29.7031C251.172 28.7917 251.339 28 251.672 27.3281C252.01 26.6562 252.487 26.1354 253.102 25.7656C253.721 25.3958 254.448 25.2109 255.281 25.2109C256.12 25.2109 256.844 25.3906 257.453 25.75C258.062 26.1094 258.531 26.612 258.859 27.2578C259.188 27.9036 259.352 28.6615 259.352 29.5312V30.2422H252.312V28.8125H258.258L257.188 30.1641V29.25C257.188 28.7344 257.107 28.3047 256.945 27.9609C256.789 27.6172 256.57 27.3594 256.289 27.1875C256.013 27.0104 255.69 26.9219 255.32 26.9219C254.956 26.9219 254.63 27.013 254.344 27.1953C254.062 27.3724 253.839 27.6354 253.672 27.9844C253.51 28.3281 253.43 28.75 253.43 29.25V30.1719C253.43 30.6562 253.51 31.0703 253.672 31.4141C253.833 31.7578 254.062 32.0208 254.359 32.2031C254.656 32.3854 255.01 32.4766 255.422 32.4766C255.755 32.4766 256.039 32.4271 256.273 32.3281C256.508 32.2292 256.695 32.1146 256.836 31.9844C256.982 31.849 257.081 31.7266 257.133 31.6172L257.156 31.5703H259.281L259.266 31.6484C259.198 31.9193 259.076 32.2031 258.898 32.5C258.721 32.7917 258.477 33.0651 258.164 33.3203C257.857 33.5755 257.471 33.7839 257.008 33.9453C256.549 34.1016 256.005 34.1797 255.375 34.1797Z" fill="#15151E"/>
<path d="M419.85 8H321.15C309.469 8 300 17.1782 300 28.5C300 39.8218 309.469 49 321.15 49H419.85C431.531 49 441 39.8218 441 28.5C441 17.1782 431.531 8 419.85 8Z" fill="white"/>
<path d="M325.852 37.0277C330.471 37.0277 334.216 33.2657 334.216 28.6249C334.216 23.9842 330.471 20.2222 325.852 20.2222C321.233 20.2222 317.488 23.9842 317.488 28.6249C317.488 33.2657 321.233 37.0277 325.852 37.0277Z" stroke="#15151E" stroke-width="2.4" stroke-linecap="round" stroke-linejoin="round"/>
<path d="M322.051 28.6248H328.894M326.233 31.2984L328.894 28.6248L326.233 25.9512" stroke="#15151E" stroke-width="2.4" stroke-linecap="round" stroke-linejoin="round"/>
<path d="M349.086 34.2891C348.122 34.2891 347.286 34.1146 346.578 33.7656C345.875 33.4167 345.328 32.9297 344.938 32.3047C344.552 31.6797 344.359 30.9479 344.359 30.1094V22.7266H346.719V29.8984C346.719 30.3828 346.81 30.8047 346.992 31.1641C347.18 31.5182 347.448 31.7943 347.797 31.9922C348.151 32.1901 348.581 32.2891 349.086 32.2891C349.591 32.2891 350.018 32.1901 350.367 31.9922C350.721 31.7943 350.99 31.5182 351.172 31.1641C351.354 30.8047 351.445 30.3828 351.445 29.8984V22.7266H353.805V30.1094C353.805 30.9427 353.612 31.6745 353.227 32.3047C352.846 32.9297 352.302 33.4167 351.594 33.7656C350.891 34.1146 350.055 34.2891 349.086 34.2891ZM356.312 36.8516V25.3984H358.594V26.7266H358.734C358.885 26.4193 359.083 26.1562 359.328 25.9375C359.578 25.7188 359.87 25.5521 360.203 25.4375C360.536 25.3177 360.906 25.2578 361.312 25.2578C362.031 25.2578 362.651 25.4375 363.172 25.7969C363.693 26.1562 364.094 26.6667 364.375 27.3281C364.661 27.9844 364.805 28.7708 364.805 29.6875V29.7031C364.805 30.625 364.664 31.4167 364.383 32.0781C364.102 32.7396 363.701 33.2474 363.18 33.6016C362.659 33.9557 362.036 34.1328 361.312 34.1328C360.917 34.1328 360.549 34.0729 360.211 33.9531C359.878 33.8281 359.583 33.6536 359.328 33.4297C359.078 33.2057 358.88 32.9375 358.734 32.625H358.594V36.8516H356.312ZM360.531 32.2422C360.938 32.2422 361.284 32.1406 361.57 31.9375C361.862 31.7344 362.086 31.4427 362.242 31.0625C362.404 30.6823 362.484 30.2292 362.484 29.7031V29.6875C362.484 29.1615 362.404 28.7083 362.242 28.3281C362.086 27.9479 361.862 27.6562 361.57 27.4531C361.284 27.25 360.938 27.1484 360.531 27.1484C360.13 27.1484 359.781 27.25 359.484 27.4531C359.193 27.6562 358.966 27.9479 358.805 28.3281C358.648 28.7031 358.57 29.1562 358.57 29.6875V29.7031C358.57 30.224 358.651 30.6771 358.812 31.0625C358.974 31.4427 359.201 31.7344 359.492 31.9375C359.789 32.1406 360.135 32.2422 360.531 32.2422ZM370.461 34.1797C369.565 34.1797 368.802 34.0052 368.172 33.6562C367.547 33.3021 367.07 32.7917 366.742 32.125C366.414 31.4531 366.25 30.6406 366.25 29.6875V29.6719C366.25 28.724 366.414 27.9193 366.742 27.2578C367.07 26.5964 367.547 26.0911 368.172 25.7422C368.802 25.388 369.565 25.2109 370.461 25.2109C371.221 25.2109 371.875 25.3411 372.422 25.6016C372.969 25.862 373.401 26.2292 373.719 26.7031C374.036 27.1771 374.229 27.7344 374.297 28.375V28.3984H372.18L372.172 28.3828C372.094 27.9661 371.911 27.6328 371.625 27.3828C371.344 27.1276 370.958 27 370.469 27C370.062 27 369.716 27.1042 369.43 27.3125C369.148 27.5156 368.935 27.8151 368.789 28.2109C368.643 28.6068 368.57 29.0938 368.57 29.6719V29.6875C368.57 30.2656 368.643 30.7578 368.789 31.1641C368.94 31.5651 369.156 31.8698 369.438 32.0781C369.719 32.2865 370.062 32.3906 370.469 32.3906C370.938 32.3906 371.312 32.2812 371.594 32.0625C371.875 31.8438 372.065 31.5156 372.164 31.0781L372.18 31.0547L374.289 31.0469V31.1016C374.206 31.7214 374.005 32.263 373.688 32.7266C373.37 33.1901 372.94 33.5495 372.398 33.8047C371.857 34.0547 371.211 34.1797 370.461 34.1797ZM379.898 34.1797C379.018 34.1797 378.26 34.0026 377.625 33.6484C376.99 33.2891 376.503 32.776 376.164 32.1094C375.826 31.4375 375.656 30.6354 375.656 29.7031V29.6875C375.656 28.7604 375.828 27.9635 376.172 27.2969C376.516 26.6302 377.003 26.1172 377.633 25.7578C378.268 25.3932 379.023 25.2109 379.898 25.2109C380.773 25.2109 381.526 25.3906 382.156 25.75C382.792 26.1094 383.281 26.625 383.625 27.2969C383.969 27.9635 384.141 28.7604 384.141 29.6875V29.7031C384.141 30.6354 383.971 31.4375 383.633 32.1094C383.294 32.776 382.807 33.2891 382.172 33.6484C381.542 34.0026 380.784 34.1797 379.898 34.1797ZM379.898 32.3906C380.305 32.3906 380.648 32.2839 380.93 32.0703C381.211 31.8568 381.427 31.5495 381.578 31.1484C381.729 30.7474 381.805 30.2656 381.805 29.7031V29.6875C381.805 29.125 381.729 28.6458 381.578 28.25C381.427 27.849 381.208 27.5417 380.922 27.3281C380.641 27.1094 380.299 27 379.898 27C379.497 27 379.154 27.1094 378.867 27.3281C378.586 27.5417 378.37 27.849 378.219 28.25C378.068 28.6458 377.992 29.125 377.992 29.6875V29.7031C377.992 30.2708 378.065 30.7552 378.211 31.1562C378.362 31.5573 378.578 31.8646 378.859 32.0781C379.146 32.2865 379.492 32.3906 379.898 32.3906ZM386 34V25.3984H388.281V26.7422H388.422C388.604 26.2578 388.906 25.8828 389.328 25.6172C389.75 25.3464 390.242 25.2109 390.805 25.2109C391.195 25.2109 391.549 25.276 391.867 25.4062C392.185 25.5312 392.456 25.7109 392.68 25.9453C392.904 26.1797 393.076 26.4635 393.195 26.7969H393.336C393.466 26.4792 393.659 26.2031 393.914 25.9688C394.169 25.7292 394.469 25.5443 394.812 25.4141C395.156 25.2786 395.529 25.2109 395.93 25.2109C396.503 25.2109 396.995 25.3281 397.406 25.5625C397.823 25.7969 398.143 26.1302 398.367 26.5625C398.596 26.9896 398.711 27.5 398.711 28.0938V34H396.43V28.6641C396.43 28.3151 396.378 28.026 396.273 27.7969C396.169 27.5677 396.01 27.3958 395.797 27.2812C395.589 27.1615 395.326 27.1016 395.008 27.1016C394.701 27.1016 394.432 27.1719 394.203 27.3125C393.979 27.4531 393.805 27.6432 393.68 27.8828C393.555 28.1224 393.492 28.3984 393.492 28.7109V34H391.211V28.5625C391.211 28.2552 391.154 27.9922 391.039 27.7734C390.93 27.5547 390.768 27.388 390.555 27.2734C390.346 27.1589 390.094 27.1016 389.797 27.1016C389.5 27.1016 389.237 27.1771 389.008 27.3281C388.784 27.474 388.607 27.6771 388.477 27.9375C388.346 28.1927 388.281 28.4844 388.281 28.8125V34H386ZM400.938 34V25.3984H403.219V34H400.938ZM402.086 24.0781C401.737 24.0781 401.435 23.9557 401.18 23.7109C400.924 23.4609 400.797 23.1615 400.797 22.8125C400.797 22.4583 400.924 22.1589 401.18 21.9141C401.435 21.6641 401.737 21.5391 402.086 21.5391C402.44 21.5391 402.742 21.6641 402.992 21.9141C403.242 22.1589 403.367 22.4583 403.367 22.8125C403.367 23.1615 403.242 23.4609 402.992 23.7109C402.742 23.9557 402.44 24.0781 402.086 24.0781ZM405.516 34V25.3984H407.797V26.7266H407.938C408.135 26.2578 408.443 25.888 408.859 25.6172C409.276 25.3464 409.792 25.2109 410.406 25.2109C411.365 25.2109 412.094 25.4922 412.594 26.0547C413.099 26.612 413.352 27.4062 413.352 28.4375V34H411.07V28.9531C411.07 28.3438 410.943 27.8828 410.688 27.5703C410.432 27.2578 410.034 27.1016 409.492 27.1016C409.143 27.1016 408.841 27.1823 408.586 27.3438C408.336 27.5 408.141 27.7214 408 28.0078C407.865 28.2943 407.797 28.6328 407.797 29.0234V34H405.516ZM419.359 37.0234C418.562 37.0234 417.88 36.9193 417.312 36.7109C416.75 36.5078 416.307 36.2188 415.984 35.8438C415.661 35.474 415.469 35.0469 415.406 34.5625V34.5234H417.664L417.672 34.5547C417.734 34.8047 417.911 35.0078 418.203 35.1641C418.5 35.3203 418.901 35.3984 419.406 35.3984C420.016 35.3984 420.49 35.2604 420.828 34.9844C421.167 34.7135 421.336 34.3281 421.336 33.8281V32.2266H421.195C421.039 32.5286 420.833 32.7839 420.578 32.9922C420.328 33.2005 420.036 33.3594 419.703 33.4688C419.375 33.5729 419.013 33.625 418.617 33.625C417.898 33.625 417.276 33.4531 416.75 33.1094C416.229 32.7604 415.826 32.276 415.539 31.6562C415.258 31.0365 415.117 30.3203 415.117 29.5078V29.4922C415.117 28.6484 415.258 27.9089 415.539 27.2734C415.826 26.638 416.232 26.1432 416.758 25.7891C417.289 25.4349 417.922 25.2578 418.656 25.2578C419.052 25.2578 419.414 25.3203 419.742 25.4453C420.076 25.5703 420.367 25.7474 420.617 25.9766C420.867 26.2057 421.068 26.4818 421.219 26.8047H421.328V25.3984H423.609V33.7344C423.609 34.4062 423.435 34.987 423.086 35.4766C422.742 35.9714 422.253 36.3516 421.617 36.6172C420.982 36.888 420.229 37.0234 419.359 37.0234ZM419.391 31.875C419.802 31.875 420.154 31.776 420.445 31.5781C420.737 31.375 420.961 31.0964 421.117 30.7422C421.279 30.388 421.359 29.974 421.359 29.5V29.4844C421.359 29.0156 421.279 28.6016 421.117 28.2422C420.961 27.8828 420.737 27.6042 420.445 27.4062C420.154 27.2083 419.802 27.1094 419.391 27.1094C418.979 27.1094 418.63 27.2083 418.344 27.4062C418.057 27.6042 417.836 27.8828 417.68 28.2422C417.529 28.5964 417.453 29.0104 417.453 29.4844V29.5C417.453 29.9688 417.529 30.3828 417.68 30.7422C417.836 31.0964 418.057 31.375 418.344 31.5781C418.63 31.776 418.979 31.875 419.391 31.875Z" fill="#15151E"/>
</svg>
